<?xml version="1.0" encoding="utf-8"?>
<!-- Generator: Adobe Illustrator 19.2.1, SVG Export Plug-In . SVG Version: 6.00 Build 0)  -->
<svg version="1.1" xmlns="http://www.w3.org/2000/svg" xmlns:xlink="http://www.w3.org/1999/xlink" x="0px" y="0px"
	 viewBox="0 0 1920 1080" style="enable-background:new 0 0 1920 1080;" xml:space="preserve">
<style type="text/css">
	.st0{display:none;}
	.st1{display:inline;fill:#16A085;}
	.st2{fill:#16A085;}
</style>
<g id="Layer_1" class="st0">
	<path class="st1" d="M122.5,943.8c8.9-2.7,10.9-8.6,10.6-17.6c-0.7-26.5,0.3-53-0.4-79.5c-0.6-21.8,0.1-43.1,9.3-63.3l1.4,1.2
		c1.4,3.9,1.6,8,2.6,12c2.3,1.9,3.8,0,5.4-1.1c0.3-0.2,0.5-0.3,0.7-0.5c-0.8,0.6-1.7,1-2.7,1.4c-4.7-2-3.9-6.7-5.3-10.3
		c0-1.4,0.7-2.7,1.9-3.4c13.3,0.6,9.5-14.2,17-18.8c19.5-18.3,19.7-18.5,40.7-3.9c6.4,4.4,16,7.3,14.3,18.3c-0.3,2,1.1,2.9,2.4,2.7
		c12.7-1.8,8.1,10.4,11.9,14c12.6,12.1,4.4,26.6,8.1,39.3c-4.6-4.4-4.6-4.4-5.3-15.9c-0.2-2-2.6,0.7-0.9-0.2
		c0.5-0.2,0.5,0.2,0.9,1.2c2.1,5.3-2.6,11.6,2.3,16.6c1.3,1.4,2.6,2.1,1.2,0.6c0.9-0.5,1.5-1.3,1.6-2.3c14.6-0.8,26.2,3.5,30.7,19
		c1,3.3,2.3,5.5,5.9,4.8c8.7-1.6,12,1.6,12.2,10.7c0.1,5.4,6.1,5.2,10.5,5.6c8.6,0.8,17.4-1.8,25.9,1.7c-5,2.1-10,3.8-15.4,2.1
		c3.4,1.8,6.6,0.4,9.8,0.1c3.2-0.8,4.9,1.1,6.2,3.6c3.3,10.5-3.8,22.3,4.2,32.2c6,4.5,13.7-0.3,19.9,3.5c0.2,10.2,0.4,20.5,0.6,30.7
		c0.1,3.6-1.3,8.5,5.3,7.5c1.8-1.3,4.3-1.4,6.1-0.2c1.4,2.5,0.6,6.9,5.5,6.1c3.9-16.9,1.1-34.1,1.6-51.1c0.5-16.8,0.7-33.6-0.1-50.4
		c-0.5-9.8,2.7-13.3,12.5-12.6c5,0.3,10.7,2.4,15.5-1.5c5.7-6.1,0.9-14,3.5-20.6c5.5-17.4,2.8-35,1.5-52.5c-1-8.1,4.2-8.4,10.2-8.4
		c14.3,0.2,28.6,0.1,40.3,0.1c-15.5-0.9-33.4,1.4-51.4-1.5c18.3-5.1,36.9-1.2,55.4-2c9.4-0.4,6,7.4,6,12c0.2,47.5,0,94.9,0.3,142.4
		c0,5.4-2.5,11.9,6.1,17.8c0-25.5,0-49.2,0-73c0-34,0-34,34.3-34c22.4,0,22.4,0,22.4,22.6c0,7.9,0,15.8,0.1,23.7
		c-2.3,5.8,2.2,4.5,5.2,4.9c7.2,0.9,14.7-2,21.6,1.9c-3.9,8.2,2.9,15.1,2.5,23c-0.4,10.3,0.1,20.6-0.2,30.8
		c0.1-14.6,0.4-29.1-0.2-43.5c0.3-4.7,0.3-9.2-4.5-11.9c-6.8-0.8-13.7,0-20.5-0.5c-2.6-0.2-6.5-0.1-4.1-4.8
		c11.2,2.9,27-5.2,33.1,4.2c5.4,8.4,1.4,22.8,1.5,34.6c0,5.4,0.6,10.9-0.1,16.2c-1.5,10.4,1.5,19.5,7,28c4,3.8,8,3.7,11.7-0.5
		c1.3-0.5,2.6-0.8,4-0.8c3-0.2,6-0.1,8.8,1.1c7.9,3.5,9.8-1.1,10-7.5c0.5-11.4,1.8-23-0.3-34c-2.2-12.1,6.7-21.6,4.8-33.7
		c-0.8-5.2,8.5-4.7,13.7-5.8c1.4,0,2.8,0.4,4,1c1.6,6.1,6.3,6.5,11.4,6.7c5.8,0.2,11.8-1.3,17.3,1.7c4.2,1.9-0.5,7.6,4,9.4
		c0.7,0.5,1.5,0.8,2.3,0.8c18.1,4.2,7.2-11.5,11.6-16.8c2.6-10.5-3.2-21.9,4-31.8c9-0.4,18-1.5,26.9,0.7c4.4,8.3,2,17.3,2.2,26
		c0.5,25-0.2,49.9,0.4,74.9c0.3,1.6,0.6,3.3,0.8,4.9c-2.1,12.3-1,24.6-0.8,36.9c0.4,1.3,0.8,2.6,1.3,3.9c0.4,4.8-2.4,9.8,1.1,14.4
		c0.7,1.1,1.3,2.2,1.7,3.4c0.2,1.3,0.3,2.5,0.1,3.8c-0.8,5.4-1.5,10.8-0.1,16.1c0.4,0.9,1.1,1.5,2,1.7c1,0,1.9-0.6,2.1-1.6
		c0.7-7.5-1.3-14.5-2.6-21.7c-2-13.3,3.7-26.2,1.6-39.5c-0.6-5.9,3.8-7.5,5.4-8.1c-1.6-0.2-3-0.7-4.4-1.5c-0.7-0.9-0.5-2.1,0.4-2.8
		c0.2-0.2,0.5-0.3,0.7-0.3c9.4,1.6,12.8-1.7,12.5-11.8c-0.7-28.7,0.3-57.3-0.5-86c-0.4-13.2,0.1-23.9,17-24.1
		c10.7,1.9,21.4,2.8,32-0.5c16.5-1.6,32.8-10,49.3,2.2c9.9,7.3,20.1,0,20.8-12.6c0.3-6-2.6-12.5,1.9-18.2c3.6,7-0.6,15.2,2.7,22.3
		c0.8,1.9,1.9-1.3,0.3-0.2c-2.7-7.5-2.2-15-0.2-22.5l5.9-3.8c0.8-0.7,1.7-1.4,2.7-1.8c1-0.5,1.8-1.3,2.5-2.2
		c-0.6-15,1.1-30.1-1.5-45c-1.1-5-0.1-10.1-1.3-15c-0.6-1.3-0.2-2.9,1-3.8c1.4-1.6,3.2-4.8,4.2-4.6c10.1,2.2,10.5,2.4,11.3-8.2
		c0.4-5.8,3.9-8.5,7.5-11.7c5.6,0.4,10.9,2.3,15.5,5.5c2.7,3.3,2.7,7.2,1.9,10.9c-2,8.5,2.8,12.1,9.8,14.4c6.5,4.7,9.4,11,8.9,19.1
		c-0.6,10.3,0.6,20.6-0.6,30.6c1.3-16.2,0.2-32.2,0.2-48.3c0.4-1.5,1.1-2.9,2-4.2c1.3-1.4,2.7-1.4,4-0.1
		c-0.2,19.2-0.3,38.5-0.6,57.7c-0.1,5.7,1.2,7.8,7.7,9.6c13.5,3.7,27.4-1.1,40.6,3.5c-10.6,3-21.5,0.6-32.3,1.6
		c6.2-0.5,12.5,0.5,18.6-0.3c11.1-1.3,14,3.9,11.7,13.7c-2.2,43.3-0.7,86.6-0.8,129.9c0,23.5-1.8,47.2,1.2,70.6
		c-2.3-4.8-1.3-9.8-1.3-14.7c-0.1-56.7-0.1-113.5,0-170.2c0-10.3,1-20.5,2.9-30.6c4,4.2,1.8,9.3,1.8,14c0.2,67.2,0,134.3,0.3,201.5
		c0,4.3-3.2,10.6,3.6,12.7c5.5,1.7,9-2.3,13.6-5.2c9.5-6.1,10.9-13.3,10.8-23.3c-0.5-29.6-0.4-59.3,0-88.9c0.1-6.7-1-11.8-6.5-15.7
		c4.6-4.4-1.4-11.7,4.3-15.7c5.7,1,11.5,0.7,17.1,0.9c-7.1-0.4-14.2,0.4-20.6-3c3.1-3.7,7.3-1.7,11-1.8c10.1-0.5,23.1,3.3,18.5-15.2
		c-0.7-2.8,1.6-6.6,4.9-5.9c12,2.6,14.1-6.8,18.3-14c-3.4-17.3,1.1-34.9-2.5-52.2c0.3-26.4,3.5-53-5.4-78.8
		c-1.5-4.3-0.7-9.9,0.5-14.6c2-8.3,3.5-15.9-0.8-24.2c-1.8-3.5-2.1-9.6-0.3-12.9c10.7-19.7,0.9-39.1-0.4-58.4
		c-0.6-8.2-5.8-16.1-9.4-23.9c-3.9-8.5-5.1-16.8,0.1-25.1c7.6-2.7,16.2-0.1,23.6-4.2c3.1-1,6.2-0.3,9.3,0.2c1.1,0,2.2-0.1,3.3-0.3
		c2.7-2.2,1.9-4.7,0.7-7.3c-0.7-1-1.2-2.1-1.6-3.3c-0.4-3.1-0.4-6.3-0.2-9.4c0.4-1.9,2-3.4,3.9-3.7c2.4-1,3.9-3.4,6.4-4.1
		c4.5-1,10.6,1.1,11.8-6.2c3.2-2,4.2,1.3,6.1,2.6l-0.3,0.5c5.1,1.1,10.1,2.4,12.9,7.4c2,0.9,3.4,2.1,2.3,4.5
		c4.1,9.7,4,20.3,2.9,30.2c-1.1,10.1,2,18.2,8.6,23.8c9.5,8.2,14,18.2,17.5,29.7c4,13.3,13,15.7,20.9,5.5c4.5-5.8,7.5-5.3,11.4-1.5
		c4.5,4.5,14.8,2.7,12.9,14.6c-2.4,14.5-3.2,28.8-18,37.1c-1.6,0.9-1.8,4.4-2.7,6.7c-1.4-0.5-1.5-2.4-3-2.8c1.1,0.7,2.1,1.5,3.1,2.4
		c0.7,12.5-1.1,23.3-16,26.3c-3.3,0.7-1.9,3.8-2.3,6c-1,1.1-2.4,1.6-3.9,1.3c-1.5-0.2-2.3-1.8-3.7-2.1c-0.2,2.9,2.3,2.5,3.8,3
		c1.4,0.5,2.9,0,4.3-0.4c3.5,24.3,10.7,48.6-0.2,72.9c-2.3-0.2-1.5,2.1-2.4,3c1,0.1,1.9-0.3,2.4-1.2c2.3,8.8,4.6,16.7-0.6,26.3
		c-7.5,14-0.7,36.7,11.7,47.5c1.1,0.9,2.5,2.4,2.4,3.5c-2.6,28.8,18.6,12.7,29.6,15.8c4.7,7.6,2.8,15.5,1.1,23.4
		c-6,1.7-6.5,6.2-6.4,11.5c0.2,32.6,0.5,65.2-0.2,97.7c-0.2,9.9,5.6,12.5,12.3,15.6c8.7-0.9,4.2-7.3,4.3-11.2
		c1.4-37.8-1-75.8,1.4-113.6l1.5-2.9c3.5-3.4,9.2,0.5,12.5-3.8c2.8-3.5,2.7-7.7,3-11.8c0.3-46,0-91.9,0.1-137.9
		c0.1-24.5,0.1-24.5,24.8-24.8c2,0,3.9-0.1,5.9-0.3c1.7,0.1,3.3-1.8,5.1-0.2c-1.5-2.3-3.1,0-4.7,0c-10.5,0.2-21.1,1.8-31.5-0.9
		l-1.6-1.7c29.1-1.8,58.1-4.3,87.2-4.7c6.7-0.1,15.1,0.7,21.4,0.9c20.3,0.6,16.4,12.7,16.5,24.3c0.2,2,0.5,3.9,0.9,5.8
		c2.8,5.4,11-1.2,13.2,5.8c1.6,27.4,0.1,54.8,0.8,82.1c-0.2-24.1-0.1-48,0-72c0-5.3-1-10.9,2.9-15.4c5.6,2,2.9,6.7,2.9,10.1
		c0.3,18.3,1.7,36.7-0.3,54.8c-2.3,22.2,9,42.6,6.2,64.6c-0.4,3.3,0.9,5.5,4.8,5.9c6.3,0.6,8.3,4.4,6.9,10.3
		c-2.2,24.7-2.2,49.5,0,74.2v3c-2.2,3.8-3.5,7.7,0.5,11.2c6.7,1.6,11.2,1.1,10.8-8c-0.6-14.2,0.5-28.5-0.4-42.6
		c-0.6-10.5,1.7-15,13.4-14c13.4,1.1,26.9-0.1,40.4-0.3c1.5-1,2.6-2.5,3.2-4.2c1.2-54.9,0.2-109.8,0.6-164.7
		c0-6.9-0.3-13.8,0.3-20.8c0.3-1.8,1.2-3.5,2.5-4.9c30.5-0.9,61-1.8,91.6-2.4c1.1,0,2.2,2.8,3.3,4.3c-1.4,7-3.7,13.9,0.5,20.7
		c4.2,0.2,3-4.9,5.9-6c3.4-5.8-0.5-12.6,2.6-18.4c0.4-1.9,2.8-5.4,2.8-4.1c0.3,29.2,20,53.2,21.2,81.9c-2.4,7.7-2.4,16,0.1,23.8
		c2.1,5.5-1.5,12.1,3.1,17.3c7.3,4.4,15.5,2.3,23,1.8c11-0.7,14.3,2.6,14.2,14c-0.7,47.5-0.3,95-0.2,142.5c0,4.8-1.3,9.9,1.5,14.5
		c-1.4,8.6,0.9,16,10,24.5v-74.9c2.4,0.2,3.2,1.8,3.2,3.9c0.2,20,0,40,0.2,60c0-19.8,0-39.6,0-59.4c0.1-3-1.1-5.8-3.4-7.8l-1.4-2.9
		c-1.5-2.7-2.3-5.4,0.6-7.8c9.2-0.4,20.7,2.5,26.9-2c6.8-5,1.3-17.2,2.7-26.2c0.2-1.1,1.6-2,2.5-2.9c1.2,1,1.8,2.5,1.6,4
		c-0.5,5.6,1,11.4-0.8,16.8c3.4-5.9-2.6-14.2,4.2-19.6c12.8-1.3,25.6-1.7,38.4,0c7.6,11.1,4.3,23.9,5.5,35.9c0.1,0.3,0.1,0.7,0.2,1
		c0.4,0,0.7,0,1.1-0.1c-1.9-7,3.9-14.4-1.3-21.1c-1.4-4.1-1.3-8.6,0.3-12.6c1.8-3,5.7-1.6,7.8-3.8c0.3-34.6,2.6-69.2,0.4-103.6
		c-1.6-25.1,6.1-41.8,28.3-52.4c5.2-2.5,8.7-8.5,15.6-7c2.3,1.7,4,3.7,4.1,6.7c0.3,2.1-3.3,4.9-0.1,6c5.3,1.9,7.3-3.1,9.9-6.4
		c12.8,2.6,16,8.2,9.8,17c-2.8,4-0.6,8.6-1.7,12.4c2.6-3.5-3.7-11.8,4.2-12.1c5.5-0.2,6.6,7.1,6.5,11.7c-0.1,10.8-3.1,21.4-2.1,32.3
		c0.3,3.5-3.6,9.9,5.5,7.4c1.1-0.3,0,5.6,2.5,7.7c6.2,1.3,14.5-2.4,14.9,10c0.2,6.3,10.9-1.2,14.2,5c-1.3,2.2,0.1,5.8-1.4,6.9
		c-6.2,4.7,2.3,2.9,1.9,4.8c0,2,0,4-0.1,6c-2.1,8.8-2.1,17.9,0,26.7v8.9c-7.8-1.5-7.8-1.5-6.5-14c-1.9,13.9-1.9,13.9,6.5,19.9l0.2,3
		c5.1,5.4,7.3,5.7,23.8,3.1c7.4,11.8,2.3,24.8,2.8,37.2c0.3,7.5,3,10.9,9.2,13.1c-4,12.3,0.1,25.2-2,37.6c1.7-12.5-1.5-25.3,2-37.6
		c3.8,10.4,0.8,21.2,2,31.7c0.4,3.5-2.3,8.8,3,10c7.4,1.7,4.3-5.8,6.5-8.8c5.1-4.5,1.8-10.1,1.8-15.2c0.1-28.4,0.1-56.8,0-85.2
		c0-2.4-1-5.9,0.6-7.1c7-5.5-2-3.4-2.3-5.3c5.8-6.6,14.1-0.5,20.5-4.1c6.7,1.1,0.1-4.9,3-5.8c-1.5-4.5-5.6-9.2,1-13.2
		c0.7-1.4,2.4-2,3.8-1.3c0.1,0,0.1,0.1,0.2,0.1c13.2,0.5,26.4,1.2,39.5-0.4c4.8-1.2,9.3-0.9,12.7,3.4c6,18.7,2.3,37.8,2.3,56.7
		c0,11.9,2.3,17.3,15.1,15.4c6.3-1,12.6-0.4,19-1.6c21.1-4.1,28.6,1.4,31.7,21.9c9.2,10.8,1.9,23.6,4.5,35.2
		c0.9,4.3-4.1,10.9,4.4,12.6c15.6-3.6,25.3,2.8,29.8,17.7c0.8,2.8,3,5.2,4.8,3.1c10.3-12.2,10.1-3.1,10,4.8
		c-0.1,6.6,8.6,1.2,8.8,6.9c-3.1,16.6-0.9,33.3-1.3,50c-0.8,33,1,66-0.9,98.9c-3.1,5.6-8.5,6.3-14,6.6c-5.9,0.3-11.9,0.2-17.8,0.2
		c-221,0-442,0-663,0c-7.9,0-15.8,0.2-23.7-0.4c-2-0.2-3.9-0.5-5.8-1.1c-7.2-2.3-14.7-1.5-22.1-1.5c-164-0.1-328-0.1-492.1-0.1
		c-8.4,0-16.8,0.7-25.1-1.1c-1.9-0.5-3.7-1.3-5.3-2.3c-5.5-3.2-11.5-2.5-17.4-2.5c-255.3,0-510.6,0-765.8,0c-4.5,0-8.9-0.2-13.3,0.8
		c-1.6,0.7-3.1,1.6-4.4,2.7c-1.2,1.2-2.6,2.3-4.2,3.1c-7.4,2.6-15.4,2.7-22.8,0.1c-1.6-0.8-3-2-4.1-3.3c-2.5-3.4-2.3-7.4-2.3-11.3
		c-0.1-42.2,0-84.3,0.1-126.5c0-4.4,0.2-8.8,2.6-12.8c22.6-2.5,22.9-2.5,22.5-26.2C6.7,986.8,8.6,961,6,935.2
		c2.8-7.3,6.2-14.2,13.6-18c4-4.5,9.2-4.5,14.6-4.2c5.1,0.3,9.7-0.2,11.4-6.2c0.5-32.3,0-64.5,0.3-96.8c0-4.8-1.3-9.8,1.4-14.3
		c23.7-1.4,47.5-2,71.2,0.3c3.2,13.6,1.2,27.4,1.4,41.1c0.4,31.1,0,62.1,0.3,93.2C120.1,934.8,117.4,940.1,122.5,943.8z"/>
	<path class="st1" d="M6,935.2c6.5,0.8,6.7,1,4.3,4.6c-2.8,4.1-1.6,8.5-1.6,12.8c-0.1,23.1-1,46.2,0.3,69.2
		c0.8,14.6-4.4,19.6-18.2,17.4c-2-0.2-3.9-0.2-5.9,0c-2.8,28.9-1,57.8-1.5,86.8c-0.2,17.2-0.1,34.4,0,51.6c0,4.8-1.1,10.1,4.5,13
		l0,0c1.3,1.3,2.9,2.2,4.6,2.6c15.4,1.4,30.6-1.1,46-1c260.3,0.2,520.6,0.2,780.9,0.1c416.3-1.5,832.5,5.7,1188.4,2.7
		c-174.1-0.1-408.5,0.2-642.8-0.2c-2.4-0.6-3.1-2-2.1-4.2c233.8,0,467.6,0,701.5,0c6.9,0,13.9,1,20.2-3c1-1.4,1.9-1.5,2.9,0
		c0,4,0,8,0.1,12c-5.2,2.4-10.7,1.2-16.1,1.2c-692.2,0.1-1384.4,0.1-2076.5,0c-5.3,0-10.9,1.6-15.9-1.6c0-49.8,0.3-99.6-0.4-149.4
		c-0.1-10.9,2.3-15.8,13.6-13.6s13.8-3,13.6-13.7C5.2,993.4,5.9,964.3,6,935.2z"/>
	<path class="st1" d="M620.4,876c-3.1,4.4-8.3,1.9-13.7,4.1l7.7,2.5c-15.5,19.1-7.1,41.6-8.6,62.6c-1.3,17.6-1.7,18.5-17.3,11.7
		c-2.1-0.9-4.8,1.8-6.7-1c-3.2-11.7-1.2-23.6-1.3-35.3c-0.3-36.6-0.1-73.2-0.1-109.9c0-4.6-0.7-9.4,0.3-12.7c-2,1.9-0.3,6-0.3,9.4
		c-0.2,44.5-0.1,89.1-0.2,133.6c0,4.9,1,9.9-1,14.7c-4.3,10.6-8.1,3.2-12-0.4c12.3,3.3,9.8-6.1,9.8-12.2
		c0.2-46.5,0.7-92.9-0.2-139.3c-0.3-12.9,3.9-16.7,15.6-14.8c9.4,1.5,19.4-3,28.4,2.8c1.5,2.2,2.2,4.8,2,7.4
		c-2.4,23-0.4,46.2-1.2,69.2C621.4,871,621,873.5,620.4,876z"/>
	<path class="st1" d="M1030.3,555.1c3.7-5.7,5.3-11.6,2.7-18.3c-7.9-19.9-1.4-41.9-8.9-61.9c-1.4-1.7-1.3-3.7-0.8-5.7
		c2.3-4.1,1.6-8.5,1.8-12.9c0.1-2.1,0.8-3.6-2.2-2.4l-2.3-5.6c-3-2.3-8.3-3-6.2-8.9c3-0.9-0.6-6.1,4-5.9c10.7-2,19.1,0.1,21.9,12.3
		c-2.7,5.6-1.7,11.5-1.4,17.3c-3.4,9.7,5.2,18.8,1.2,28.6c-0.7,1.7-0.5-0.3,0.3,1.4c1,2.1,1.1-1.1,2-0.8l9.3,27.2
		c1,3.9,2.5,7.8,0.8,12c-4.3,5.1-8.9,9.8-9.9,17.1C1041.4,555.1,1037.8,559.3,1030.3,555.1z"/>
	<path class="st1" d="M1799.4,837.2l-4.3-6.1c-4.6,3.6,2.2,8.9-4,14.8c-9-22.4,0.8-44.7-2.4-68.8c-6,7.4-2.8,13.2-5.9,17.6
		c-0.1-6.6-3.6-12.8,2-19.9c1.4-1.8-1.3-11.4-9.2-11.8c-5.1,3.5-8.6,0.8-11.9-3c-2.3-1.2-2.9-3.3-3-5.7l3.4-3.1
		c12.4-1.6,3.9-12.9,8.4-18.1c2.8-4.8,4.4-10.3,10.4-1.4c4.4,6.5,2.4,13.1,4.2,19.5c-2.3,6-0.4,10,5.8,11.9l0.6,20.3
		c2.4,12.4,1.6,24.7,0.4,37.2c3.1-11.9-1.4-24.5,2.4-36.2c6.8,11.7,1.4,24.5,2.9,36.7C1799.9,826.3,1799.4,831.8,1799.4,837.2z"/>
	<path class="st1" d="M706.5,1009.4l-1-0.6l-1,0.4c-4.3-4.7-2.8-9.6-0.8-14.7l-0.1-2.9c-2.6-12.8-2.6-25.9,0-38.7v-2.9
		c-3.4-21.4-0.6-43-1.6-64.4c-0.6-13.1,1.8-26.4-1.5-39.4h-26.8c-4.1,10.6,1,22-2.9,32.5c-4.4,4.7,7.8,22.8-12.1,15
		c2.3-1.5,3-3.7,3.3-6.3c0.1-1.2,0-4.8,2.6-1.3c0.8,1.1,0.8,2.8,3,4.3c0-13.4,0.4-26.7-0.2-40.1c-0.2-5,0.2-7.3,5.8-7.3
		c8.9,0,17.8-0.7,26.6-0.7s6.7,6.9,6.8,11.8c0.2,23.2,0,46.5,0.2,69.7c0,4.7-1.4,9.6,2.7,16.5v-90.8h3c0,32.2,3.6,65-1.5,96.4
		c-2.6,15.8-4,30.3-1.8,45.6c3.5,5.4,1.3,11.2,1.5,16.9C709.6,1010.2,708.2,1010.5,706.5,1009.4z"/>
	<path class="st1" d="M1250,724.4c-3.9,4.5-9.3,3.4-13.8,2.8c-13.7-1.9-16.3,4.2-16.2,16.7c0.7,44.8,0.3,89.6,0.2,134.4
		c0,5.2,1.9,11-2.8,15.3c-3.1-7.1-1.4-14.6-1.4-21.9c-0.2-42-0.1-84.1-0.1-126.1c0-4.6-0.6-9.4,0.3-12.8
		c-1.6,54.8,1,110.6-1.3,166.4c-3.8,5.2-9.4,3-14.4,3.4c10-1.3,11.9-7,11.8-16.6c-0.6-50.3-0.4-100.6-0.1-150.9
		c0-4.5-2.5-9.8,1.9-13.8c0.5,0.2,1.1,0.5,1.6,0.9C1227,724.8,1238.7,720.7,1250,724.4z"/>
	<path class="st1" d="M1618.2,1012.5c-4.9-4.4-2.9-10.2-2.9-15.3c-0.2-46.4-0.4-92.7,0.2-139.1c0.2-11.5-2.9-16-14.9-15.2
		c-6.8,0.4-14.8,3.5-20.9-3.2c39.2-2.2,39.3-2.2,39.2,35.7C1618.8,921.1,1618.5,966.8,1618.2,1012.5z"/>
	<path class="st1" d="M1448.8,722.6c-0.4,0.4-0.5,0.9-0.4,1.5c-2.3,40.9-0.2,81.8-1.1,122.6c-0.5,23.6,1.9,47.2-1.4,70.7l-3.7-0.3
		c0-60.8-0.2-121.6,0.2-182.4C1442.4,730.7,1437.1,721.5,1448.8,722.6z"/>
	<path class="st1" d="M1203.9,895.5v-169h2.4V896L1203.9,895.5z"/>
	<path class="st1" d="M397.2,845.9c-2.8,1.1-5.8,3.4-8.4,3c-15.8-2.7-18.7,4.8-18.3,19c1,30.9,0.3,61.8,0.2,92.7
		c0,0.4-0.3,0.9-0.6,1.1c-0.8,0-1.7,0-2.5-0.2c-0.1-34.4,0.4-68.8-0.6-103.1c-0.4-11.8,3.6-14.6,14.1-13.2
		C386.4,845.9,391.9,845.7,397.2,845.9z"/>
	<path class="st1" d="M122.5,943.8c-6.3-2.7-4.1-8.4-4.1-12.9c-0.1-45,0-90,0.1-134.9c4.1,22.8,0.7,45.7,1.8,68.6
		C121.4,891,117.6,917.5,122.5,943.8z"/>
	<path class="st1" d="M653,884.8c-8.1-0.4-16.3-0.9-24.2-0.8c-8.9,0.1-5.5-4.7-5.9-8.5c-4-27.6-4.3-55.1,0.5-82.6
		c4.6,6.8,1.9,14.5,2.1,21.7c0.5,15.8,0.9,31.7-0.1,47.5c-0.7,12.2,1.7,19,15.8,16.6c3.8-0.6,8.9-2.5,12.2,2.3
		C654.2,882.1,654.1,883.8,653,884.8z"/>
	<path class="st1" d="M1876.4,887.7h14.6c-7.5,2.6-12,5.3-11.7,14.8c0.8,25.6,0.2,51.3,0.3,77c0,3.4-0.4,7.8,1.4,10
		c6.7,7.8-0.4,8.7-4.7,11.2C1874.9,963,1874.6,925.3,1876.4,887.7z"/>
	<path class="st1" d="M1199,905.6c0.2,40.9,0.4,81.8,0.4,122.7c0,2.6,2.8,7.8-3.6,6.9c-1-0.1-1.7-3.1-2.6-4.8
		c5.5-9.4,2.7-19.8,3-29.6c0.8-27,0.2-54.1,0.3-81.2C1196.6,914.9,1195.1,909.7,1199,905.6z"/>
	<path class="st1" d="M858.3,733.4l-0.1,2.9c3.1,18,2.7,36.1,2.6,54.2c0,4-0.2,7.9-3.3,10.9l-1.3,0.2l-1.3-0.4
		c-5.2-2.4-7.8-3.9-6.7-12c1.7-12.2,3.8-25.4-1.8-37.7c-2-4.4,2.3-4.4,5.5-8.9v50l3-0.1c0-14.7-0.2-29.4,0.1-44.2
		C855.1,743.3,852.7,737.4,858.3,733.4z"/>
	<path class="st1" d="M1030.3,555.1c7.1,0.6,9.5-3.2,8.8-9.7c-1-9.1,3.5-13.3,12.1-14.1c4.3,3.1,8.7,6.1,9.8,11.8
		c-0.6,5-3.4,8.7-7,11.9c-7.4,7.6-15.9,4.8-24.4,2.7C1029.3,556.8,1029.6,555.8,1030.3,555.1z"/>
	<path class="st1" d="M47.2,795.7l0,115.9c-2.4,1.6-4.6,1.8-6.7-0.6c6.5-3.3,4.2-9.4,4.2-14.5c0.2-29.1,0-58.2,0.3-87.3
		C45,804.8,42.3,799.5,47.2,795.7z"/>
	<path class="st1" d="M1356.9,748c0,28.6,0.1,57.2-0.1,85.8c0,5.2,2,11-2.8,15.3c-3.2-26.3-0.5-52.8-1.5-79.2
		c-0.3-6.3,1.6-12.7-1.4-18.8c-3.5-1.5-9.1,3.3-10.9-3.6L1356.9,748z"/>
	<path class="st1" d="M1627.6,948.3l-0.6,7.8c-0.9-1.7-2.5-3.4-2.5-5.1c-0.2-34.8-0.1-69.6,3.2-104.4L1627.6,948.3L1627.6,948.3z"/>
	<path class="st1" d="M1040.2,445.8c-6.2-6.1-12.7-11.5-21.9-12.3l5.4-3.4c7.4-5,1.2-16.1,9.4-20.7c7.3-0.3,6.8,0.3,6.6,9.5
		c-0.1,4.9-9.8,9.7-0.6,14.7c2.8,3.3,7,5.9,5.9,11.2C1043.7,446.6,1042,446.4,1040.2,445.8z"/>
	<path class="st1" d="M1706.9,964.3c-6.1-14.3-0.7-29.4-3.2-43.9c-9.1-3.2-18.5-0.6-27.7-1.5c-4-0.4-9.2,2.2-11.3-3.8
		c17.3-0.7,34.7-3.6,51.7,2.5c-0.3,4.3-3.9,2.1-5.9,3.1c-4.3,7.5,0,15.2-0.4,22.7C1709.7,950.3,1712.6,958,1706.9,964.3z"/>
	<path class="st1" d="M403.5,774.9c6,15.7,2.5,31.7,1.8,47.7c0,1-3,1.9-4.7,2.8v-50.5C401.7,773.4,402.6,773.4,403.5,774.9z"/>
	<path class="st1" d="M623.4,792.8c-0.2,27.5-0.3,55.1-0.5,82.6c-0.8,0.3-1.6,0.5-2.5,0.6l-3-3.1c3.5-18.4,0.5-37,1.6-55.4
		c0.4-6.3-1.5-12.7,1.3-18.8l0.3-6.8C621.6,791.9,622.5,792.3,623.4,792.8z"/>
	<path class="st1" d="M881.6,691.7c2.9-8.4,2-17.8,7-26c8.4,5.9,4.2,15.9,7.8,23.1c0,0.6-0.1,1.2-0.1,1.8c-0.2,1.8-1.1,3.5-2.4,4.8
		c-1.6,1-3.4,1.3-5.2,1c-1.7-0.4-3.3-1.2-4.7-2.4C883.3,693.3,882.5,692.5,881.6,691.7z"/>
	<path class="st1" d="M1628.2,958.9c4.3-1.8,4.9,0.5,4.9,4.1c-0.1,23.2,0,46.3-1,69.5c-4.4-23.3,1.2-47.1-3.9-70.3
		C1628.2,961.1,1628.2,960,1628.2,958.9z"/>
	<path class="st1" d="M1059.3,543.4c-1.7-4.7-8.4-6-8.1-12l0.4-11.9l8.5,8.2c0.2,4,5.2,3.1,6.3,6.1c8.2,3.6-0.7,6.3-0.5,9.5
		c1.4,3.6-0.6,5.4-3.5,6.8C1058.5,549.1,1058,546.6,1059.3,543.4z"/>
	<path class="st1" d="M709.5,1007.9c-0.1-5.4-0.3-10.9-0.4-16.3c2.5-11.6-4-24.3,4-35.2c-0.1,0.9-0.1,1.8,0.1,2.7
		c1,1.9,0.8,4.1-0.4,5.8l0.1,47.7c1.2,7.9,2.4,15.8-0.8,23.6l-1.2,0.1l-1.2-0.3C704.1,1026.6,706.1,1017.2,709.5,1007.9z"/>
	<path class="st1" d="M1869.9,890.8v70.4h-1.2v-70.4L1869.9,890.8z"/>
	<path class="st1" d="M1377.5,967.9c-4.6-24.5-4.6-49.7,0-74.2C1377.5,918.4,1377.5,943.2,1377.5,967.9z"/>
	<path class="st1" d="M403.5,774.9h-2.8c-0.7-4-1.5-8,0.6-11.8h55.5c0,1,0,1.9,0,2.9c-14,0-27.9,0.1-41.9-0.1
		C408.4,765.8,402.9,766.2,403.5,774.9z"/>
	<path class="st1" d="M887.7,694.7l5.8-0.1c3.4,2.1,2.8,6,4.1,9c0.6,2.7,0.4,5.4,0.4,8.1c0.1,1.4-0.5,2.7-1.4,3.6
		c-6.1,0.1-11.5-1.3-15.2-6.6c-0.6-0.6-0.6-1.5,0-2.1c0.1-0.1,0.1-0.1,0.2-0.2c1-0.8,1.8-1.8,2.5-2.9
		C885.1,700.6,884.5,696.9,887.7,694.7z"/>
	<path class="st1" d="M1903.5,864.7h-1.3h-1.3c18.9-4.9,37.7-8.5,56.1,1.8c-3.9-2-7.8-3.5-12.3-2
		C1931,866.1,1917.3,865.7,1903.5,864.7z"/>
	<path class="st1" d="M1781.3,697.9c-0.6,8.2,1.8,16.5-1.5,26.6c-7.5-11.3-3-22.2-3.9-32.3C1782,690,1778.8,696.7,1781.3,697.9z"/>
	<path class="st1" d="M1074.9,525.8c-0.1,3.9-2.2,5.6-6,5.5l-0.5-1.7c-0.5-6-14.2-7.8-7.7-13.4
		C1066.9,510.7,1070.8,521.1,1074.9,525.8z"/>
	<path class="st1" d="M1045.3,795.7c6,17.2,1.4,34.8,2.5,52.2C1043,830.7,1045.7,813.1,1045.3,795.7z"/>
	<path class="st1" d="M1664.8,915c9.5,2.7,19.2,0.2,28.7,1.2c3.7,0.4,9-2.4,10.3,4.2l-41,0.1c-1,1.4-1.9,1.4-2.7-0.2l-0.4-3.1
		L1664.8,915z"/>
	<path class="st1" d="M1828.9,911.5c-8.6,2.5-11.1-1.7-10.1-9.5c0.7-5.6,1.3-11.3,2.1-17.8c6,6.7-3.5,17.9,8,21.3L1828.9,911.5z"/>
	<path class="st1" d="M1042.3,492.3l-0.6,5.7c-0.5-11.7-8.4-22.7-2.9-34.9C1042.3,472.5,1044.1,482.2,1042.3,492.3z"/>
	<path class="st1" d="M896.6,715.5c0-1,0-2,0-3c0.8-1.3,1.5-1.3,2.3,0l3.6,3.7c1.7,1.4,1.5,3.2,1.1,5.1c-1.2,4.1-1.9,8.2,0.2,12.2
		l2.5,2.5c0.3,1.2,0,2.4-0.8,3.3c-5,1.3-9.8,1.8-9.9-5.3C895.5,727.8,896.2,721.6,896.6,715.5z"/>
	<path class="st1" d="M362.2,955.4l-6.1,0.2c0.4-11.6,5.3-22.7,3.5-34.6C365,932.3,358.9,944.1,362.2,955.4z"/>
	<path class="st1" d="M995.1,884.8c9.2,0.1,18.5,0.1,27.7,0.3c0.4,0,0.8,0.3,1,0.7c0.3,2.1-1.5,1.7-2.6,2.1
		c-6.7,2.2-13.9,2.2-20.7,0c-5.9,3.4-0.3,11.6-6.3,14.9C993.2,896.6,992.6,890.7,995.1,884.8z"/>
	<path class="st1" d="M1796.4,784.3v37.8h-2.8v-38.8L1796.4,784.3z"/>
	<path class="st1" d="M163.1,763.8c-3.9,8.8-3.8,21-18.1,20.4l-0.8,1l-1.2-0.4c-0.4-0.4-0.7-0.9-0.9-1.4
		C153.9,782.1,154.1,768.3,163.1,763.8z"/>
	<path class="st1" d="M923,736.8l-1.4-0.4l-1.4,0.4c-3.2,1.7-3.4-4.5-6.7-2.6c-1,0.1-2-0.6-2.3-1.6c0.2-4.1-1.1-8.7,4.2-12.8
		C919.4,725,923,730,923,736.8z"/>
	<path class="st1" d="M1092.8,522.2l-6.1-2.6c5.8-6.9-2.8-14.7,1.5-23.1C1095,505,1092.1,513.9,1092.8,522.2z"/>
	<path class="st1" d="M1033.1,409.5c-4.8,6.1,4.4,18.7-9.4,20.7l1.2-2.9c-0.2-3.9,0.5-7.8-0.4-11.7
		C1023.4,407.9,1030.8,412.2,1033.1,409.5z"/>
	<path class="st1" d="M774.2,833.9c-10.6,6.1-21.3,4.4-32,0.5L774.2,833.9z"/>
	<path class="st1" d="M1022.8,453.9l2.9-5.9c-1.5,7,9.3,14.7-1.2,21c-3-2.7-0.9-6.9-2.8-9.9L1022.8,453.9z"/>
	<path class="st1" d="M1899.9,877.9c0.8,1.7,2,3.4,2.5,5.2c0.8,3.2,6.2,7.8,0.4,9.5c-6.5,1.9-4.9-5.2-5.9-9
		C1896.2,880.8,1896.5,878.5,1899.9,877.9z"/>
	<path class="st1" d="M296.7,879c9-5.8,19.2-1.2,28.7-3l0.6,5.8l-5.6-2.8C312.6,881.1,304.4,881.1,296.7,879z"/>
	<path class="st1" d="M1793,763c-2.4,1-4,6.7-6.3,3.8c-3.8-4.5-3.4-10.6,0.5-15.7L1793,763z"/>
	<path class="st1" d="M40.5,911l6.7,0.6c-8.3,6-19.1,0.2-27.5,5.6C23,903.1,33.5,913.1,40.5,911z"/>
	<path class="st1" d="M350,917.4c-7.2,0-14.8,1.3-21.5-0.5c-4.6-1.2,1.1-1.8,1.7-3C336.9,914.4,344.8,908.5,350,917.4z"/>
	<path class="st1" d="M1852.8,917.5c-7.3,5.4-15.5,2.7-23.3,2.1c-3.2-0.3-2.5-3.2-0.5-5.2C1836.4,919.7,1845.1,914.7,1852.8,917.5z"
		/>
	<path class="st1" d="M911.3,732.6c0.9,0.2,1.8,0.1,2.6-0.4c0.7,8.2-4,6-8.4,4.3l-3.1-0.3c-2.1-4.8-1.9-9.5-0.2-14.3l0.3-5.7
		c5.6,2.5,2,7.4,2.6,11.1C905.7,731.2,905.3,735.3,911.3,732.6z"/>
	<path class="st1" d="M1772.6,733.1c0,4.8,0.2,9.5,0.1,14.3c-0.2,7-3.9,6.4-8.5,3.8C1773.6,748.3,1767.1,737.9,1772.6,733.1z"/>
	<path class="st1" d="M1781.3,697.9l-5.4-5.7c0-3.6-1.4-7.6,2.6-11.3C1783.8,686,1780.9,692.3,1781.3,697.9z"/>
	<path class="st1" d="M849,805v23.1h-2.9v-22.8L849,805z"/>
	<path class="st1" d="M1143.6,714.4c-3.9,6.8-8.2,0.5-12.4,0.4c0.4-1.1,0.9-2.2,1.4-3.3c4.1-6.8,6.7,3,10.4,1l0.8,0.8L1143.6,714.4z
		"/>
	<path class="st1" d="M1828.9,896.6c-4.4-8.3-4.4-18.3,0-26.7C1828.9,878.8,1828.9,887.7,1828.9,896.6z"/>
	<path class="st1" d="M1828.9,864c-4.1-0.6-8.4,1.3-14.2-2.5c7.1-1,12.2-3.1,13.8-9.3C1830.1,856.1,1829.8,860,1828.9,864z"/>
	<path class="st1" d="M1187.6,905.5c1-7.9,1-15.7-1.1-23.4C1193.4,889.7,1192.7,897.5,1187.6,905.5z"/>
	<path class="st1" d="M1107.7,534.5l-3.1-3.6c-0.9-0.5-1.2-1.1-1-1.7c0.1-0.4,0.4-0.8,0.8-0.9h16.3
		C1117.3,533.7,1112.4,534,1107.7,534.5z"/>
	<path class="st1" d="M1104.5,528.3c-0.1,0.9-0.1,1.7,0.2,2.6l-12.2-8.3c5.7,1.9,9-3.6,13.8-4.9
		C1108.9,522,1102.4,524.5,1104.5,528.3z"/>
	<path class="st1" d="M1378,982.1c-1.8,3.3-5.9,0.8-5.8,0.6c1.5-4-1.1-10,5.3-11.8L1378,982.1z"/>
	<path class="st1" d="M1576.7,822.4c-4.6-7.9-4.6-15.8-0.1-23.8C1576.6,806.6,1576.6,814.5,1576.7,822.4z"/>
	<path class="st1" d="M898.8,712.5h-2.3l-0.7-9.7c-1.2-4.2-0.8-8.4-0.3-12.6l1-1.3C900.9,696.3,897.8,704.6,898.8,712.5z"/>
	<path class="st1" d="M1544.2,745.2c-8.3-6.7-3.1-13.8-0.5-20.7C1545.6,731.3,1544.4,738.3,1544.2,745.2z"/>
	<path class="st1" d="M1045,444.9c-3.3-3-7-5.8-5.9-11.2l3.1-1.5c5.3,0.4,4.2,4.9,5.3,8.1C1046.9,441.9,1048.1,444.6,1045,444.9z"/>
	<path class="st1" d="M1552.6,720.8c-0.4,6.2,2.7,12.9-2.6,18.4C1551.2,733.1,1547.9,726.4,1552.6,720.8z"/>
	<path class="st1" d="M1047.5,440.2c-4.3-1-2.7-5.9-5.3-8.1c3.6-3.5,6.9-0.3,8.6,1.6C1053.3,436.8,1047.6,437.5,1047.5,440.2z"/>
	<path class="st1" d="M1024.5,415.6c3.8,3.8,3.7,7.6,0.4,11.7C1022.7,423.4,1021.3,419.6,1024.5,415.6z"/>
	<path class="st1" d="M1068.4,529.6c0.3,0.5,0.4,1.1,0.5,1.7l-2.5,2.5c-2.7-1.4-8.5,0.3-6.3-6.1L1068.4,529.6z"/>
	<path class="st1" d="M1143.4,789.1l-1.4,7.4c-2.8-3.5-2.1-6.7-1.1-9.9c0.4-0.2,0.9-0.3,1.3-0.1c0.4,0.2,0.8,0.5,1.2,0.9
		c0.5,0.4,0.5,1.2,0.1,1.7C1143.4,789,1143.4,789.1,1143.4,789.1z"/>
	<path class="st1" d="M884.7,706.6h-3.1c0-5,0-9.9,0.1-14.9h3.2C886.9,696.4,886.8,701.8,884.7,706.6z"/>
	<path class="st1" d="M1021.7,459l2.8,9.9l-0.4,6C1019.4,470.2,1021.2,464.5,1021.7,459z"/>
	<path class="st1" d="M1014.3,439.4c-1.9,5.7,4.2,5.9,6.2,8.9C1014,448.5,1009.7,447,1014.3,439.4z"/>
	<path class="st1" d="M653,884.8l0.3-3.8c6.6,2.6,3,7.8,3.1,12C649.9,892.5,654.3,887.4,653,884.8z"/>
	<path class="st1" d="M970.7,807.7c-0.1,70.5-0.2,141-0.3,211.6c0,5.7,2.1,11.9-2.5,17c-1.9-2.6-1.5-5.6-1.5-8.6
		c0-65.5,0-131.1,0-196.7c0-2.9-0.4-6,1.4-8.6c1.1-8.7-2.1-12.8-11.4-12c-6.7,0.6-13.6,0.1-20.4-2.8L970.7,807.7L970.7,807.7z"/>
	<path class="st1" d="M967.8,822.4c0,71.3,0,142.5,0.1,213.8c-4.2-3.3-3-8.1-3-12.3c-0.1-63-0.1-126.1,0-189.1
		C964.9,830.5,963.7,825.8,967.8,822.4z"/>
	<path class="st1" d="M1445.9,917.4c0-58.7,0-117.5,0.1-176.2c0-5.7-1.8-11.9,2.4-17.2c0.2,61.3,0.3,122.6,0.5,183.9
		C1448.9,911.5,1449.2,915,1445.9,917.4z"/>
	<path class="st1" d="M460,770c0,51,0,99.2,0,147.5c0,7.1-1.8,14.7,8.7,19.5c-14.6,2.5-13.5-8.5-13.2-12.9
		c3.9-50.2,0-100.4,1.9-150.6C457.4,773.2,457.9,772.8,460,770z"/>
	<path class="st1" d="M1214.9,899.2V730.9h2.4c0,54.3,0,108.5,0,162.8C1217.9,896.1,1220.9,899.6,1214.9,899.2z"/>
	<path class="st1" d="M579.1,955.7V796.3h2.6c0,53.3,0,106.5,0,159.8C580.9,956,580,955.9,579.1,955.7z"/>
	<path class="st1" d="M1721.8,796.7v119.6h-1.3V796.1L1721.8,796.7z"/>
	<path class="st1" d="M1205,918.5v113.8h-1.5V917.8L1205,918.5z"/>
	<path class="st1" d="M730.3,941.2v14.2h-2.7c0-36.9,0-73.7,0-110.6c0-0.4,0.2-0.9,0.6-1.1c2.2-0.5,1.6,1.4,2.1,2.5
		C732.6,877.8,732.6,909.5,730.3,941.2z"/>
	<path class="st1" d="M1006.5,1015.4c-3.2-2.4-3-6-3-9.4c0-32.3,0-64.7,0-97.3c4.2,0.8,2.3,3.8,2.9,5.7
		C1008.8,948.1,1008.8,981.8,1006.5,1015.4z"/>
	<path class="st1" d="M1176.4,1008.8V908.7h1.4v100L1176.4,1008.8z"/>
	<path class="st1" d="M905.5,736.6c3.3-0.4,7.3,0.5,8.4-4.3c0.6-2.1-0.1-7.4,3.7-1.6c1.2,1.8,1.8,4.1,2.7,6.2l-0.6,3.5
		c-2.9,20.3,1.4,41-2.5,61.3c-5.8-9.1-2.5-19.1-2.7-28.7c-0.2-12.2,0.6-24.3-9.2-33.7C905.5,738.3,905.5,737.4,905.5,736.6z"/>
	<path class="st1" d="M1351,751.1c4.8,4.4,2.8,10.1,2.9,15.3c0.2,27.5,0.1,55.1,0.1,82.7c-2.1,2.3-4,3.2-4-1.2
		C1350.3,815.7,1350.6,783.4,1351,751.1z"/>
	<path class="st1" d="M700.6,846.3c4.5,0.3,3.7,3.8,3.7,6.5c-0.2,32.5-0.4,64.9-0.7,97.4c-5-4.3-3-10.1-3-15.3
		C700.5,905.3,700.6,875.8,700.6,846.3z"/>
	<path class="st1" d="M1006.5,1015.4v-101c4.1,3.3,2.9,8,2.9,12.3c0.1,25.5,0.1,50.9,0,76.4
		C1009.3,1007.4,1010.6,1012.1,1006.5,1015.4z"/>
	<path class="st1" d="M730.3,941.2c0-31.7,0-63.3,0-95c5,4.8,2.8,11.1,2.8,16.7c0.3,21.5,0.2,43,0,64.5
		C733.1,932.1,734.8,937.3,730.3,941.2z"/>
	<path class="st1" d="M474.8,844.2v77.5h-1.6v-78.1L474.8,844.2z"/>
	<path class="st1" d="M552,878.8c6.5,0.7,6.1,5.2,5.4,9.9c-3.2,17.4,1.4,35.1-2.5,52.5c-6.1-11-2.4-23-2.6-34.5
		C552.2,897.4,545.9,888.1,552,878.8L552,878.8L552,878.8z"/>
	<path class="st1" d="M917.3,801.6c1.6-20.4-3.1-41.1,2.5-61.3c0,20.3,0,40.6-0.1,60.9c-0.2,0.4-0.5,0.7-1,0.8
		C918.2,801.9,917.7,801.8,917.3,801.6z"/>
	<path class="st1" d="M857.5,801.5c-0.4-21.7-1.9-43.4,0.8-65.1c4.4,4.3,1.9,9.8,2.6,14.8c2.3,16.8,2.3,33.7,0,50.5L857.5,801.5z"/>
	<path class="st1" d="M555,941.2c1.5-17.5-2.9-35.2,2.5-52.5c0.1,18,0.2,36,0.3,54c-0.1,0.4-0.3,0.8-0.7,1
		C555,944.1,555.4,942.3,555,941.2z"/>
	<path class="st1" d="M1763.7,760l11.9,3c0.1,4.7-0.5,8.8-6.8,8.9c-4.1,0.1-9-0.3-10.6-3.3C1756.3,764.8,1763.4,764,1763.7,760z"/>
	<path class="st1" d="M860.9,801.6c0-16.8,0-33.7,0-50.5c6.3,16.5,1.8,33.4,2.4,50.2c-0.2,0.4-0.6,0.6-1,0.7
		C861.9,802,861.4,801.8,860.9,801.6z"/>
	<path class="st1" d="M240.3,834.1c0.9,1.1,2.3,2.1,2.8,3.4c1.4,3.6-2,2.7-2.9,2.1c-3.3-2-6.3-4.5-9.4-6.8c6.4-5-0.8-14.1,5.4-19.8
		c3.3,7.1-2.3,15.3,4.3,21.1L240.3,834.1z"/>
	<path class="st1" d="M1864.8,967.8v40.8C1863.2,994.9,1858.4,981.2,1864.8,967.8L1864.8,967.8z"/>
	<path class="st1" d="M1706.9,964.3c2.7-14.4-3.7-29.6,3.6-43.7c0,4.9,0.1,9.8,0.2,14.7c1,9.9,2.9,19.8-1.1,29.5
		C1708.7,964.9,1707.8,964.7,1706.9,964.3z"/>
	<path class="st1" d="M1250,724.4c-11.4-1.4-23.2,2.8-34.3-2.3h39.8C1254.9,725.7,1251.8,723.8,1250,724.4z"/>
	<path class="st1" d="M483.8,831.3l-8.3-0.4c12.7-0.8,25.5-5.6,38,0.4C503.7,833.7,493.6,833.7,483.8,831.3z"/>
	<path class="st1" d="M1903.5,864.7l41.2-0.3C1931,868.6,1917.3,868,1903.5,864.7z"/>
	<path class="st1" d="M703.7,953v38.7C698.6,979.3,698.6,965.4,703.7,953z"/>
	<path class="st1" d="M1852.1,930.2v31.7h-1.5V930L1852.1,930.2z"/>
	<path class="st1" d="M483.8,831.3h29.7c2.8,3.6-0.6,4.9-2.5,4.1C502.1,831.9,492,837.9,483.8,831.3z"/>
	<path class="st1" d="M552.1,878.8c-7.9,0-15.8,0.2-23.6-0.2c-4.4-0.2-6.9-2-2.6-6.2l-0.1-0.1C532.9,881,544.6,871.3,552.1,878.8
		L552.1,878.8z"/>
	<path class="st1" d="M1709.6,964.8l1.1-29.5C1715.2,945.3,1715.3,955.2,1709.6,964.8z"/>
	<path class="st1" d="M670.9,878.8c0.7-10.9-4.4-22.3,2.9-32.5C672.3,857,677.1,868.4,670.9,878.8z"/>
	<path class="st1" d="M1051.6,836.4v-22.5h1.5v22.9L1051.6,836.4z"/>
	<path class="st1" d="M712.1,1036.1l0.8-23.6C715,1020.5,720.1,1028.5,712.1,1036.1z"/>
	<path class="st1" d="M145.3,786.8l5.9,8.9l0,0c-1.7,3.8-0.6,12-8.7,5.5C145.8,796.8,141.7,791,145.3,786.8z"/>
	<path class="st1" d="M709.5,1007.9l0.2,28l-3.1,0.3c-3.1-7.7-1.6-15.5-1-23.4l0.8-3.4L709.5,1007.9z"/>
	<path class="st1" d="M1059.3,543.4c1.4,1.9,0.4,5.2,3.4,6.2c2.7,2.8,2.5,5.6,0.2,8.5l-8.9-3
		C1054.3,550.7,1056.2,546.5,1059.3,543.4z"/>
	<path class="st1" d="M1062.8,558.1l-0.2-8.5l3.2-6.4h3c2.6,5.6,2.3,10.7-2.5,15.1L1062.8,558.1z"/>
	<path class="st1" d="M1161.3,680.2c-11.3,2.1-6.2-5.4-7.7-12.3c5.8,4.6,7.4,8.3,7.6,12.7L1161.3,680.2z"/>
	<path class="st1" d="M1660.1,920.2c0.9,0.1,1.8,0.2,2.7,0.2c0,6.8,0,13.5,0,20.3h-2.7V920.2z"/>
	<path class="st1" d="M296.7,879l23.6-0.1C312.5,883.4,304.6,883.3,296.7,879z"/>
	<path class="st1" d="M705.8,1012.8c0.3,7.8,0.7,15.6,1,23.4C701.4,1028.6,702.6,1020.8,705.8,1012.8z"/>
	<path class="st1" d="M1650,952.5h-16.7v-1.4h17.3L1650,952.5z"/>
	<path class="st1" d="M151.1,795.7c3.4-6.3,7-6.8,12.4,0.6L151.1,795.7L151.1,795.7z"/>
	<path class="st1" d="M1000.6,887.8h20.7C1014.3,892.4,1007.5,892.4,1000.6,887.8z"/>
	<path class="st1" d="M1174.9,887.1h-16.1C1165.9,884.2,1170.7,884.8,1174.9,887.1z"/>
	<path class="st1" d="M1137.7,855.7l-3,3.1c-1.1-1.5-2.4-2.9-3-4.5c-0.2-0.6,1.3-1.9,2-2.9L1137.7,855.7z"/>
	<path class="st1" d="M1066.3,558.3c0.9-5,3.8-9.7,2.5-15.1C1072.7,549,1074.7,554.5,1066.3,558.3z"/>
	<path class="st1" d="M145.3,786.8c-1,4.8,2.1,10.4-2.9,14.4c0.2-5.5,0.3-10.9,0.5-16.3c0.6-0.5,1.3-0.7,2-0.6
		C145.1,785.1,145.2,785.9,145.3,786.8z"/>
	<path class="st1" d="M1113.2,603.4c-0.3-2.7-0.8-3.9-0.4-4.8c0.6-1.6,1.3-3.8,3.7-2.4c0.7,0.4,1.4,1.9,1.1,2.3
		C1116.3,600.2,1114.8,601.9,1113.2,603.4z"/>
	<path class="st1" d="M703.7,994.6l0.8,14.7C698.4,1004.7,699.4,999.7,703.7,994.6z"/>
	<path class="st1" d="M712.8,964.9l0.4-5.8l10.8,0.5L712.8,964.9z"/>
	<path class="st1" d="M474.3,925.8v13.3C470.9,935.4,471.7,932.4,474.3,925.8z"/>
	<path class="st1" d="M620.3,798.7c0,20.1,0.1,40.3,0,60.4c0,4.7,1.7,10-2.9,13.8c0-20.1-0.1-40.3,0.1-60.4
		C617.5,807.8,615.8,802.5,620.3,798.7z"/>
	<path class="st1" d="M1049.2,549.9c-1,1.1-2,3.2-3.4,3.6c-1.8,0.5-1.8-1.4-1.3-2.7c0.7-1.7,1.2-3.8,3.6-3.6
		C1048.5,547.3,1048.7,548.7,1049.2,549.9z"/>
	<path class="st1" d="M884.7,706.6c0-4.9,0.1-9.9,0.1-14.8l2.9,3C887.2,698.8,889,703.5,884.7,706.6z"/>
	<path class="st1" d="M895.5,690.1c0.1,4.2,0.2,8.4,0.3,12.6c-3.2-2-1.9-5.3-2.4-8.1C893.7,692.9,893.1,690.8,895.5,690.1z"/>
	<path class="st1" d="M902.2,721.9c0.1,4.8,0.1,9.6,0.2,14.3C898.4,731.5,897.9,726.7,902.2,721.9z"/>
</g>
<g id="Layer_2">
	<path class="st2" d="M1702.4,974.2c0,1.3,0,2.7,0,4c-12.1-6.4-21.1-11.1-33.2-17.5c0-26.9-0.1-57.3,0.1-87.8
		c0.1-8.1-0.7-15.1-11-15.2c-24.6-0.1-49.1,0-75.4,0c0,18.6,0,34.7,0,50.6c-7.7,1.2-13.6,2.2-21.5,3.5c5.9,18.8-2.3,35.7-16.1,41.6
		c-14,5.9-32.5,1.3-49.5,1.3c-0.4-2.9-1.1-7.8-1.9-14.1c-10.6,0-20.8,1.1-30.6-0.2c-15.4-2.1-23.5,3.3-24.1,19c0,0.9-1.2,1.7-2.3,3
		c-4.5,0.6-9.3,1.3-16.3,2.2c0,15.5,0,30.3,0,46.8c-7.3-2.8-11.9-4.6-16.6-6.4c6,5.9,12.1,11.8,20.7,20.3c-11-2-17.8-2-23-4.7
		c-4.2-2.2-6.5-7.9-9.7-12c3.1-0.8,6.2-1.5,9.3-2.3c-7.9-7.5-15.5-16.2-28.2-9.2c-6-7.8-10.9-17.1-18.5-23
		c-29.8-23.1-54.4-51.1-79.2-79.1c-11.2-12.6-15.6-25.5-15.9-42.5c-0.5-27.5-4.7-54.9-7.3-82.3c-0.6,0.2-1.2,0.4-1.8,0.6
		c-2.3,12.7-4.5,25.4-6.9,39.1c-23.7-21.8-31.9-48.6-35.7-72.8c-11,28-22.8,58-35,89c-3.6-17.1-7-33.1-10.4-49.7
		c-3.5,22.1-6.9,43.7-10.2,64.3c-24.5,0-49.1,0-73.7,0c23.4,2.7,46.8,5.3,70.1,8.1c1.5,0.2,3,0.9,8.5,2.8c-6.8,2.7-10.5,5.5-14,5.3
		c-58.8-3-117.6-6.3-176.4-9.9c-4-0.2-7.9-3.7-11.8-5.6c-11.7-0.2-23.4-0.4-35-0.6c-15.3,0-30.5,0-45.8,0
		c0.8-15.4,17.3-17.9,39.6-6.4c12.4,1,24.8,2,37.1,3c14.3-0.3,28.7-1.5,43-0.6c25.8,1.6,51.5,4.6,77.3,6.7c2.6,0.2,5.3-1.6,7.9-2.5
		c-9.8-2.9-19.5-5.8-29.8-8.8c-0.8-7.4-1.6-15.3-2.5-23.2c-1.2,0.1-2.4,0.2-3.6,0.3c-0.6,8-1.2,15.9-1.6,22
		c-17.9,0-34.7,0.5-51.5-0.1c-24.7-1-24.6-1.3-26.7-25.6c0-0.6-1.3-1.1-3.2-2.4c-0.8,8.3-1.5,15.9-2.5,25.6
		c-28.4-2.1-56.2-4.2-81.5-6.1c-4.2-25.8-8-49-11.7-72.1c-1.9,0.1-3.8,0.2-5.8,0.4c-2.2,6.6-4.3,13.3-6.9,21.1
		c-25.5-21.9-25.8-54-36-80.7c-10.6,26.3-6.2,58.6-37.2,78.4c-1.7-10.6-3.1-19.3-4.5-27.6c-2.7,11.9-5.7,23.9-8.2,36
		c-1.3,6.5-2.7,13.1-2.6,19.7c1.3,63.5,2.9,127.1,4.3,190.6c-4.6-0.6-9.1-1.2-13.6-2c-11.8-2.2-22.5-7.6-32.4,4.4
		c-1.9,2.4-7.9,1.4-12.9,2.1c-0.5-5.7-0.1-9.8-1.2-13.4c-1.1-3.6-3.8-6.6-5.7-9.9c-2.2,3.2-5.7,6.1-6.4,9.6
		c-1.1,5.2-0.3,10.8-0.3,17.3c-23.2,0-44.4,0-63.9,0c-4-8.6-7.4-16-10.8-23.3c-3,7-5.9,14.1-9.5,22.6c-6.9,0-15.6,0-25.7,0
		c1.1-5,0.7-9.6,2.8-12.2c13.7-17.5,13.7-18.2-5.7-27.5c3-8.3,6-16.6,7.8-21.7c9.1-1,15.4-0.8,21-2.8c2-0.7,4.1-8.7,2.7-10
		c-4.5-4.6-10.6-7.7-17.6-12.4c0.9-6.1,2.2-14.9,3.5-23.6c1.1,1.2,2.1,2.3,3.2,3.5c6.3-4.2,12.6-8.4,18.8-12.6
		c-5.9-5.3-11.8-10.6-17.8-15.9c-1.2,0.9-2.4,1.9-3.6,2.8c0-8.3,0-16.6,0-24.9c1.2,0.9,2.5,1.8,3.7,2.7c5-5.6,10-11.2,14.9-16.8
		c-6.6-3.6-13.3-7.2-19.9-10.8c-0.9,1.2-1.8,2.4-2.8,3.6c-1.9-8.6-3.8-17.2-5.8-25.7c1.6,0.7,3.3,1.3,4.9,2
		c3.9-6,7.9-11.9,11.8-17.9c-7.3-3-14.6-6-21.9-8.9c-0.8,1.5-1.6,3-2.4,4.5c-3.6-7.6-7.1-15.3-10.7-22.9c1.3,0.4,2.7,0.8,4,1.2
		c3-6.9,5.9-13.9,8.9-20.8c-7.7-1.3-15.5-2.6-23.2-3.9c-0.4,1.4-0.8,2.8-1.2,4.2c-4.8-6.8-9.7-13.6-14.5-20.4c1.6,0,3.2,0,4.7,0.1
		c1.4-7,2.8-13.9,4.2-20.9c-7.9,0-15.7,0-23.6,0c-0.2,1.4-0.3,2.8-0.5,4.2c-6.1-5.7-12.2-11.3-18.3-17c1.7-0.5,3.5-1,5.2-1.5
		c-0.5-7.1-1-14.2-1.5-21.3c-7.6,1.8-15.1,3.5-26.5,6.2c-2.5-1.6-9.1-5.7-15.8-9.9c1.2-0.6,2.5-1.2,3.7-1.8c-1.7-7-3.3-13.9-5-20.9
		c-7.2,2.8-14.3,5.5-21.5,8.3c0.3,1.3,0.5,2.6,0.8,3.8c-7.3-2.8-14.5-5.6-21.8-8.4c1.3-1,2.5-2,3.8-2.9c-3.5-6.3-7-12.7-10.5-19
		c-6,4.3-12,8.5-21.5,15.2c-2.7-0.5-10.4-1.9-18-3.3c0.9-0.9,1.8-1.9,2.7-2.8c-4.2-5.5-8.4-11.1-12.5-16.6c-5.9,5-11.8,10-17.8,15
		c0.6,1,1.3,2.1,1.9,3.1c-7.2,0-14.5,0-21.7,0c0.6-0.9,1.1-1.9,1.7-2.8c-5.4-4.4-10.7-8.9-16.1-13.3c-4.5,5.9-9,11.8-16.2,21.1
		c-2.3,0.5-9.3,2.2-16.4,3.8c0.4-1.1,0.7-2.2,1.1-3.3c-6.2-3.3-12.4-6.6-18.6-9.9c-3.3,6.7-6.6,13.4-11.7,23.6
		c-2.4,1.1-9,4.1-15.7,7.1c-6.4-5.7-16.7-10.7-19.1-8.2c-4.5,4.7-4.4,13.8-7,24c-2.7,1.8-8.2,5.7-10.4,7.2
		c-10.6-0.8-17.6-1.4-24.7-2c-0.6,7.5-1.2,15-2.1,26.6c-1.7,1.6-6.8,6.1-8.7,7.8c-10.4,1.4-20.4-0.1-23.6,3.8
		c-3.2,4,0.4,13.4,1,20.5c1.5,0.4,3,0.9,4.5,1.3c-5.6,5.6-10.6,12.1-17,16.7c-4.7,3.4-11.2,4.2-17,6.2c2.3,6.3,4.5,12.6,8.1,22.4
		c-1.1,2.8-3.6,9.5-6.2,16.2c-1-1.3-1.9-2.6-2.9-3.8c-6.2,3.1-12.4,6.1-18.5,9.2c4,6.6,8,13.2,12,19.8c1.1-0.4,2.2-0.9,3.3-1.3
		c-1.4,7.1-2.8,14.2-4.2,21.3c-7.9,2.4-17,7-17.2,12c-0.3,5.1,8,10.7,15.3,19.3c0.2,5.6,5.5,17.5-9.8,23.5
		c-0.9,0.4,1.5,16.2,3.9,16.6c11.3,1.9,9.3,9.5,9.4,16.6c0.2,15.4,0.3,30.8,0.3,46.1c0.1,22.2,0,44.5,0,67.9
		c-12-2.2-24.6,2.8-27-13.6c-0.3-1.7-5.4-3.9-8.3-3.9c-12.9,0.1-25.9,1.4-38.8,1.2c-5.9-0.1-11.7-2.8-17.7-3.5
		c-11.5-1.3-23.1-3.1-34.5-2.4c-3.8,0.2-6.6,8.3-11,10.9c-3.6,2.1-11.7,3.5-13,1.7c-10.7-14.5-17.6-7.4-23.8,5
		c-4.5-14.6-8.5-27.4-12.5-40.3c-1.9-0.1-3.8-0.1-5.7-0.2c-2.6,9.7-6.7,19.2-7.6,29.1c-1.6,18.1-5.4,22.8-24,24.1
		c-2.6,0.2-5.2,1.3-9.2,2.4c0,12.1,0,23.7,0,34.7c-20.9,8.6-31.1-10.4-49-14.9c0-65,0-130.8,0-198.3c-37.8,0-73,0-108.3,0
		c-0.8-7.7-1.5-13.8-2.3-21.2c-27.1,0-53.5,0-79.9,0c-20.3,0-23.2,2.7-23.1,23.8c0.1,31.1,0.7,62.2,0.9,93.2c0.2,24.7,0,49.5,0,74.8
		c-5.8,0.6-10.3,1.2-14.7,1.4c-24.4,1-27.1,3.7-27.1,27.8c0,9.5,0,19.1,0,28.6c-2.1,0.1-4.2,0.2-6.3,0.3c-0.6-5.6-1.8-11.2-1.9-16.8
		c-0.6-52.5-0.2-105.1-2.1-157.6c-0.6-18.2-0.2-38.3-13.4-53.4c-9.9-11.3-22.1-20.7-32.1-29.9c-39.2,17.8-47.7,52.3-50.3,87.9
		c-2.5,34.8,0.1,70-0.2,105.1c0,4.6-2.8,11.9-6.1,13.2c-14.7,5.9-24.6-1.7-24.8-17.7c-0.5-41.8-0.8-83.6-1.5-125.4
		c-0.1-4.9-0.7-10-2.3-14.6c-2.1-6.1-7.4-11.5-7.9-17.5c-1.5-18.2-5.7-23.1-24.5-23.2c-23.7-0.2-47.3,0-66.9,0
		c-5.3,21.2-11.5,37.1-13,53.4c-5.7,62.2,10.8,125.1-7.4,187.4c-5.3,18.1-0.8,39.1-0.8,64c-8.1-4.9-15.8-6.8-17.1-10.8
		c-4.4-13.4-8.4-27.5-9-41.4c-1.2-28.8,0.1-57.6,0.2-86.4c0.2-27.4-2-30.4-27.4-37.6c-5.3-51.5-5.3-51.5-19.9-59.1
		c-0.8,4.8-1.6,9.6-3.1,18.9c-1.4-9.7-2.2-14.5-2.9-19.2c-35-4.9-41.6-3-44.8,12.5c-0.7-5.8-1.4-11.6-2.1-17.4
		c-0.8,0.1-1.7,0.1-2.5,0.2c-0.7,7.6-1.4,15.3-2.1,23.2c-6.2,1.3-11.6,2.4-17.3,3.5c-0.7,7.1-1.4,13.6-2.3,21.9
		c-5.6,0-10.6-0.5-15.4,0.1c-11.2,1.4-25.4-0.1-32.8,6.1c-7.1,6.1-9.5,20.3-9.9,31.1c-1,27.6,0.2,55.4,0.5,83c0.1,5.7,0,11.4,0,17.2
		c-1.8,0-3.6-0.1-5.5-0.1c0-16.4,0-32.8,0-54c-20.9,1.1-39.2,2.1-55.9,3c-2.8,16.6-4.9,29.6-7.1,42.7c-1.6-0.1-3.1-0.3-4.7-0.4
		c-1.3-15-2.5-30-3.8-44.9c-1.6,1.5-3.2,2.9-4.8,4.4c-4.6-2.4-9.2-4.7-14.7-7.5c-1.8,3.3-4.2,7.8-7.2,13.5c-3.5-4.1-6-7.1-11.2-13.1
		c0,17.9,0,31.6,0,45.4c-0.6,0-1.3,0-1.9,0.1c-1.6-12.2-3.2-24.5-4.8-36.7c-1.9,1.4-3.8,2.9-5.7,4.3c-4.3-2.9-8.7-5.8-13.9-9.4
		c-3.7,6.1-5.4,18.6-17.8,3.3c0,17.9,0,31.9,0,43.9c-5.5,1.4-9.2,2.4-12.9,3.3c0-30.8,0.7-62.4-0.2-93.9
		c-0.7-23.3-2.1-46.7-5.9-69.7c-2.1-12.3-11.2-23.2-15-35.3c-7.8-24.5-14.2-49.4-21.1-74.2c-1.4,0-2.8-0.1-4.2-0.1
		c-5.6,24-11.1,48.1-16.8,72.1c-1.6,6.4-2.7,13.6-6.5,18.7c-10.2,13.9-12.8,28.9-11.9,45.6c1.8,33.7,3,67.4,4.1,101.2
		c0.5,15.1-19,32-33.5,34c-13.9,1.9-27.2,8-41.5,12.4c0,0,0,0,0,0l0,0c-0.1-0.2-1.3-2.3-2.7-4.6c-17.7,21.5-17.7,21.5-17.6,44.6
		c0.2,36.7,0.4,73.5,0.7,110.2c0.1,6.5,0.6,13.1,1,20.8c682.2-5.8,1362.3-11.6,2042.2-17.3c0-46.5,0-92.5,0-138.2
		c300.3-1.7,600.5-7.8,900.8-3.4C1709.3,1068.9,1708.6,1022,1702.4,974.2z M160.8,876.1c-5.2-0.9-8.6-12.4-12.9-19
		c1.9-1.9,3.7-3.7,5.6-5.6c50.3,2.8,100.5,5.6,150.8,8.4c0.1,1.2,0.1,2.3,0.2,3.5c-29.2,5.5-58.1,12.6-87.5,15.9
		C198.5,881.5,179.2,879.4,160.8,876.1z M336.8,812c-1.1,0.6-2.2,1.2-3.2,1.8c-26.5-42.3-52.9-84.6-80.5-128.8
		c12.5-5.7,23-10.6,36-16.5C305.4,717.4,321.1,764.7,336.8,812z M297.3,665.3c18.7-2.9,34.5-5.4,52.1-8.1c0,54.3,0,106,0,157.6
		c-0.7,0.3-1.5,0.7-2.2,1C331,766.8,314.7,717.9,297.3,665.3z M326.2,818.2c-1,0.9-2.1,1.8-3.1,2.7c-33.5-36.8-67-73.6-100.5-110.4
		c-2.3,1-4.7,2.1-7,3.1c9.3-7.5,18.5-15.1,29.9-24.3C272.9,733.2,299.5,775.7,326.2,818.2z M303.1,822.2
		c-31.3-18.5-74.5-44-119.8-70.8c9.1-11.3,16.4-20.4,25.7-31.9C244.1,757.8,277.9,794.6,303.1,822.2z M310.4,836.5
		c-0.5,1.1-1,2.2-1.5,3.2c-48.2-14.6-96.4-29.3-146.7-44.6c5.8-12.7,10.9-23.7,16.7-36.3C223.8,785.3,267.1,810.9,310.4,836.5z
		 M312.4,886.3c-23.4,18.3-46.7,36.5-71.6,55.9c-6.4-20.5,1-29.8,17.6-35.7C276.3,900.1,293.3,891.3,312.4,886.3z M304.5,847.3
		c-0.1,1.3-0.3,2.6-0.4,3.9c-49.7-2.7-99.4-5.4-152.2-8.3c2.7-14.4,4.9-25.8,7.5-39.4C209,818.5,256.8,832.9,304.5,847.3z
		 M211.5,894c0.5-1.5,1-3.1,1.5-4.6c30.7-5.7,61.4-11.4,92.2-17.2c0.5,1.2,1,2.3,1.5,3.5c-23.5,10.4-46.5,22.1-70.8,30.2
		C229.7,908,219.7,898.3,211.5,894z M257.6,939.3c21-12.9,39.4-29.9,59-45.1c0.9,0.8,1.9,1.7,2.8,2.5
		c-25.8,32.5-51.5,64.9-79.7,100.4C237.1,972.1,235,953.2,257.6,939.3z M239.3,1022.8c0.4-13.6,48.5-79.1,90-119.1
		c-20.4,44.4-40.7,88.7-63.3,137.8C265.6,1016.8,248.5,1027.1,239.3,1022.8z M303.7,1062.9c-8.9-7.7-17.8-15.4-27.2-23.5
		c20.3-44.1,40.3-87.6,60.2-131c1.2,0.4,2.5,0.7,3.7,1.1c-9.9,50.1-19.8,100.3-29.7,150.4C308.4,1060.9,306,1061.9,303.7,1062.9z
		 M330.4,1049.8c6.5-41.6,12.8-81.8,19.2-122c1.2,0.1,2.5,0.2,3.7,0.3c1.9,41.2,3.8,82.4,5.8,126.7
		C348,1052.9,339.9,1051.5,330.4,1049.8z M406.6,874c0.2-1.3,0.4-2.6,0.6-3.8c49.8,4.4,99.5,8.7,152.3,13.3
		c-3.1,14.6-5.5,25.9-8.4,39.5C501.7,906.3,454.2,890.1,406.6,874z M548.5,931.3c-6,12.5-11.4,23.8-17.4,36.5
		c-44.6-28.4-87.3-55.5-129.9-82.6c0.4-1.2,0.9-2.3,1.3-3.5C450.2,898,498.1,914.2,548.5,931.3z M558.5,874.7
		c-50.8-4.5-101.5-8.9-152.1-13.3c0-1.1-0.1-2.3-0.1-3.4c49.7-7.6,99.4-15.2,152.2-23.3C558.5,848.9,558.5,860.4,558.5,874.7z
		 M406.5,849.2c-0.4-1.2-0.7-2.4-1.1-3.6c46-18.9,92-37.9,140.9-58c3.9,13.4,7.1,24.6,11.2,38.4C506,834,456.2,841.6,406.5,849.2z
		 M402.4,837.4c-0.6-1.1-1.2-2.1-1.8-3.2c40.2-29.3,80.4-58.6,122.7-89.4c6.5,11.3,12.6,21.7,20,34.6
		C494.5,799.6,448.4,818.5,402.4,837.4z M395.3,827.4c-0.8-0.9-1.6-1.7-2.3-2.6c32.2-38,64.4-76.1,98.1-116
		c9.4,9.9,17.7,18.6,27.4,28.9C476.4,768.3,435.8,797.8,395.3,827.4z M386.1,819.4c-0.9-0.7-1.9-1.4-2.8-2.2
		c22.4-44.7,44.8-89.3,68.2-136c11.8,7.8,21.8,14.5,33,21.9C450.7,743,418.4,781.2,386.1,819.4z M375.9,812.9
		c-1.1-0.4-2.2-0.8-3.3-1.2c11.1-48.6,22.1-97.2,33.7-147.9c12.9,4.7,24.3,8.8,37.4,13.5C420.4,723.8,398.1,768.4,375.9,812.9z
		 M364.5,808.2c-1.5-0.2-3-0.5-4.6-0.7c0-49,0-98,0-149.7c12,1.3,23.9,2.5,37.9,4C386.4,712,375.4,760.1,364.5,808.2z M367.7,1052.4
		c-1.6-33.3-3.1-65.5-4.6-97.6c1.2-0.1,2.4-0.2,3.6-0.4c5.4,31.8,10.8,63.5,16.4,96.4C377.6,1051.4,373.4,1051.8,367.7,1052.4z
		 M395.3,1057.4c-4.9-27.1-9.7-53.3-15.3-84.3C399.2,1009.1,406.3,1048.2,395.3,1057.4z M413.9,1046.4
		c-13.6-46.2-27.3-92.4-41-138.6c1.1-0.5,2.1-1,3.2-1.5c25.7,44.3,51.5,88.6,78.9,135.8C439.4,1043.8,427.5,1045,413.9,1046.4z
		 M470.4,1008.8c-0.9,7.2-2.1,16.5-3.2,25.7c-2,0.4-3.9,0.8-5.9,1.2c-24.9-42.8-49.7-85.6-74.6-128.4c1.4-1.1,2.7-2.3,4.1-3.4
		c7.8,8.3,15.4,16.7,23.3,24.9c21.5,22.4,43.1,44.7,64.3,67.4c2.2,2.4,1.7,7.3,2.5,11.1C477.7,1007.8,474.5,1008.2,470.4,1008.8z
		 M505.6,975.9c-1.5,0.1-3,0.1-4.4,0.2c-1.1,7.1-2.2,14.1-4.2,26.4c-36.2-37.6-69.8-72.5-103.4-107.4c0.8-1,1.6-1.9,2.4-2.9
		c42.7,27.2,85.4,54.3,129.7,82.6c-4.8,6.6-8.9,12.1-13.9,18.8C509.3,986.2,507.4,981.1,505.6,975.9z M522.6,998.6
		c61.9-92.4,67.3-184.8-3-272c-57.5-71.4-136.4-95.2-224-68.5c-104.9,32-152.4,109.8-154.7,218.4c-6.2,0-12.2,0-19.5,0
		c-3.2-28.6,0.7-56.5,9.8-83.2c30.8-90.1,93-146.9,187.1-161.8c97.7-15.5,178,19.8,232.8,102.1c53.2,79.9,53.4,164.4,7,248.6
		C547.9,1000.6,547.4,1000.4,522.6,998.6z M1156.1,984.8c-0.4,0-0.9,0.1-1.3,0.1c0-15.5,0-31,0-45.1c-11.4-8.6-35.7,7.9-31-23
		c-19.7-0.9-38.5-1.8-55.7-2.6c-12.6,27.3-23.9,51.7-36.8,79.8c-1-0.7-7.4-2.6-8.8-6.4c-2.1-5.7-0.5-12.6-0.5-19
		c-1.8,0-3.7-0.1-5.5-0.1c-0.6,9.4-1.2,18.8-1.9,29.4c-13.7,0.3-28.9,8.8-36.3-10.9c-11.2-1.9-28.7,28.1-32.8-13.3
		c-3.4,11.6-4.9,17-7.2,25c-14.6-1.1-29.2-2.3-44.1-3.4c-1.4,6-2.6,11.2-4,17.5c-14.8-4.6-20.7-12.5-20.2-27.8
		c0.9-31-0.6-62.1-0.6-93.2c0-9.4,1.8-18.8,2.9-29.6c94.5,4.9,187.4,9.7,284,14.7C1156.1,914.6,1156.1,949.7,1156.1,984.8z
		 M1261.3,1011.1c-1.1,0-2.2-0.1-3.3-0.1c0-16.8,0-33.6,0-50.4c1.1,0,2.2,0,3.3-0.1C1261.3,977.4,1261.3,994.2,1261.3,1011.1z
		 M1306.8,1024.5c-0.4,2.7-3,5.9-5.5,7.1c-1.8,0.9-7.3-1.2-7.3-1.8c0.3-20.4-13.9-17.2-27.6-15.1c0-16.6,0-31.5,0-47
		c3.9,0.6,7.1,1,10.3,1.5c0,0,0,0,0,0c2.1,7,4.2,14,5.9,19.6c3.5-1,6.9-2,10.4-3.1c-4.3-7.9-17.8-15-2.2-24.7
		c-6.5-3.3-12.9-6.6-19.4-9.9c0,0,0,0,0,0c-1.3-4.1-1.5-9-3.9-12.3c-12.6-17.9-14.2-27.1-6-50.6c14.6,26.8,47.7,40.4,41.9,78
		c-3.9-1.3-6.9-2.3-9.8-3.2c3.6,6,8.8,11.5,10.3,18c2,8.7-2.9,10.9-10.5,6.3C1306.8,996.5,1309.1,1009.8,1306.8,1024.5z
		 M1325.9,1031.9c-4.4,0-9.5,0-17.8,0c2.1-10.5,3.9-19.2,5.7-28C1321,1011.4,1333,1016.6,1325.9,1031.9z M1310.6,978.2
		c7.3,8,21.4,12.6,13.6,28.9c-3.5-1.2-6.9-2.4-10.3-3.5C1312.7,995,1311.7,986.6,1310.6,978.2z M1323.6,982.9
		c-4.4-1.6-8.7-3.3-13.1-4.9c0,0,0-0.1,0-0.1c-1.4-7.7-2.7-15.3-4.1-23c2.2-0.8,4.4-1.7,6.6-2.5c5.1,9.1,10.1,18.3,15.2,27.4
		C1326.7,980.9,1325.2,981.9,1323.6,982.9z M1340.6,1020.5c-3.3-6-6.8-12-9.5-18.3c-0.3-0.7,4.1-3.4,6.4-5.1
		c4.1,5.9,8.2,11.8,12.2,17.7C1346.7,1016.7,1343.7,1018.6,1340.6,1020.5z M1385.5,1020.5c-12-6.5-23.9-12.9-35.9-19.4
		c0.6-1.5,1.2-3.1,1.8-4.6c7.2,0.4,14.4,0.7,21.7,1.1c4.6,6.9,9.3,13.7,13.9,20.6C1386.5,1019,1386,1019.8,1385.5,1020.5z"/>
	<path class="st2" d="M2559.6,946.7c0-22.4-0.6-22.9-21.2-20.3c-2.9-5-5.7-9.8-9.6-16.4c-4,7.1-6.4,11.2-6.5,11.5
		c-9.8,0.9-15.6,1.5-20.3,1.9c-4.5-25.2-9-50.4-13.6-75.5c-1.6,0.2-3.2,0.4-4.7,0.6c-1.7,5.6-3.5,11.3-5.5,17.7
		c-3.1-3.3-5.3-5.7-9.1-9.8c-1.4,10.7-2.4,18.7-3.5,27.6c-8-8.7-14.8-16.3-22.8-25c-1.3,5-2.2,8.8-4.2,16.3
		c-2.5-9.7-4-15.6-5.3-20.6c-6.5,8.2-12.5,15.9-20.4,25.8c-2.9-11-4.5-17.3-6.2-23.5c-1.1,0.2-2.2,0.5-3.4,0.7
		c-0.6,9.8-1.2,19.6-2,31.3c-7.4-7.9-13.4-14.4-19.8-21.1c-1.8,3.9-3.5,7.6-6.4,13.9c-2.6-8.5-4.3-14-5.7-18.6
		c-6.2,8.4-12.2,16.5-19.1,26c-1.8-10-3-17.2-4.8-27.4c-13.1,22.7,4.2,50.2-17.1,67c-5.9-7-9.3-11.1-12.8-15.2
		c-3,4.7-6,9.5-9.7,15.4c-11-55.9-21-106.7-31.3-159c-11.3,43.3-22.1,84.5-33.7,128.6c-5.7-10.3-10.3-18.8-16.8-30.7
		c-8.5,8.8-15.9,16.4-24,24.6c-2.1-5.9-3.6-10.2-5.2-14.5c-1,0.1-2,0.2-3,0.3c-0.9,15.3-1.8,30.5-2.7,45.8c-1.5,0.3-3,0.7-4.5,1
		c-2.7-5.4-7.4-10.8-7.7-16.4c-2-40.9-2.8-81.8-4.6-122.7c-0.5-11.2-3.5-22.2-5.3-33.3c-1.8,0-3.5,0-5.3,0c-2.5,13.5-5,27-7.9,42.6
		c-5.9-7.9-13.8-13.7-13.5-19.1c1.1-20-15.4-19.8-25.4-27.9c-5.1,16.3-9.6,30.8-14.1,45.3c-1.5-0.5-3-1-4.6-1.6
		c-2.6-12.2-5.1-24.4-7.7-36.6c-2.8,0.2-5.6,0.4-8.3,0.6c-1.3,49.9-2.6,99.9-4,149.8c-1.6,0.1-3.3,0.2-4.9,0.4
		c-2.5-3.9-5-7.8-7.7-12.1c-2.5,5.5-4.4,9.7-7,15.4c-3.2-5.5-5.1-8.9-8.9-15.7c-1.1,18.2-2,32.1-2.7,43.3c-6,1-14.2,1-14.6,2.6
		c-2.9,13.5-11.6,13.5-22.2,11.9c-2.6-0.4-5.6,2-8.4,3.2c-5.6,2.3-11,6.4-16.7,6.7c-15.5,0.9-31,0.3-49.1,0.3
		c3.4,6.5,5,9.3,6.5,12.2c-1.8,0.9-3.6,1.7-5.4,2.6c-1.9-5.2-5.5-10.4-5.6-15.7c-0.7-42.4-0.9-84.8-1.1-127.1
		c-0.2-35.5-10.2-45.6-45.6-45.8c-1.1,0-2.1-0.6-4.3-1.3c-4.7-10.3-9.6-21.3-14.9-33c-7.3-1.3-15.8-2.7-26.2-4.5
		c0,10.2-0.1,19.2,0,28.1c0.6,62.2,1.1,124.3,2,186.5c0.2,10.4-2,16.8-13.8,15c-13.7-2.2-27.4-4.7-40-6.8
		c-3.4-35.1-4.2-69.2-10.5-102.3c-6.1-31.8-15.6-63.5-27.8-93.5c-9.6-23.6-21.1-22.8-32.9-0.4c-6.8,12.9-12.6,26.7-16.1,40.8
		c-7.7,31.1-13.7,62.6-20.2,92.8c-9.2,4.2-15.9,10.1-21.4,17c-1.8,58.2-9.1,116.1-15.2,174.4c36.7-2.2,73.4-5,110.1-5.5
		c263.9-3,527.7-4.7,791.6-7c5.4,0,10.7-0.5,16.1-0.7C2559.7,1039.3,2559.7,993,2559.6,946.7z"/>
</g>
</svg>
