<?xml version="1.0" encoding="utf-8"?>
<!-- Generator: Adobe Illustrator 17.0.0, SVG Export Plug-In . SVG Version: 6.00 Build 0)  -->
<!DOCTYPE svg PUBLIC "-//W3C//DTD SVG 1.1//EN" "http://www.w3.org/Graphics/SVG/1.1/DTD/svg11.dtd">
<svg version="1.1" xmlns="http://www.w3.org/2000/svg" xmlns:xlink="http://www.w3.org/1999/xlink" x="0px" y="0px" width="1920px"
	 height="1080px" viewBox="0 0 1920 1080" enable-background="new 0 0 1920 1080" xml:space="preserve">
<g id="Layer_3">
	<rect x="-511.431" y="-34.692" fill="#3498DB" width="2814.053" height="1039.49"/>
	<g>
		<g>
			<polyline fill="#754C28" points="275.37,681.228 263.624,573.244 357.901,671.745 			"/>
			<polyline fill="#A87C4F" points="192.84,691.185 263.624,573.244 275.37,681.702 			"/>
		</g>
		<g>
			<polyline fill="#754C28" points="387.083,675.171 369.756,515.879 508.827,661.183 			"/>
			<polyline fill="#A87C4F" points="265.339,689.859 369.756,515.879 387.083,675.871 			"/>
		</g>
		<g>
			<polyline fill="#754C28" points="515.558,690.095 514.479,463.025 689.213,688.219 			"/>
			<polyline fill="#A87C4F" points="341.801,692.957 514.479,463.025 515.456,691.081 			"/>
		</g>
	</g>
	<path fill="#F3F09C" d="M-1086.737,1267.135c0,0,1187.971-1391.095,3791.657-51.626"/>
	<rect x="188.5" y="278.5" display="none" stroke="#000000" stroke-miterlimit="10" width="1313" height="684"/>
</g>
<g id="Layer_1_copy" opacity="0.3">
	<g>
		<g>
			<path stroke="#000000" stroke-width="1.3679" stroke-linejoin="round" stroke-miterlimit="10" d="M1509.946,961.445
				c0,0-42.468,8.05-70.396,12.226c-31.768,4.75-5.014,5.835-5.014,5.835s56.294-6.616,111.276-17.035
				C1586.999,954.666,1509.946,961.445,1509.946,961.445z"/>
			<path stroke="#000000" stroke-width="1.3679" stroke-linejoin="round" stroke-miterlimit="10" d="M1564.201,962.266
				c0,0-26.165,6.015-60.252,11.322c-40.684,6.334-0.986,6.54-0.986,6.54s87.26-13.217,105.323-17.145
				C1624.277,959.504,1564.201,962.266,1564.201,962.266z"/>
		</g>
		<g>
			<path stroke="#000000" stroke-width="1.3679" stroke-linejoin="round" stroke-miterlimit="10" d="M1369.782,976.841
				c0,0,75.212-7.724,86.633-7.796c11.112-0.07-6.481,6.445,3.901,6.643c3.974,0.076-11.79,1.847-11.79,1.847
				S1379.264,976.986,1369.782,976.841z"/>
			<path stroke="#000000" stroke-width="1.3679" stroke-linejoin="round" stroke-miterlimit="10" d="M1364.851,977.266
				l-16.751,2.361c0,0,83.391-0.878,86.292,0.342l15.851-2.51C1450.243,977.46,1406.488,976.638,1364.851,977.266z"/>
			<path stroke="#000000" stroke-width="1.3679" stroke-linejoin="round" stroke-miterlimit="10" d="M1458.32,972.984
				c-2.262,0.609-30.665,5.103-30.665,5.103s7.91-0.089,7.679,0.19c-0.232,0.281,26.769-4.542,26.769-4.542
				S1460.551,972.383,1458.32,972.984z"/>
			<path stroke="#000000" stroke-width="1.3679" stroke-linejoin="round" stroke-miterlimit="10" d="M1445.825,969.273
				c0,0-46.212,7.394-53.595,8.45c-7.603,1.088,5.865,0.168,5.865,0.168s58.268-8.378,70.286-10.65L1445.825,969.273z"/>
		</g>
		<g>
			<path stroke="#000000" stroke-width="1.3679" stroke-linejoin="round" stroke-miterlimit="10" d="M1430.873,979.808
				c0,0,72.735-8.707,82.799-8.801c9.807-0.092,0.478,6.471,2.69,6.788c2.211,0.317-9.992,1.806-9.992,1.806
				S1439.452,979.923,1430.873,979.808z"/>
			<path stroke="#000000" stroke-width="1.3679" stroke-linejoin="round" stroke-miterlimit="10" d="M1428.31,979.898l-18.517,3.159
				c0,0,84.267-2.549,86.574-1.14l16.719-3.266C1513.087,978.652,1470.328,978.426,1428.31,979.898z"/>
			<path stroke="#000000" stroke-width="1.3679" stroke-linejoin="round" stroke-miterlimit="10" d="M1520.703,975.028
				c0,0-18.704,3.989-24.616,4.935c-6.075,0.972,6.781,0.167,6.781,0.167s18.103-3.402,21.472-4.391
				C1527.633,974.774,1520.703,975.028,1520.703,975.028z"/>
			<path stroke="#000000" stroke-width="1.3679" stroke-linejoin="round" stroke-miterlimit="10" d="M1491.033,972.887
				c0,0-31.652,6.259-37.856,7.301c-6.381,1.072,7.436-0.118,7.436-0.118s39.578-6.805,50.005-9.138L1491.033,972.887z"/>
		</g>
	</g>
	<g>
		<path stroke="#000000" stroke-width="1.3679" stroke-miterlimit="10" d="M1608.369,962.964c0,0-60.26,17.46-12.53,15.055
			c0,0,12.276,0.162,21.865-4.285c8.681-4.025,36.207-13.41,56.854-17.113C1692.384,953.425,1608.369,962.964,1608.369,962.964z"/>
		<path stroke="#000000" stroke-width="1.3679" stroke-linejoin="round" stroke-miterlimit="10" d="M1621.856,938.58
			c0,0-38.977,3.993-43.897,4.512l16.627-1.228c0,0-26.973,3.11-31.634,3.603l8.457-0.692c0,0-13.662,1.864-17.541,2.108
			c-3.948,0.248-89.653,12.885-86.696,14.136c0,0,16.75-1.962,16.829-1.635c0.08,0.33-12.79,3.37,4.124,2.754
			c0,0,2.518,0.195-1.695,0.907c0,0,8.056-0.765,8.735-0.584c0.68,0.181-1.263,4.386,55.245,3.453
			c49.844-0.823,67.083-10.353,67.083-10.353l35.694-10.942L1621.856,938.58z"/>
		<path stroke="#000000" stroke-width="1.3679" stroke-miterlimit="10" d="M1644.18,947.249c0,0-4.955,0.125-10.236,0.655
			c-6.524,0.655-12.997,2.085-9.342,2.101c2.945,0.013-1.282,0.589-5.167,1.271c-4.78,0.84-1.798,0.255-0.889,0.945
			c0.596,0.453-12.001,1.845-15.492,2.22c0,0-3.664,0.555,1.165,0.374c2.282-0.085-4.738,1.336-4.738,1.336s2.191-0.286-2.588,0.491
			c-4.93,0.802-7.008,1.436-7.063,1.519c-0.055,0.084-4.172,1.05-4.172,1.05s-2.392,0.888-10.753,2.056
			c-8.764,1.224-18.117,2.801-18.117,2.801s-6.336,0.997-6.705,1.403c-0.372,0.409-5.787,0.62-5.787,0.62s53.25,3.905,128.364-8.534
			C1721.285,949.505,1650.356,946.779,1644.18,947.249z"/>
	</g>
	<g>
		<path stroke="#000000" stroke-width="1.3679" stroke-miterlimit="10" d="M1687.747,929.876c0,0-3.935,0.213,20.159-2.851
			c19.139-2.434,7.658,0.391,7.658,0.391L1687.747,929.876z"/>
		<path stroke="#000000" stroke-width="1.3679" stroke-miterlimit="10" d="M1734.891,924.813c0,0-25.377,3.733-32.337,4.028
			c0,0-7.332-1.957,9.327-4.525c13.776-2.124,19.883-2.184,19.883-2.184S1728.302,923.937,1734.891,924.813z"/>
		<path stroke="#000000" stroke-width="1.3679" stroke-miterlimit="10" d="M1695.957,931.315c0,0-11.499-0.455-8.335-1.445
			c0,0,34.116-2.741,47.269-5.057c0,0,3.04-0.107,3.411,0.489c0.379,0.61,1.794,0.553,3.013,0.578
			C1742.525,925.904,1695.957,931.315,1695.957,931.315z"/>
		<g>
			<defs>
				<path id="XMLID_20_" d="M1723.197,921.001c0,0-19.384,2.365-21.345,2.911c0,0-3.222,0.404,15.199,0.645
					c0,0,17.703-2.555,19.796-2.912c0,0,2.518-0.3-1.735-0.414C1735.112,921.232,1725.897,920.941,1723.197,921.001z"/>
			</defs>
			<use xlink:href="#XMLID_20_"  overflow="visible"/>
			<clipPath id="XMLID_22_">
				<use xlink:href="#XMLID_20_"  overflow="visible"/>
			</clipPath>
			<path clip-path="url(#XMLID_22_)" stroke="#000000" stroke-width="1.3679" stroke-miterlimit="10" d="M1723.651,921.255
				c0,0-16.204,2.09-17.03,2.327c-0.839,0.241,9.404,0.351,10.789,0.31c1.371-0.041,16.734-2.185,17.234-2.362
				C1734.233,921.344,1724.967,921.206,1723.651,921.255z"/>
			<path clip-path="url(#XMLID_22_)" stroke="#000000" stroke-width="1.3679" stroke-miterlimit="10" d="M1712.402,924.148
				c0.617-0.079,0.624-0.172,0.017-0.207c-0.608-0.035-1.608,0-2.236,0.079c-0.633,0.08-0.646,0.173-0.027,0.209
				C1710.773,924.265,1711.78,924.228,1712.402,924.148z"/>
			<path clip-path="url(#XMLID_22_)" stroke="#000000" stroke-width="1.3679" stroke-miterlimit="10" d="M1723.47,921.521
				c0,0-2.227,0.248-2.047,0.332c0.181,0.084,1.938,0.06,2.275,0.051c0.336-0.01,2.389-0.316,2.389-0.316L1723.47,921.521z"/>
			
				<line clip-path="url(#XMLID_22_)" stroke="#000000" stroke-width="1.3679" stroke-miterlimit="10" x1="1727.27" y1="921.734" x2="1730.219" y2="921.782"/>
			
				<line clip-path="url(#XMLID_22_)" stroke="#000000" stroke-width="1.3679" stroke-miterlimit="10" x1="1726.55" y1="921.951" x2="1729.002" y2="922.016"/>
			
				<line clip-path="url(#XMLID_22_)" stroke="#000000" stroke-width="1.3679" stroke-miterlimit="10" x1="1725.232" y1="922.322" x2="1727.536" y2="922.394"/>
			<use xlink:href="#XMLID_20_"  overflow="visible" fill="none" stroke="#000000" stroke-width="1.3679" stroke-miterlimit="10"/>
		</g>
		<path stroke="#000000" stroke-width="1.3679" stroke-miterlimit="10" d="M1717.248,924.826c0,0-1.564-0.896,2.356-1.81
			c3.68-0.858,4.155,0.012,4.155,0.012s1.008,0.842,1.894,0.906"/>
		<g>
			<path stroke="#000000" stroke-width="1.3679" stroke-miterlimit="10" d="M1734.149,920.662c-0.442,0.055-1.19,0.073-1.669,0.041
				c-0.48-0.032-0.505-0.103-0.056-0.157c0.446-0.054,1.19-0.072,1.664-0.04C1734.56,920.538,1734.588,920.608,1734.149,920.662z"/>
			<path stroke="#000000" stroke-width="1.3679" stroke-miterlimit="10" d="M1731.425,920.326c0,0,4.657-0.24,4.995,0.188"/>
			<path stroke="#000000" stroke-width="1.3679" stroke-miterlimit="10" d="M1730.962,920.088c0,0,6.527-0.287,7.478,0.174"/>
			<path stroke="#000000" stroke-width="1.3679" stroke-miterlimit="10" d="M1732.474,919.838c0,0,5.477-0.277,7.87,0.331"/>
		</g>
	</g>
	<path stroke="#000000" stroke-width="1.3679" stroke-miterlimit="10" d="M1780.376,920.461c0,0,5.176,2.865,14.44,5.052
		C1794.816,925.513,1799.101,922.56,1780.376,920.461z"/>
	<g>
		<defs>
			<path id="XMLID_17_" d="M1761.158,923.912c0,0,6.786-0.521,3.219-1.07c-2.873-0.443-2.096-0.492-2.712-0.752
				c-0.611-0.258-6.748-0.91-12.584-0.991c-6.087-0.084,8.515-0.152,10.521-0.079c1.981,0.072,2.557-0.002,11.105,0.456
				c0,0,3.288,0.164,8.971,0.105c5.4-0.056,6.823-0.031,10.074,0.144c3.19,0.173,5.162,0.496,4.556,1.137
				c-0.632,0.669-2.691,0.974-3.604,1.462c-0.945,0.504-4.166,1.69-3.141,1.959c1.031,0.27-30.906,0.594-30.906,0.594
				L1761.158,923.912z"/>
		</defs>
		<use xlink:href="#XMLID_17_"  overflow="visible"/>
		<clipPath id="XMLID_23_">
			<use xlink:href="#XMLID_17_"  overflow="visible"/>
		</clipPath>
		<path clip-path="url(#XMLID_23_)" stroke="#000000" stroke-width="1.3679" stroke-miterlimit="10" d="M1744.27,920.253
			c0,0,24.159,0.677,26.699,1.602c2.523,0.919-9.644,0.638-22.285-0.065"/>
		<g clip-path="url(#XMLID_23_)">
			<defs>
				<path id="XMLID_18_" d="M1777.807,922.419c0,0,2.213-0.183,5.625-0.293c3.294-0.106,8.743-0.021,3.199,0.636
					c0,0-4.148,0.496-7.271,0.536"/>
			</defs>
			<use xlink:href="#XMLID_18_"  overflow="visible"/>
			<clipPath id="XMLID_24_">
				<use xlink:href="#XMLID_18_"  overflow="visible"/>
			</clipPath>
			<g clip-path="url(#XMLID_24_)">
				<defs>
					<path id="XMLID_19_" d="M1781.189,923.024c0,0,9.358-0.814,0.372-0.908c-9.686-0.101-4.889,0.128-4.889,0.128l3.214,0.761
						L1781.189,923.024z"/>
				</defs>
				<use xlink:href="#XMLID_19_"  overflow="visible"/>
				<clipPath id="XMLID_25_">
					<use xlink:href="#XMLID_19_"  overflow="visible"/>
				</clipPath>
				<path clip-path="url(#XMLID_25_)" stroke="#000000" stroke-width="1.3679" stroke-miterlimit="10" d="M1780.762,922.451
					c0.24-0.047,0.121-0.107-0.266-0.135c-0.387-0.027-0.899-0.012-1.143,0.035c-0.245,0.047-0.127,0.108,0.264,0.136
					C1780.008,922.515,1780.52,922.498,1780.762,922.451z"/>
				<use xlink:href="#XMLID_19_"  overflow="visible" fill="none" stroke="#000000" stroke-width="1.3679" stroke-miterlimit="10"/>
			</g>
			<use xlink:href="#XMLID_18_"  overflow="visible" fill="none" stroke="#000000" stroke-width="1.3679" stroke-miterlimit="10"/>
		</g>
		<path clip-path="url(#XMLID_23_)" stroke="#000000" stroke-width="1.3679" stroke-miterlimit="10" d="M1749.081,921.099
			c0,0,11.395,0.008,16.208,0.899c0,0,5.255,0.698,6.097,0.104"/>
		<use xlink:href="#XMLID_17_"  overflow="visible" fill="none" stroke="#000000" stroke-width="1.3679" stroke-miterlimit="10"/>
	</g>
	<path stroke="#000000" stroke-width="1.3679" stroke-miterlimit="10" d="M1744.684,925.443l13.976-1.278
		c0,0,6.994-0.722,6.249,0.274c-0.788,1.053,7.747,0.492,9.902,0.319c2.101-0.169,14.459-1.483,12.558-0.095
		c0,0-0.33,0.915-4.188,0.973c-3.991,0.059-7.097,0.052-9.859-0.195c-2.787-0.25-8.822,0.151-7.674,0.96
		c1.182,0.834-21.632,1.945-21.632,1.945l-20.455,1.059L1744.684,925.443z"/>
	<g>
		<g>
			<defs>
				<path id="XMLID_16_" d="M1751.88,924.14c0.059,0.208-5.238,1.508-5.734,1.618c-6.413,1.422-16.348,3.261-16.348,3.261
					s-55.532,12.701-85.332,12.507c-33.705-0.22-24.709-2.538-26.01-2.824c-1.298-0.286,0.659-0.743,9.47-1.305
					c8.381-0.535,57.153-5.952,57.153-5.952c18.887-2.359,60.44-6.246,60.44-6.246c3.329-1.148-1.927-2.135-1.927-2.135
					c9.297-0.037,19.468,0.66,19.468,0.66s-11.648,1.126-15.694,1.738"/>
			</defs>
			<use xlink:href="#XMLID_16_"  overflow="visible"/>
			<clipPath id="XMLID_26_">
				<use xlink:href="#XMLID_16_"  overflow="visible"/>
			</clipPath>
			<path clip-path="url(#XMLID_26_)" stroke="#000000" stroke-width="1.3679" stroke-miterlimit="10" d="M1754.432,922.979
				c0,0-2.622,1.144-10.689,1.014c-8.503-0.137-4.032-0.991-4.032-0.991L1754.432,922.979z"/>
			<path clip-path="url(#XMLID_26_)" stroke="#000000" stroke-width="1.3679" stroke-miterlimit="10" d="M1718.909,927.454
				c0,0,10.475,0.129-2.755,1.595c0,0-5.69,0.792-4.985,1.362c0,0-7.738,1.977-15.573,1.561c-8.054-0.427-14.291-0.821-14.291-0.821
				L1718.909,927.454z"/>
			<path clip-path="url(#XMLID_26_)" stroke="#000000" stroke-width="1.3679" stroke-miterlimit="10" d="M1703.834,929.049
				c0,0,1.377,1.815-13.126,2.099c-15.863,0.31-4.727-0.247-4.727-0.247L1703.834,929.049z"/>
			<use xlink:href="#XMLID_16_"  overflow="visible" fill="none" stroke="#000000" stroke-width="1.3679" stroke-miterlimit="10"/>
		</g>
		<g>
			<defs>
				<path id="XMLID_15_" d="M1789.613,926.04l-26.556,0.184c0,0-5.644,0.014-10.384,0.557c-5.023,0.576-33.626,2.516-62.753,7.462
					l-34.512,4.47c0,0-12.47,2.056-23.973,2.762c-12.281,0.754-12.74,1.335-12.443,1.938c0.301,0.611-5.055,5.682,62.107,5.157
					c52.418-0.41,107.624-20.671,107.624-20.671s3.942-1.067,3.554-1.912c0,0,0.119-0.244-1.79-0.341
					c-1.929-0.098-2.344-0.153-2.344-0.153l-0.812,0.561L1789.613,926.04z"/>
			</defs>
			<use xlink:href="#XMLID_15_"  overflow="visible"/>
			<clipPath id="XMLID_27_">
				<use xlink:href="#XMLID_15_"  overflow="visible"/>
			</clipPath>
			<path clip-path="url(#XMLID_27_)" stroke="#000000" stroke-width="1.3679" stroke-miterlimit="10" d="M1769.413,926.066
				c0,0,1.58,0.243-0.282,0.62c-1.876,0.38,1.889,0.575,4.784,0.282c2.797-0.283,4.857,0.022,6.322,0.186
				c1.461,0.163,4.65-0.26,7.194-0.148c2.527,0.111,3.579-0.581,1.23-0.593c-2.392-0.011-0.039-0.365-0.039-0.365L1769.413,926.066z
				"/>
			<path clip-path="url(#XMLID_27_)" stroke="#000000" stroke-width="1.3679" stroke-miterlimit="10" d="M1779.199,926.026
				c0,0-2.565,0.66,3.385,0.563c5.664-0.092,4.012-0.639,3.058-0.665"/>
			<path clip-path="url(#XMLID_27_)" stroke="#000000" stroke-width="1.3679" stroke-miterlimit="10" d="M1620.053,946.526
				c0,0,24.807-4.523,40.942-3.19c0,0,2.919,0.943,17.878-0.891c0,0,12.946-0.879,15.057,0.671
				c2.186,1.605-41.695,8.225-41.695,8.225L1620.053,946.526z"/>
			<path clip-path="url(#XMLID_27_)" stroke="#000000" stroke-width="1.3679" stroke-miterlimit="10" d="M1635.268,948.085
				c0,0,28.967-4.119,28.914-1.219c-0.057,3.128-13.909,2.687-13.909,2.687L1635.268,948.085z"/>
			<use xlink:href="#XMLID_15_"  overflow="visible" fill="none" stroke="#000000" stroke-width="1.3679" stroke-miterlimit="10"/>
		</g>
	</g>
	<g>
		<g>
			<path stroke="#000000" stroke-width="1.3679" stroke-miterlimit="10" d="M1713.28,941.737c0,0-9.794-0.147-13.81,0.015
				c-4.111,0.166-8.052,0.131-23.124,2.665c-17.33,2.914-27.179,4.264-53.654,10.147c0,0-14.247,2.974-4.945,3.544
				c0,0,15.444,1.66,55.711,0.341c0,0,10.771,0.061,27.202-3.995"/>
			<g>
				<defs>
					<path id="XMLID_14_" d="M1690.474,943.1c0,0-25.798,3.828-52.878,9.49c0,0-13.518,2.484-5.594,3.185
						c7.834,0.693,26.355,2.063,49.204,0.79c20.544-1.145,36.756-5.674,36.756-5.674s11.651-2.987,16.063-3.978
						c4.206-0.945,14.492-3.522-2.649-3.643"/>
				</defs>
				<use xlink:href="#XMLID_14_"  overflow="visible"/>
				<clipPath id="XMLID_28_">
					<use xlink:href="#XMLID_14_"  overflow="visible"/>
				</clipPath>
				<use xlink:href="#XMLID_14_"  overflow="visible" fill="none" stroke="#000000" stroke-width="1.3679" stroke-miterlimit="10"/>
			</g>
			<path stroke="#000000" stroke-width="1.3679" stroke-miterlimit="10" d="M1665.117,954.208c2.56-0.608,6.334-1.092,8.468-1.094
				c2.117-0.002,1.89,0.472-0.542,1.07c-2.489,0.613-6.357,1.129-8.603,1.141C1662.176,955.337,1662.497,954.831,1665.117,954.208z"
				/>
		</g>
		<path stroke="#000000" stroke-width="1.3679" stroke-miterlimit="10" d="M1736.18,944.606c-0.577,0.165-1.425,0.294-1.891,0.286
			c-0.467-0.008-0.369-0.149,0.216-0.315c0.581-0.164,1.421-0.29,1.88-0.282C1736.843,944.304,1736.752,944.442,1736.18,944.606z"/>
		<path stroke="#000000" stroke-width="1.3679" stroke-miterlimit="10" d="M1700.576,942.64c-0.508,0.112-1.396,0.194-1.982,0.183
			c-0.588-0.011-0.645-0.112-0.13-0.224c0.513-0.112,1.398-0.192,1.978-0.181C1701.02,942.429,1701.081,942.528,1700.576,942.64z"/>
	</g>
	<g>
		<path stroke="#000000" stroke-width="1.3679" stroke-miterlimit="10" d="M1722.296,935.429c0,0,34.292-2.992,55.49-0.492
			C1777.786,934.937,1760.091,936.189,1722.296,935.429z"/>
		<path stroke="#000000" stroke-width="1.3679" stroke-miterlimit="10" d="M1729.539,934.371c0,0-3.394,5.024-36.881,11.667
			c-17.86,3.543-14.847,3.842-14.216,4.234c0,0,4.421,1.583,30.419-2.702c12.336-2.033,18.471-3.022,18.471-3.022
			s26.911-4.739,46.815-10.898C1774.148,933.65,1756.393,932.651,1729.539,934.371z"/>
		<g>
			<defs>
				<path id="XMLID_13_" d="M1755.574,928.948c0,0-16.162,1.957-33.873,6.46c0,0,34.313-2.969,56.085-0.471
					c0,0,16.497-5.622,10.539-7.12c-1.699,0.158-16.557,0.031-24.095,0.652C1758.484,928.943,1755.574,928.948,1755.574,928.948z"/>
			</defs>
			<use xlink:href="#XMLID_13_"  overflow="visible"/>
			<clipPath id="XMLID_29_">
				<use xlink:href="#XMLID_13_"  overflow="visible"/>
			</clipPath>
			<path clip-path="url(#XMLID_29_)" stroke="#000000" stroke-width="1.3679" stroke-miterlimit="10" d="M1788.015,931.207
				c0,0-4.547-1.766-11.11-0.122c0,0-0.857,0.854-6.981,0.92c0,0-7.396,0.425-7.39,2.365c0.007,2.097,16.772,1.373,16.772,1.373
				L1788.015,931.207z"/>
			<path clip-path="url(#XMLID_29_)" stroke="#000000" stroke-width="1.3679" stroke-miterlimit="10" d="M1769.455,934.41
				c0,0,2.175-2.465,17.8-2.382c14.15,0.076-6.275,3.781-6.275,3.781L1769.455,934.41z"/>
			<path clip-path="url(#XMLID_29_)" stroke="#000000" stroke-width="1.3679" stroke-miterlimit="10" d="M1730.341,932.569
				c0,0,7.172,1.222,16.154-0.225c0,0,2.246-0.263,5.276-0.086c0,0,4.291-0.078,5.426-1.094c0,0,4.031-1.578,10.137-1.406
				c0,0,8.495,0.422,3.728-1.716c-4.483-2.011-20.418,0.963-20.418,0.963L1730.341,932.569z"/>
			<path clip-path="url(#XMLID_29_)" stroke="#000000" stroke-width="1.3679" stroke-miterlimit="10" d="M1759.31,928.681
				c0,0-0.563,2.448-16.931,2.03c-17.87-0.456,9.885-1.991,9.885-1.991L1759.31,928.681z"/>
			<use xlink:href="#XMLID_13_"  overflow="visible" fill="none" stroke="#000000" stroke-width="1.3679" stroke-miterlimit="10"/>
		</g>
	</g>
	<path stroke="#000000" stroke-width="1.3679" stroke-miterlimit="10" d="M1755.294,926.989c0,0,10.506-0.935,4.205,0.425
		c-7.033,1.518-10.061,1.926-9.339,1.892c15.797-0.74,37.186-1.204,38.924-1.499l0.85-0.273"/>
	<g>
		<path stroke="#000000" stroke-width="1.3679" stroke-miterlimit="10" d="M1778.376,922.112c0,0-8.716,0.687-5.853,1.263
			c2.882,0.579,7.625,0.536,10.769,0.074L1778.376,922.112z"/>
		<path stroke="#000000" stroke-width="1.3679" stroke-miterlimit="10" d="M1773.367,921.557c0,0,2.827,0.196,2.71,0.771
			c-0.121,0.594,2.347-0.096,2.347-0.096s-1.18-0.584-2.011-0.651C1775.579,921.513,1773.367,921.557,1773.367,921.557z"/>
		<path stroke="#000000" stroke-width="1.3679" stroke-miterlimit="10" d="M1776.532,922.492l-1.092,0.206
			c0,0,3.655,0.134,4.828,0.427C1781.449,923.42,1779.678,922.445,1776.532,922.492z"/>
	</g>
	<g>
		<g>
			<defs>
				<path id="XMLID_12_" d="M1793.631,921.009c0,0,4.353-0.309,6.656,0.124c2.601,0.489,4.755,0.958,5.314,2.293
					c0.082,0.195-2.684,0.351-3.798,0.433C1800.672,923.942,1793.631,921.009,1793.631,921.009z"/>
			</defs>
			<use xlink:href="#XMLID_12_"  overflow="visible"/>
			<clipPath id="XMLID_30_">
				<use xlink:href="#XMLID_12_"  overflow="visible"/>
			</clipPath>
			<g clip-path="url(#XMLID_30_)">
				<line stroke="#000000" stroke-width="1.3679" stroke-miterlimit="10" x1="1802.127" y1="921.383" x2="1797.862" y2="922.248"/>
				<line stroke="#000000" stroke-width="1.3679" stroke-miterlimit="10" x1="1800.066" y1="920.838" x2="1795.735" y2="921.671"/>
				<line stroke="#000000" stroke-width="1.3679" stroke-miterlimit="10" x1="1796.112" y1="921.71" x2="1804.123" y2="921.965"/>
				<line stroke="#000000" stroke-width="1.3679" stroke-miterlimit="10" x1="1793.933" y1="921.111" x2="1801.949" y2="921.383"/>
			</g>
			<g clip-path="url(#XMLID_30_)">
				<line stroke="#000000" stroke-width="1.3679" stroke-miterlimit="10" x1="1804.826" y1="922.101" x2="1800.337" y2="923.013"/>
				<line stroke="#000000" stroke-width="1.3679" stroke-miterlimit="10" x1="1798.087" y1="922.329" x2="1806.218" y2="922.679"/>
			</g>
			<g clip-path="url(#XMLID_30_)">
				<line stroke="#000000" stroke-width="1.3679" stroke-miterlimit="10" x1="1805.525" y1="922.867" x2="1801.943" y2="923.876"/>
				<line stroke="#000000" stroke-width="1.3679" stroke-miterlimit="10" x1="1799.618" y1="923.303" x2="1806.684" y2="923.34"/>
			</g>
			<use xlink:href="#XMLID_12_"  overflow="visible" fill="none" stroke="#000000" stroke-width="1.3679" stroke-miterlimit="10"/>
		</g>
		<path stroke="#000000" stroke-width="1.3679" stroke-miterlimit="10" d="M1787.933,921.001c0,0,5.057-0.423,7.132,0.138
			c2.105,0.569,7.093,2.503,6.998,2.738c-0.097,0.239-3.305,0.432-4.675,0.535C1795.993,924.517,1787.933,921.001,1787.933,921.001z
			"/>
		<g>
			<defs>
				<path id="XMLID_11_" d="M1780.376,920.461c0,0,14.3,1.676,14.44,5.052c0,0,4.053-0.364,3.419-1.043
					c-0.614-0.659-3.924-2.65-10.625-3.71C1787.61,920.76,1783.455,920.242,1780.376,920.461z"/>
			</defs>
			<use xlink:href="#XMLID_11_"  overflow="visible"/>
			<clipPath id="XMLID_31_">
				<use xlink:href="#XMLID_11_"  overflow="visible"/>
			</clipPath>
			<g clip-path="url(#XMLID_31_)">
				<line stroke="#000000" stroke-width="1.3679" stroke-miterlimit="10" x1="1786.265" y1="920.466" x2="1784.436" y2="921.193"/>
				<line stroke="#000000" stroke-width="1.3679" stroke-miterlimit="10" x1="1782.365" y1="920.733" x2="1788.467" y2="920.893"/>
			</g>
			<g clip-path="url(#XMLID_31_)">
				<line stroke="#000000" stroke-width="1.3679" stroke-miterlimit="10" x1="1789.647" y1="921.141" x2="1787.911" y2="921.892"/>
				<line stroke="#000000" stroke-width="1.3679" stroke-miterlimit="10" x1="1785.818" y1="921.427" x2="1791.867" y2="921.572"/>
			</g>
			<g clip-path="url(#XMLID_31_)">
				<line stroke="#000000" stroke-width="1.3679" stroke-miterlimit="10" x1="1793.259" y1="921.885" x2="1791.088" y2="922.826"/>
				<line stroke="#000000" stroke-width="1.3679" stroke-miterlimit="10" x1="1788.856" y1="922.275" x2="1795.638" y2="922.389"/>
			</g>
			<g clip-path="url(#XMLID_31_)">
				<line stroke="#000000" stroke-width="1.3679" stroke-miterlimit="10" x1="1796.047" y1="922.895" x2="1791.762" y2="923.544"/>
				<line stroke="#000000" stroke-width="1.3679" stroke-miterlimit="10" x1="1791.81" y1="922.943" x2="1797.494" y2="923.555"/>
			</g>
			<g clip-path="url(#XMLID_31_)">
				<line stroke="#000000" stroke-width="1.3679" stroke-miterlimit="10" x1="1797.632" y1="923.618" x2="1793.432" y2="924.728"/>
				<line stroke="#000000" stroke-width="1.3679" stroke-miterlimit="10" x1="1792.643" y1="924.038" x2="1798.788" y2="924.127"/>
			</g>
			<g clip-path="url(#XMLID_31_)">
				<line stroke="#000000" stroke-width="1.3679" stroke-miterlimit="10" x1="1798.366" y1="924.611" x2="1793.936" y2="925.346"/>
				<line stroke="#000000" stroke-width="1.3679" stroke-miterlimit="10" x1="1794.014" y1="924.688" x2="1798.592" y2="925.241"/>
			</g>
			<use xlink:href="#XMLID_11_"  overflow="visible" fill="none" stroke="#000000" stroke-width="1.3679" stroke-miterlimit="10"/>
		</g>
	</g>
	<path stroke="#000000" stroke-width="1.3679" stroke-miterlimit="10" d="M1745.517,925.199c0,0-51.166,10.325-45.983,17.436"/>
	<path stroke="#000000" stroke-width="1.3679" stroke-miterlimit="10" d="M1759.613,937.653c0,0-17.33,5.557-24.396,6.937"/>
	<g>
		<path stroke="#000000" stroke-width="1.3679" stroke-miterlimit="10" d="M1667.61,940.246c0,0,16.192-0.023,20.441-0.68
			c4.091-0.633,26.829-3.644,31.203-5.282c4.051-1.517-21.216-3.276-31.591-2.974"/>
		<path stroke="#000000" stroke-width="1.3679" stroke-miterlimit="10" d="M1687.663,931.31c0,0-48.178,3.963-48.457,5.401
			c-0.291,1.499,13.385,3.279,26.828,3.536c12.791,0.245,51.299-5.414,42.043-6.52
			C1698.713,932.609,1704.333,932.157,1687.663,931.31z"/>
		<path stroke="#000000" stroke-width="1.3679" stroke-miterlimit="10" d="M1650.595,934.804c0,0,8.281,1.639,20.479,1.712
			c11.573,0.069,23.308-2.524,24.685-2.881c1.352-0.35-12.58-1.964-14.737-2.049
			C1678.848,931.501,1650.595,934.804,1650.595,934.804z"/>
		<path stroke="#000000" stroke-width="1.3679" stroke-miterlimit="10" d="M1670.803,933.642c8.016-0.885,12.638-1.761,10.786-2.009
			c-1.855-0.248-9.677,0.203-17.948,1.059c-8.854,0.916-14.781,1.933-12.659,2.212
			C1653.1,935.182,1662.225,934.589,1670.803,933.642z"/>
		<path stroke="#000000" stroke-width="1.3679" stroke-miterlimit="10" d="M1668.972,933.554c5.947-0.657,9.506-1.301,8.203-1.467
			c-1.304-0.166-7.08,0.198-13.161,0.841c-6.392,0.676-10.648,1.397-9.206,1.577
			C1656.249,934.685,1662.721,934.245,1668.972,933.554z"/>
		<path stroke="#000000" stroke-width="1.3679" stroke-miterlimit="10" d="M1686.183,932.086c0,0-6.754,1.527-13.847,2.242"/>
		<path stroke="#000000" stroke-width="1.3679" stroke-miterlimit="10" d="M1691.596,932.76c0,0-3.249,1.696-25.46,3.637"/>
		<path stroke="#000000" stroke-width="1.3679" stroke-miterlimit="10" d="M1699.202,934.315c0,0-5.146,0.34-5.3,0.747
			c-0.156,0.413,3.877,0.441,4.616,0.557s6.884-0.989,6.884-0.989L1699.202,934.315z"/>
		<path stroke="#000000" stroke-width="1.3679" stroke-miterlimit="10" d="M1690.336,936.181c0,0-3.342-0.352-6.656,0.51"/>
		<path stroke="#000000" stroke-width="1.3679" stroke-miterlimit="10" d="M1662.588,939.4c0,0,7.979,0.751,18.775-0.746"/>
		<path stroke="#000000" stroke-width="1.3679" stroke-miterlimit="10" d="M1693.92,931.639c0,0-2.166,0.004-3.387-0.212
			c-3.232,0.099,51.259-6.105,54.339-6.211C1744.872,925.216,1710.387,928.786,1693.92,931.639z"/>
		<path stroke="#000000" stroke-width="1.3679" stroke-miterlimit="10" d="M1708.447,933.777c0,0,1.975,0.333,1.026,0.75
			c0,0,38.614-4.399,64.547-6.107C1774.021,928.42,1729.379,931.563,1708.447,933.777z"/>
	</g>
</g>
<g id="Layer_1">
	<g>
		<g>
			<path fill="#F1F1F2" stroke="#231F20" stroke-width="1.3679" stroke-linejoin="round" stroke-miterlimit="10" d="
				M1357.224,937.016c0,0,8.515,20.345,8.26,29.332c-0.255,8.987,21.405,10.671,21.405,10.671s11.485-13.263,5.498-39.589
				C1386.4,911.103,1357.224,937.016,1357.224,937.016z"/>
			<path fill="#F1F1F2" stroke="#231F20" stroke-width="1.3679" stroke-linejoin="round" stroke-miterlimit="10" d="
				M1407.715,935.688c0,0,7.08,16.524,3.767,29.205c-3.313,12.68,26.691,12.817,26.691,12.817s17.588-31.252,16.295-43.103
				S1407.715,935.688,1407.715,935.688z"/>
		</g>
		<g>
			<path fill="#252D37" stroke="#231F20" stroke-width="1.3679" stroke-linejoin="round" stroke-miterlimit="10" d="
				M1335.787,972.994c0,0,12.58-15.739,20.056-16.232s24.592,12.842,32.632,13.062c3.121,0.085-0.325,3.571-0.325,3.571
				S1341.933,973.144,1335.787,972.994z"/>
			<path fill="#754C28" stroke="#231F20" stroke-width="1.3679" stroke-linejoin="round" stroke-miterlimit="10" d="
				M1334.731,973.754l0.268,3.963c0,0,46.784-1.999,53.675,0.107l0.333-4.584C1389.008,973.239,1356.965,972.252,1334.731,973.754z"
				/>
			<path fill="#8A5D3B" stroke="#231F20" stroke-width="1.3679" stroke-linejoin="round" stroke-miterlimit="10" d="
				M1375.251,964.652c1.13,1.232,1.281,9.932,1.281,9.932s4.829-0.231,5.836,0.268c1.007,0.499-1.136-8.808-1.136-8.808
				S1374.122,963.42,1375.251,964.652z"/>
			<path fill="#8A5D3B" stroke="#231F20" stroke-width="1.3679" stroke-linejoin="round" stroke-miterlimit="10" d="
				M1349.661,957.547c0,0,3.17,14.831,3.1,16.725c-0.07,1.894,4.272,0.234,4.272,0.234s0.978-16.778-1.419-21.967L1349.661,957.547z
				"/>
		</g>
		<g>
			<path fill="#252D37" stroke="#231F20" stroke-width="1.3679" stroke-linejoin="round" stroke-miterlimit="10" d="
				M1385.703,977.564c0,0,14.347-17.874,21.823-18.367s28.577,13.341,31.642,13.937c3.064,0.595-0.48,3.566-0.48,3.566
				S1391.849,977.714,1385.703,977.564z"/>
			<path fill="#8A5D3B" stroke="#231F20" stroke-width="1.3679" stroke-linejoin="round" stroke-miterlimit="10" d="
				M1384.39,977.734l0.687,5.324c0,0,47.851-4.593,55.148-2.039l-0.134-6.184C1440.09,974.834,1407.073,974.808,1384.39,977.734z"/>
			<path fill="#8A5D3B" stroke="#231F20" stroke-width="1.3679" stroke-linejoin="round" stroke-miterlimit="10" d="
				M1430.997,967.517c0,0,1.963,8.117,1.281,9.932c-0.681,1.815,5.836,0.268,5.836,0.268s0.308-6.755-1.136-8.808
				C1435.534,966.856,1430.997,967.517,1430.997,967.517z"/>
			<path fill="#8A5D3B" stroke="#231F20" stroke-width="1.3679" stroke-linejoin="round" stroke-miterlimit="10" d="
				M1398.514,963.745c0,0,3.784,12.465,3.714,14.359c-0.07,1.894,4.68-0.25,4.68-0.25s0.249-13.54-2.148-18.729L1398.514,963.745z"
				/>
		</g>
	</g>
	<g>
		<path fill="#252D37" stroke="#231F20" stroke-width="1.3679" stroke-miterlimit="10" d="M1454.46,934.548
			c0,0,21.426,43.455,55.249,38.052c0,0,12.681,0.187,4.437-10.207c-8.245-10.394-22.357-39.889-16.461-55.327
			S1454.46,934.548,1454.46,934.548z"/>
		<path fill="#F1F1F2" stroke="#231F20" stroke-width="1.3679" stroke-linejoin="round" stroke-miterlimit="10" d="
			M1305.485,839.144c0,0-6.683,27.96-7.299,31.103l6.421-8.683c0,0-1.755,18.056-2.354,20.726l2.612-4.107
			c0,0,1.196,9.271-0.499,10.747s9.795,46.717,18.644,49.548c0,0,1.369-5.826,3.242-5.007c1.873,0.819,8.803,8.879,17.925,6.525
			c0,0,2.912,0.331,3.493,2.259c0,0,2.043-2.266,3.509-1.866s21.29,10.308,62.808,5.566c42.883-4.898,9.336-35.408,9.336-35.408
			l-31.672-50.075L1305.485,839.144z"/>
		<path fill="#252D37" stroke="#231F20" stroke-width="1.3679" stroke-miterlimit="10" d="M1399.89,874.41
			c0,0-5.026,1.542-7.47,4.812c-2.914,3.9-0.432,10.659,3.74,10.121c3.4-0.438,2.48,2.48,2.655,5.666
			c0.209,3.798-0.314,1.219,5.111,3.625c3.523,1.563-1.315,8.141-2.667,9.844c0,0-0.411,2.292,3.483,1.122
			c1.867-0.561,3.078,4.944,3.078,4.944s0.562-1.172,0.239,1.854s1.229,5.183,1.647,5.443s1.784,3.54,1.784,3.54
			s2.562,2.811,0.877,6.799c-1.685,3.988-2.014,8.743-2.014,8.743s-0.568,2.901,1.136,3.938c1.705,1.037-1.964,1.824-1.964,1.824
			s67.859,7.271,90.88-35.913S1404.058,871.043,1399.89,874.41z"/>
	</g>
	<g>
		<path fill="#1B3419" stroke="#231F20" stroke-width="1.3679" stroke-miterlimit="10" d="M1299.635,755.329
			c0,0-3.095,4.066-5.095-39.504c-2-43.571,17.527-2.26,17.527-2.26L1299.635,755.329z"/>
		<path fill="#252D37" stroke="#231F20" stroke-width="1.3679" stroke-miterlimit="10" d="M1309.951,666.71
			c0,0,6.632,62.469-0.692,70.152c0,0-35.878-12.653-46.084-52.809s-0.576-48.31-0.576-48.31S1284.969,663.02,1309.951,666.71z"/>
		<path fill="#99CE83" stroke="#231F20" stroke-width="1.3679" stroke-miterlimit="10" d="M1328.219,762.065
			c0,0-21.916,3.032-28.827-6.704c0,0,19.33-49.881,10.559-88.651c0,0,4.117-4.615,13.498,2.344s11.305,4.826,14.006,3.849
			S1328.219,762.065,1328.219,762.065z"/>
		<g>
			<defs>
				<path id="XMLID_10_" d="M1228.917,630.976c0,0,7.646,50.147,12.894,57.953c0,0,1.158,7.155,33.25-7.116
					c0,0-9.246-51.59-11.421-59.321c0,0-0.465-7.716-10.218-3.631C1253.422,618.861,1232.379,626.759,1228.917,630.976z"/>
			</defs>
			<use xlink:href="#XMLID_10_"  overflow="visible" fill="#F1F1F2"/>
			<clipPath id="XMLID_32_">
				<use xlink:href="#XMLID_10_"  overflow="visible"/>
			</clipPath>
			<path clip-path="url(#XMLID_32_)" fill="#26A9E0" stroke="#231F20" stroke-width="1.3679" stroke-miterlimit="10" d="
				M1234.001,633.855c0,0,7.736,43.538,10.069,47.007c2.333,3.469,20.068-5.18,21.713-7.042s-6.018-46.945-8.109-50.087
				C1253.781,621.643,1235.354,631.56,1234.001,633.855z"/>
			
				<circle clip-path="url(#XMLID_32_)" fill="#929497" stroke="#231F20" stroke-width="1.3679" stroke-miterlimit="10" cx="1258.829" cy="682.022" r="2.717"/>
			<path clip-path="url(#XMLID_32_)" fill="#E6E7E8" stroke="#231F20" stroke-width="1.3679" stroke-miterlimit="10" d="
				M1238.18,637.636c0,0,0.448,5.912,2.133,6.794c1.685,0.882,4.207-1.485,4.611-2.008c0.404-0.523-1.226-7.068-1.226-7.068
				L1238.18,637.636z"/>
			
				<line clip-path="url(#XMLID_32_)" fill="#E6E7E8" stroke="#231F20" stroke-width="1.3679" stroke-miterlimit="10" x1="1248.164" y1="635.877" x2="1254.062" y2="632.883"/>
			
				<line clip-path="url(#XMLID_32_)" fill="#E6E7E8" stroke="#231F20" stroke-width="1.3679" stroke-miterlimit="10" x1="1250.537" y1="639.655" x2="1255.833" y2="637.559"/>
			
				<line clip-path="url(#XMLID_32_)" fill="#E6E7E8" stroke="#231F20" stroke-width="1.3679" stroke-miterlimit="10" x1="1254.349" y1="646.076" x2="1259.464" y2="644.316"/>
			<use xlink:href="#XMLID_10_"  overflow="visible" fill="none" stroke="#231F20" stroke-width="1.3679" stroke-miterlimit="10"/>
		</g>
		<path fill="#252D37" stroke="#231F20" stroke-width="1.3679" stroke-miterlimit="10" d="M1279.289,684.646
			c0,0-15.74-8.652-23.315-23.541s7.133-4.376,7.133-4.376s14.704,9.257,17.196,9.093"/>
		<g>
			<circle fill="none" stroke="#231F20" stroke-width="1.3679" stroke-miterlimit="10" cx="1239.221" cy="612.21" r="2.571"/>
			<path fill="none" stroke="#231F20" stroke-width="1.3679" stroke-miterlimit="10" d="M1231.011,610.677
				c0,0,3.874-10.161,12.187-4.164"/>
			<path fill="none" stroke="#231F20" stroke-width="1.3679" stroke-miterlimit="10" d="M1225.927,607.798
				c0,0,6.236-13.764,16.404-8.007"/>
			<path fill="none" stroke="#231F20" stroke-width="1.3679" stroke-miterlimit="10" d="M1223.991,601.921
				c0,0,4.532-12.366,20.15-6.369"/>
		</g>
	</g>
	<path fill="#8E702B" stroke="#231F20" stroke-width="1.3679" stroke-miterlimit="10" d="M1337.094,531.252
		c0,0,63.251,44.625,122.087,67.198C1459.181,598.45,1426.895,535.693,1337.094,531.252z"/>
	<g>
		<defs>
			<path id="XMLID_7_" d="M1349.687,622.848c0,0,7.333-17.643-9.776-21.033c-13.774-2.729-12.858-4.693-18.621-7.961
				c-5.763-3.268-30.302-4.334-43.668,3.276c-13.366,7.609,14.887-15.71,20.517-17.732s5.578-4.254,33.366-10.783
				c0,0,10.83-2.811,24.091-14.182s17.556-13.693,29.661-16.668c12.105-2.975,23.391-0.425,32.258,13.512
				s7.708,23.228,12.563,33.465c4.855,10.238,12.921,34.411,19.396,37.11c6.475,2.699-66.83,46.936-66.83,46.936L1349.687,622.848z"
				/>
		</defs>
		<use xlink:href="#XMLID_7_"  overflow="visible" fill="#252D37"/>
		<clipPath id="XMLID_33_">
			<use xlink:href="#XMLID_7_"  overflow="visible"/>
		</clipPath>
		<path clip-path="url(#XMLID_33_)" fill="#F05A28" stroke="#231F20" stroke-width="1.3679" stroke-miterlimit="10" d="
			M1253.039,590.966c0,0,63.349-28.147,85.692-16.121c21.587,11.62-11.432,26.005-49.939,33.564"/>
		<g clip-path="url(#XMLID_33_)">
			<defs>
				<path id="XMLID_8_" d="M1365.192,573.106c0,0,2.584-7.167,9.667-15.385s23.831-17.212,19.284,5.996
					c0,0-3.095,16.198-10.58,22.106"/>
			</defs>
			<use xlink:href="#XMLID_8_"  overflow="visible" fill="#F1F1F2"/>
			<clipPath id="XMLID_34_">
				<use xlink:href="#XMLID_8_"  overflow="visible"/>
			</clipPath>
			<g clip-path="url(#XMLID_34_)">
				<defs>
					<path id="XMLID_9_" d="M1383.891,578.017c0,0,11.95-32.192-14.138-17.046c-26.087,15.147-10.364,10.998-10.364,10.998
						l20.816,7.93L1383.891,578.017z"/>
				</defs>
				<use xlink:href="#XMLID_9_"  overflow="visible" fill="#231F20"/>
				<clipPath id="XMLID_35_">
					<use xlink:href="#XMLID_9_"  overflow="visible"/>
				</clipPath>
				
					<ellipse transform="matrix(0.9918 -0.1279 0.1279 0.9918 -61.5068 180.0022)" clip-path="url(#XMLID_35_)" fill="#F1F1F2" cx="1370.663" cy="568.866" rx="2.678" ry="2.337"/>
				<use xlink:href="#XMLID_9_"  overflow="visible" fill="none" stroke="#231F20" stroke-width="1.3679" stroke-miterlimit="10"/>
			</g>
			<use xlink:href="#XMLID_8_"  overflow="visible" fill="none" stroke="#231F20" stroke-width="1.3679" stroke-miterlimit="10"/>
		</g>
		<path clip-path="url(#XMLID_33_)" fill="none" stroke="#231F20" stroke-width="1.3679" stroke-miterlimit="10" d="
			M1277.622,597.13c0,0,23.979-17.686,50.279-10.485c0,0,24.012,3.266,16.064-8.209"/>
		<use xlink:href="#XMLID_7_"  overflow="visible" fill="none" stroke="#231F20" stroke-width="1.3679" stroke-miterlimit="10"/>
	</g>
	
		<linearGradient id="SVGID_1_" gradientUnits="userSpaceOnUse" x1="1375.0919" y1="752.9186" x2="1350.787" y2="665.3582" gradientTransform="matrix(0.9918 -0.1279 0.1279 0.9918 -57.6879 122.4497)">
		<stop  offset="0" style="stop-color:#FFFFFF"/>
		<stop  offset="0.8006" style="stop-color:#F9EC31"/>
		<stop  offset="1" style="stop-color:#F05A28"/>
	</linearGradient>
	<path fill="url(#SVGID_1_)" stroke="#231F20" stroke-width="1.3679" stroke-miterlimit="10" d="M1337.864,663.895l10.194-34.013
		c0,0,4.453-20.502,18.16-4.361s25.651-3.308,28.372-9c2.722-5.692,15.158-48.121,31.285-20.52c0,0,12.37,15.518,2.849,22.087
		c-9.521,6.569-17.466,10.736-27.824,10.815c-10.358,0.079-18.697,13.659-4.704,23.354c13.993,9.694-20.532,46.508-20.532,46.508
		l-24.974,28.042L1337.864,663.895z"/>
	<g>
		<g>
			<defs>
				<path id="XMLID_6_" d="M1333.223,638.259c3.279,2.795,11.499,26.07,12.064,27.994c6.886,23.483,11.827,51.88,11.827,51.88
					s39.28,121.854-0.577,129.508c-39.857,7.654-49.765-5.835-53.673-6.902s-5.852-3.958-1.236-9.58
					c4.616-5.622,12.126-61.887,12.126-61.887c0.69-31.193,22.26-109.379,22.26-109.379c-10.394-19.081-36.278-26.111-36.278-26.111
					c18.154-12.71,51.302-16.356,51.302-16.356s-8.126,31.088-7.513,43.755"/>
			</defs>
			<use xlink:href="#XMLID_6_"  overflow="visible" fill="#99CE83"/>
			<clipPath id="XMLID_36_">
				<use xlink:href="#XMLID_6_"  overflow="visible"/>
			</clipPath>
			<path clip-path="url(#XMLID_36_)" fill="#BECCE9" stroke="#231F20" stroke-width="1.3679" stroke-miterlimit="10" d="
				M1320.351,618.241c0,0,12.475,19.877-5.809,27.987s-23.247-8.451-23.247-8.451L1320.351,618.241z"/>
			<path clip-path="url(#XMLID_36_)" fill="#BECCE9" stroke="#231F20" stroke-width="1.3679" stroke-miterlimit="10" d="
				M1318.164,711.207c0,0,19.999-7.57,15.53,17.791c0,0,0.175,11.352,8.024,15.931c0,0,9.826,21.354-6.752,22.549
				s-29.807,1.622-29.807,1.622L1318.164,711.207z"/>
			<path clip-path="url(#XMLID_36_)" fill="#F2BCD6" stroke="#231F20" stroke-width="1.3679" stroke-miterlimit="10" d="
				M1313.783,737.832c0,0,23.598,14.882,4.761,25.951s-9.614,0.769-9.614,0.769L1313.783,737.832z"/>
			<use xlink:href="#XMLID_6_"  overflow="visible" fill="none" stroke="#231F20" stroke-width="1.3679" stroke-miterlimit="10"/>
		</g>
		<g>
			<defs>
				<path id="XMLID_5_" d="M1451.782,615.074l-63.914,37.934c0,0-12.322,6.773-15,18.901s-31.256,57.285-22.332,115.515
					l-4.474,42.049c0,0,2.377,14.774-5.25,21.413s-3.5,9.406,1.554,12.053c5.054,2.647,35.942,24.65,114.459,9.542
					c78.517-15.108,17.029-228.044,17.029-228.044s-2.815-21.321-15.31-34.162c0,0-3.05-4.162-9.789-2.822s-8.657,1.082-8.657,1.082
					l5.64,10.125L1451.782,615.074z"/>
			</defs>
			<use xlink:href="#XMLID_5_"  overflow="visible" fill="#99CE83"/>
			<clipPath id="XMLID_37_">
				<use xlink:href="#XMLID_5_"  overflow="visible"/>
			</clipPath>
			<path clip-path="url(#XMLID_37_)" fill="#BECCE9" stroke="#231F20" stroke-width="1.3679" stroke-miterlimit="10" d="
				M1400.366,643.031c0,0,7.139,1.41,7.864,8.901c0.708,7.313,12.186,5.497,15.298-1.973c3.111-7.47,12.386-5.771,18.282-5.322
				c5.896,0.449,8.692-9.845,16.999-11.618c8.37-1.786,2.091-13.937-4.564-10.722c-6.655,3.215-5.104-5.656-5.104-5.656
				L1400.366,643.031z"/>
			<path clip-path="url(#XMLID_37_)" fill="#F2BCD6" stroke="#231F20" stroke-width="1.3679" stroke-miterlimit="10" d="
				M1423.89,629.629c0,0,2.578,12.981,16.47,3.767c13.892-9.214,1.911-15.327-1.027-14.359"/>
			<path clip-path="url(#XMLID_37_)" fill="#BECCE9" stroke="#231F20" stroke-width="1.3679" stroke-miterlimit="10" d="
				M1366.9,876.152c0,0-6.007-26.245,24.777-23.932c0,0,11.078,3.912,16.92-9.723c0,0,11.463-9.019,26.955-0.963
				c15.491,8.056,1.851,48.46,1.851,48.46L1366.9,876.152z"/>
			<path clip-path="url(#XMLID_37_)" fill="#F2BCD6" stroke="#231F20" stroke-width="1.3679" stroke-miterlimit="10" d="
				M1395.224,879.725c0,0,5.553-25.223,26.981-11.335c21.428,13.888,1.024,14.635,1.024,14.635L1395.224,879.725z"/>
			<use xlink:href="#XMLID_5_"  overflow="visible" fill="none" stroke="#231F20" stroke-width="1.3679" stroke-miterlimit="10"/>
		</g>
	</g>
	<g>
		<g>
			<path fill="#A87C4F" stroke="#231F20" stroke-width="1.3679" stroke-miterlimit="10" d="M1454.722,826.966
				c0,0-16.783,2.636-21.663,4.993c-4.88,2.357-11.021,3.464-12.612,21.577c-1.591,18.114-4.498,26.029,2.584,52.921
				c0,0,2.125,11.606,15.277,12.482c0,0,26.253,3.797,67.999-5.043c0,0,14.617-1.103,15.248-19.384"/>
			<g>
				<defs>
					<path id="XMLID_4_" d="M1430.337,842.521c0,0-7.046,26.043-2.548,54.682c0,0-0.152,10.859,12.917,12.315
						c13.069,1.456,43.091,4.025,65.517-3.58c22.426-7.605,20.538-30.768,20.538-30.768s0.18-18.089,1.198-24.818
						c1.017-6.729,1.784-26.361-30.617-20.584"/>
				</defs>
				<use xlink:href="#XMLID_4_"  overflow="visible" fill="#A87C4F"/>
				<clipPath id="XMLID_38_">
					<use xlink:href="#XMLID_4_"  overflow="visible"/>
				</clipPath>
				<use xlink:href="#XMLID_4_"  overflow="visible" fill="none" stroke="#231F20" stroke-width="1.3679" stroke-miterlimit="10"/>
			</g>
			
				<ellipse transform="matrix(-0.9918 0.1279 -0.1279 -0.9918 3055.823 1600.9121)" fill="#D6DE23" stroke="#231F20" stroke-width="1.3679" stroke-miterlimit="10" cx="1476.505" cy="898.581" rx="5.129" ry="5.064"/>
		</g>
		
			<ellipse transform="matrix(0.9918 -0.1279 0.1279 0.9918 -94.5537 200.5504)" fill="#D6DE23" stroke="#231F20" stroke-width="1.3679" stroke-miterlimit="10" cx="1514.119" cy="836.428" rx="1.61" ry="2.181"/>
		
			<ellipse transform="matrix(0.9918 -0.1279 0.1279 0.9918 -95.2294 191.0828)" fill="#F9EC31" stroke="#231F20" stroke-width="1.3679" stroke-miterlimit="10" cx="1440.071" cy="836.955" rx="1.788" ry="1.471"/>
	</g>
	<g>
		<path fill="#1B3419" stroke="#231F20" stroke-width="1.3679" stroke-miterlimit="10" d="M1414.051,779.585
			c0,0,35.213-48.527,108.256-40.04C1522.307,739.546,1493.994,763.619,1414.051,779.585z"/>
		<path fill="#252D37" stroke="#231F20" stroke-width="1.3679" stroke-miterlimit="10" d="M1416.36,767.034
			c0,0,40.666,39.559,39.226,90.374c-0.594,20.97,5.467,21.681,8.894,23.281c0,0,16.169,6.005,26.359-19.737
			c5.696-14.388,8.938-22.046,8.938-22.046s13.516-42.587,1.427-109.52C1501.203,729.386,1451.129,733.331,1416.36,767.034z"/>
		<g>
			<defs>
				<path id="XMLID_3_" d="M1407.033,694.718c0,0-9.527,34.532,5.782,85.026c0,0,35.253-48.218,109.492-40.199
					c0,0-15.979-82.134-50.596-95.802c-2.59,4.429-41.847,20.596-51.56,36.676C1413.25,691.846,1407.033,694.718,1407.033,694.718z"
					/>
			</defs>
			<use xlink:href="#XMLID_3_"  overflow="visible" fill="#99CE83"/>
			<clipPath id="XMLID_39_">
				<use xlink:href="#XMLID_3_"  overflow="visible"/>
			</clipPath>
			<path clip-path="url(#XMLID_39_)" fill="#BECCE9" stroke="#231F20" stroke-width="1.3679" stroke-miterlimit="10" d="
				M1510.472,689.193c0,0-31.814-17.379-29.563,9.664c0,0,7.191,10.54-6.621,16.72c0,0-12.215,10.687,7.651,29.803
				s51.453,0.939,51.453,0.939L1510.472,689.193z"/>
			<path clip-path="url(#XMLID_39_)" fill="#F2BCD6" stroke="#231F20" stroke-width="1.3679" stroke-miterlimit="10" d="
				M1497.788,740.666c0,0-20.166-27.246,19.397-40.832c39.563-13.586,20.842,45.888,20.842,45.888L1497.788,740.666z"/>
			<path clip-path="url(#XMLID_39_)" fill="#BECCE9" stroke="#231F20" stroke-width="1.3679" stroke-miterlimit="10" d="
				M1399,751.162c0,0,26.183,6.016,28.416-13.359c0,0,1.673-4.222,9.807-4.799c0,0,8.149-4.114-0.62-15.472
				c0,0-9.506-20.924,6.351-24.854c0,0,25.106-3.474-12.315-25.039c-37.42-21.565-33.296,32.335-33.296,32.335L1399,751.162z"/>
			<path clip-path="url(#XMLID_39_)" fill="#F2BCD6" stroke="#231F20" stroke-width="1.3679" stroke-miterlimit="10" d="
				M1411.818,687.975c0,0,27.751,27.882-10.774,37.049c-38.524,9.168-3.836-29.745-3.836-29.745L1411.818,687.975z"/>
			<use xlink:href="#XMLID_3_"  overflow="visible" fill="none" stroke="#231F20" stroke-width="1.3679" stroke-miterlimit="10"/>
		</g>
	</g>
	<path fill="#99CE83" stroke="#231F20" stroke-width="1.3679" stroke-miterlimit="10" d="M1381.221,671.666
		c0,0,10.534-24.294,14.787,0.763s2.967,32.348,4.041,31.329c25.265-23.956,72.598-54.696,73.607-61.138l-1.148-5.122"/>
	<g>
		<path fill="#231F20" stroke="#231F20" stroke-width="1.3679" stroke-miterlimit="10" d="M1361.447,566.599
			c0,0-9.946,26.417,6.249,31.398s27.565-3.084,28.557-16.093L1361.447,566.599z"/>
		<path fill="#231F20" stroke="#231F20" stroke-width="1.3679" stroke-miterlimit="10" d="M1339.343,565.409
			c0,0,10.41-1.456,19.955,9.051c9.544,10.507,4.302-5.783,4.302-5.783s-13.04-8.534-16.304-8.27
			C1344.03,560.672,1339.343,565.409,1339.343,565.409z"/>
		<path fill="#E6E7E8" d="M1363.206,576.583l0.699,5.419c0,0,11.451-3.786,19.238-0.656
			C1390.929,584.475,1370.409,570.313,1363.206,576.583z"/>
	</g>
	<g>
		<g>
			<defs>
				<path id="XMLID_2_" d="M1383.639,514.696c0,0,7.32-16.73,22.31-12.296c16.849,4.984,31.833,10.524,55.313,37.718
					c3.295,3.816-3.132,12.4-5.367,16.148C1453.661,560.015,1383.639,514.696,1383.639,514.696z"/>
			</defs>
			<use xlink:href="#XMLID_2_"  overflow="visible" fill="#FFD79B"/>
			<clipPath id="XMLID_40_">
				<use xlink:href="#XMLID_2_"  overflow="visible"/>
			</clipPath>
			<g clip-path="url(#XMLID_40_)">
				
					<line fill="none" stroke="#231F20" stroke-width="1.3679" stroke-miterlimit="10" x1="1416.18" y1="503.772" x2="1417.913" y2="531.825"/>
				
					<line fill="none" stroke="#231F20" stroke-width="1.3679" stroke-miterlimit="10" x1="1399.895" y1="496.2" x2="1401.628" y2="524.253"/>
				
					<line fill="none" stroke="#231F20" stroke-width="1.3679" stroke-miterlimit="10" x1="1403.429" y1="524.267" x2="1432.662" y2="512.202"/>
				
					<line fill="none" stroke="#231F20" stroke-width="1.3679" stroke-miterlimit="10" x1="1386.369" y1="516.23" x2="1415.603" y2="504.165"/>
			</g>
			<g clip-path="url(#XMLID_40_)">
				
					<line fill="none" stroke="#231F20" stroke-width="1.3679" stroke-miterlimit="10" x1="1437.244" y1="513.622" x2="1438.089" y2="542.403"/>
				
					<line fill="none" stroke="#231F20" stroke-width="1.3679" stroke-miterlimit="10" x1="1419.953" y1="533.024" x2="1451.35" y2="523.114"/>
			</g>
			<g clip-path="url(#XMLID_40_)">
				
					<line fill="none" stroke="#231F20" stroke-width="1.3679" stroke-miterlimit="10" x1="1452.146" y1="528.632" x2="1456.598" y2="556.334"/>
				
					<line fill="none" stroke="#231F20" stroke-width="1.3679" stroke-miterlimit="10" x1="1440.496" y1="549.609" x2="1463.442" y2="536.112"/>
			</g>
			<use xlink:href="#XMLID_2_"  overflow="visible" fill="none" stroke="#231F20" stroke-width="1.3679" stroke-miterlimit="10"/>
		</g>
		<path fill="#404041" stroke="#231F20" stroke-width="1.3679" stroke-miterlimit="10" d="M1367.283,526.73
			c0,0,6.549-20.01,22.927-12.383c16.379,7.627,63.461,36.989,66.781,41.779s-3.619,14.336-6.201,18.669
			S1367.283,526.73,1367.283,526.73z"/>
		<g>
			<defs>
				<path id="XMLID_1_" d="M1337.094,531.252c0,0,69.434,4.869,122.087,67.198c0,0,6.811-12.964-4.992-24.093
					c-11.803-11.129-54.179-43.994-92.221-51.969C1361.968,522.388,1341.033,520.376,1337.094,531.252z"/>
			</defs>
			<use xlink:href="#XMLID_1_"  overflow="visible" fill="#FFD79B"/>
			<clipPath id="XMLID_41_">
				<use xlink:href="#XMLID_1_"  overflow="visible"/>
			</clipPath>
			<g clip-path="url(#XMLID_41_)">
				
					<line fill="none" stroke="#231F20" stroke-width="1.3679" stroke-miterlimit="10" x1="1352.814" y1="519.087" x2="1361.213" y2="537.755"/>
				
					<line fill="none" stroke="#231F20" stroke-width="1.3679" stroke-miterlimit="10" x1="1347.339" y1="532.707" x2="1366.795" y2="523.361"/>
			</g>
			<g clip-path="url(#XMLID_41_)">
				
					<line fill="none" stroke="#231F20" stroke-width="1.3679" stroke-miterlimit="10" x1="1374.602" y1="526.044" x2="1383.002" y2="544.712"/>
				
					<line fill="none" stroke="#231F20" stroke-width="1.3679" stroke-miterlimit="10" x1="1369.128" y1="539.664" x2="1388.583" y2="530.318"/>
			</g>
			<g clip-path="url(#XMLID_41_)">
				
					<line fill="none" stroke="#231F20" stroke-width="1.3679" stroke-miterlimit="10" x1="1398.058" y1="533.868" x2="1407.633" y2="556.703"/>
				
					<line fill="none" stroke="#231F20" stroke-width="1.3679" stroke-miterlimit="10" x1="1392.185" y1="550.364" x2="1413.614" y2="539.268"/>
			</g>
			<g clip-path="url(#XMLID_41_)">
				
					<line fill="none" stroke="#231F20" stroke-width="1.3679" stroke-miterlimit="10" x1="1423.172" y1="548.54" x2="1421.068" y2="568.902"/>
				
					<line fill="none" stroke="#231F20" stroke-width="1.3679" stroke-miterlimit="10" x1="1411.601" y1="557.574" x2="1438.015" y2="558.574"/>
			</g>
			<g clip-path="url(#XMLID_41_)">
				
					<line fill="none" stroke="#231F20" stroke-width="1.3679" stroke-miterlimit="10" x1="1439.419" y1="559.527" x2="1443.871" y2="587.229"/>
				
					<line fill="none" stroke="#231F20" stroke-width="1.3679" stroke-miterlimit="10" x1="1431.259" y1="576.353" x2="1450.714" y2="567.007"/>
			</g>
			<g clip-path="url(#XMLID_41_)">
				
					<line fill="none" stroke="#231F20" stroke-width="1.3679" stroke-miterlimit="10" x1="1456.667" y1="576.695" x2="1454.261" y2="597.023"/>
				
					<line fill="none" stroke="#231F20" stroke-width="1.3679" stroke-miterlimit="10" x1="1444.963" y1="585.555" x2="1466.454" y2="587.555"/>
			</g>
			<use xlink:href="#XMLID_1_"  overflow="visible" fill="none" stroke="#231F20" stroke-width="1.3679" stroke-miterlimit="10"/>
		</g>
	</g>
	<path fill="none" stroke="#231F20" stroke-width="1.3679" stroke-miterlimit="10" d="M1336.013,659.892
		c0,0,33.872,134.419,104.203,177.15"/>
	<path fill="none" stroke="#231F20" stroke-width="1.3679" stroke-miterlimit="10" d="M1506.128,776.383
		c0,0,10.509,48.881,7.748,60.076"/>
	<g>
		<path fill="#404041" stroke="#231F20" stroke-width="1.3679" stroke-miterlimit="10" d="M1375.14,833.998
			c0,0,22.102-5.549,22.593-10.954s8.503-35.853-0.329-50.737c-8.832-14.884-69.508-13.971-81.457-5.517"/>
		<path fill="#58595B" stroke="#231F20" stroke-width="1.3679" stroke-miterlimit="10" d="M1315.947,766.789
			c0,0-21.067,48.588-7.739,56.923c13.328,8.335,45.428,13.62,64.858,10.8c19.43-2.82,26.601-56.842,0.073-60.333
			S1350.45,763.91,1315.947,766.789z"/>
		<path fill="#404041" stroke="#231F20" stroke-width="1.3679" stroke-miterlimit="10" d="M1303.526,808.348
			c0,0,26.155,6.759,42.806,2.491c16.651-4.268,8.241-27.454,6.634-30.782s-39.404-8.04-43.363-7.519
			C1305.643,773.06,1303.526,808.348,1303.526,808.348z"/>
		
			<ellipse transform="matrix(0.9869 0.1614 -0.1614 0.9869 144.7393 -200.7032)" fill="#58595B" stroke="#231F20" stroke-width="1.3679" stroke-miterlimit="10" cx="1307.945" cy="790.697" rx="9.781" ry="18.353"/>
		
			<ellipse transform="matrix(0.9888 0.1495 -0.1495 0.9888 133.0199 -186.6009)" fill="#231F20" stroke="#231F20" stroke-width="1.3679" stroke-miterlimit="10" cx="1307.762" cy="791.536" rx="6.57" ry="13.429"/>
		<path fill="none" stroke="#231F20" stroke-width="1.3679" stroke-miterlimit="10" d="M1322.385,773.535
			c0,0,6.669,14.5,4.266,22.664"/>
		<path fill="none" stroke="#231F20" stroke-width="1.3679" stroke-miterlimit="10" d="M1337.538,775.718
			c0,0,12.847,13.966,1.108,36.332"/>
		<path fill="#404041" stroke="#231F20" stroke-width="1.3679" stroke-miterlimit="10" d="M1365.205,783.312
			c0,0-4.379,5.023-0.541,7.984c3.838,2.961,10.217,1.262,12.475,1.723s0.952-10.554,0.952-10.554L1365.205,783.312z"/>
		<path fill="none" stroke="#231F20" stroke-width="1.3679" stroke-miterlimit="10" d="M1370.264,800.615
			c0,0-8.274-0.884-4.811,6.21"/>
		<path fill="none" stroke="#231F20" stroke-width="1.3679" stroke-miterlimit="10" d="M1361.265,830.929
			c0,0,17.018,1.575,18.874-10.917"/>
		<path fill="#754C28" stroke="#231F20" stroke-width="1.3679" stroke-miterlimit="10" d="M1328.781,765.817
			c0,0-3.165,1.262-7.357,0.266c-3.586,2.583,9.028-100.528,13.551-105.252C1334.975,660.831,1320.962,730.773,1328.781,765.817z"/>
		<path fill="#603813" stroke="#231F20" stroke-width="1.3679" stroke-miterlimit="10" d="M1374.251,774.362
			c0,0,6.626,1.488,9.329,5.191c0,0,22.062-65.176,58.966-110.346C1442.545,669.206,1386.215,742.803,1374.251,774.362z"/>
	</g>
</g>
</svg>
