<svg id="Layer_1" data-name="Layer 1" xmlns="http://www.w3.org/2000/svg" viewBox="0 0 1920 1080"><defs><style>.cls-1{fill:#16a085;}</style></defs><title>landingBackNewYork</title><path class="cls-1" d="M122.5,943.83c8.85-2.68,10.87-8.59,10.63-17.59-0.69-26.49.3-53-.41-79.5-0.59-21.77.12-43.09,9.25-63.33l1.37,1.23c1.4,3.88,1.56,8,2.64,12,2.29,1.92,3.78,0,5.37-1.09a4.09,4.09,0,0,0,.73-0.55,14.72,14.72,0,0,1-2.66,1.39c-4.66-2-3.91-6.72-5.33-10.34a3.91,3.91,0,0,1,1.92-3.4c13.29,0.64,9.52-14.2,17-18.79,19.49-18.29,19.67-18.55,40.66-3.94,6.38,4.44,16,7.28,14.34,18.29-0.3,2,1.14,2.86,2.36,2.69,12.67-1.83,8.07,10.37,11.9,14,12.63,12.08,4.37,26.61,8.07,39.31-4.58-4.36-4.58-4.36-5.26-15.91-0.2-2-2.63.73-.87-0.18,0.47-.24.52,0.24,0.87,1.16,2.08,5.34-2.6,11.56,2.27,16.58,1.34,1.38,2.56,2.06,1.24.58a3.21,3.21,0,0,0,1.62-2.32c14.64-.83,26.17,3.53,30.66,19,1,3.29,2.32,5.49,5.89,4.85,8.71-1.57,12,1.64,12.17,10.7,0.08,5.36,6.08,5.18,10.51,5.58,8.61,0.79,17.43-1.84,25.85,1.69-5,2.08-10,3.82-15.35,2.14,3.35,1.76,6.57.43,9.78,0.09,3.23-.84,4.87,1.09,6.18,3.57,3.29,10.49-3.76,22.33,4.21,32.21,6,4.55,13.7-.27,19.86,3.48,0.21,10.23.36,20.45,0.65,30.68,0.1,3.59-1.29,8.47,5.34,7.49a5.31,5.31,0,0,1,6.13-.15c1.36,2.47.57,6.88,5.53,6.08,3.87-16.92,1.12-34.06,1.65-51.09,0.53-16.79.69-33.63-.1-50.4-0.46-9.85,2.68-13.26,12.47-12.59,5,0.34,10.71,2.4,15.53-1.49,5.67-6.1.89-14,3.46-20.59,5.53-17.36,2.83-35,1.49-52.53-1-8.1,4.18-8.43,10.17-8.36,14.31,0.17,28.62.06,40.33,0.06-15.45-.87-33.41,1.44-51.41-1.48,18.3-5.09,36.94-1.19,55.41-2,9.35-.42,6,7.43,6,12,0.22,47.45,0,94.9.25,142.35,0,5.42-2.55,11.91,6.1,17.76,0-25.51,0-49.24,0-73,0-34,0-34,34.29-34,22.38,0,22.38,0,22.4,22.56q0,11.86.06,23.72c-2.26,5.8,2.24,4.55,5.15,4.93,7.17,0.93,14.69-2,21.59,1.93-3.92,8.17,2.87,15.14,2.54,23-0.42,10.3.09,20.63-.18,30.76,0.13-14.62.4-29.06-.17-43.51,0.35-4.66.32-9.16-4.46-11.9-6.84-.76-13.7.05-20.52-0.49-2.58-.2-6.46-0.06-4.09-4.81,11.21,2.92,27-5.22,33.06,4.19,5.4,8.4,1.39,22.85,1.5,34.63,0,5.4.61,10.89-.13,16.19-1.45,10.42,1.5,19.48,7,28,4.05,3.81,8,3.73,11.7-.46a13.15,13.15,0,0,1,4-.85c3-.15,6-0.12,8.75,1.11,7.86,3.49,9.78-1.14,10.05-7.5,0.48-11.36,1.79-23-.25-34-2.24-12.11,6.74-21.58,4.75-33.66-0.85-5.15,8.53-4.65,13.65-5.81a8.68,8.68,0,0,1,4,1c1.56,6.08,6.3,6.47,11.43,6.69,5.79,0.24,11.79-1.25,17.32,1.69,4.2,1.92-.5,7.63,4,9.42a4,4,0,0,0,2.35.81C676.88,898,666,882.27,670.33,877c2.61-10.45-3.19-21.93,4-31.8,9-.4,18-1.55,26.91.68,4.36,8.33,2,17.3,2.19,26,0.45,25-.21,49.94.42,74.88,0.3,1.63.57,3.29,0.83,4.93-2.13,12.25-1,24.6-.82,36.9,0.4,1.29.82,2.61,1.26,3.9,0.43,4.78-2.43,9.82,1.07,14.4a14.07,14.07,0,0,1,1.67,3.4,13.21,13.21,0,0,1,.11,3.79c-0.81,5.37-1.46,10.75-.09,16.08a2.87,2.87,0,0,0,2,1.7,2.12,2.12,0,0,0,2.14-1.57c0.66-7.46-1.28-14.51-2.62-21.66-2-13.28,3.67-26.22,1.6-39.46-0.57-5.87,3.77-7.52,5.42-8.11a10.35,10.35,0,0,1-4.37-1.5,2,2,0,0,1,1.13-3.13c9.4,1.57,12.77-1.68,12.52-11.84-0.72-28.65.34-57.35-.47-86-0.37-13.23.11-23.9,17-24.11,10.69,1.92,21.37,2.78,32-.49,16.48-1.61,32.76-10,49.3,2.17,9.86,7.28,20.08,0,20.75-12.59,0.32-6-2.56-12.54,1.93-18.15,3.58,7-.63,15.17,2.7,22.25,0.81,1.88,1.91-1.35.33-.15C846.5,820,847,812.53,849,805l5.89-3.82a10.68,10.68,0,0,1,2.74-1.83,7.17,7.17,0,0,0,2.46-2.17c-0.58-15,1.13-30.09-1.48-45-1.1-5-.1-10.1-1.29-15.05a3.06,3.06,0,0,1,1-3.75c1.41-1.62,3.18-4.83,4.19-4.61,10.09,2.21,10.54,2.41,11.3-8.23,0.41-5.77,3.93-8.52,7.49-11.73a31,31,0,0,1,15.52,5.5c2.71,3.27,2.73,7.17,1.86,10.9-2,8.5,2.77,12.13,9.76,14.39,6.53,4.71,9.38,11,8.92,19.11-0.58,10.26.63,20.58-.56,30.63,1.28-16.22.18-32.23,0.22-48.26a11.6,11.6,0,0,1,2-4.2c1.32-1.41,2.65-1.43,4-.08-0.18,19.23-.27,38.47-0.6,57.7-0.1,5.65,1.24,7.8,7.68,9.59,13.51,3.74,27.41-1.14,40.57,3.49-10.61,3-21.53.57-32.25,1.63,6.21-.54,12.49.45,18.64-0.26,11.11-1.29,14,3.87,11.74,13.7-2.24,43.29-.74,86.61-0.84,129.91-0.05,23.55-1.76,47.16,1.22,70.59-2.26-4.77-1.29-9.78-1.3-14.65q-0.11-85.11-.05-170.22a169.44,169.44,0,0,1,2.91-30.64c4,4.19,1.83,9.35,1.84,14,0.17,67.18.05,134.35,0.26,201.53,0,4.3-3.22,10.57,3.61,12.67,5.54,1.7,9-2.25,13.61-5.23,9.47-6.09,10.92-13.33,10.75-23.32-0.51-29.63-.43-59.27,0-88.9,0.1-6.66-1-11.83-6.5-15.71,4.59-4.38-1.38-11.68,4.34-15.73,5.7,0.95,11.49.72,17.1,0.92-7.08-.38-14.16.36-20.64-3,3.11-3.71,7.29-1.66,10.95-1.82,10.08-.46,23.07,3.27,18.53-15.21-0.69-2.79,1.56-6.63,4.92-5.91,12,2.59,14.14-6.83,18.28-14-3.42-17.27,1.06-34.92-2.49-52.18,0.32-26.41,3.46-53-5.39-78.84-1.48-4.33-.65-9.91.5-14.57,2-8.25,3.5-15.89-.81-24.16-1.83-3.51-2.12-9.57-.29-12.94,10.69-19.67.94-39.06-.42-58.39-0.57-8.15-5.85-16.06-9.42-23.88-3.88-8.49-5.06-16.76.1-25.11,7.63-2.7,16.21-.06,23.57-4.22,3.11-1,6.2-.32,9.28.15a13.4,13.4,0,0,0,3.29-.31c2.74-2.18,1.93-4.7.66-7.25a15.7,15.7,0,0,1-1.63-3.27,44.38,44.38,0,0,1-.16-9.38,4.78,4.78,0,0,1,3.89-3.67c2.37-1,3.86-3.38,6.42-4.07,4.49-1,10.62,1.13,11.82-6.17,3.21-2,4.22,1.3,6.08,2.56l-0.31.46c5.07,1.13,10.07,2.37,12.94,7.36,2,0.89,3.37,2.11,2.29,4.55,4.06,9.74,4,20.25,2.89,30.15-1.09,10.07,2,18.15,8.6,23.84,9.52,8.18,14,18.16,17.53,29.72,4,13.33,13,15.71,20.92,5.47,4.48-5.81,7.5-5.34,11.39-1.51,4.54,4.46,14.84,2.72,12.86,14.6-2.41,14.5-3.23,28.81-18,37.1-1.63.91-1.81,4.39-2.66,6.68-1.39-.53-1.51-2.42-3-2.8a37.43,37.43,0,0,1,3.14,2.38c0.7,12.45-1.08,23.32-16,26.35-3.27.66-1.87,3.84-2.26,6a4.32,4.32,0,0,1-3.88,1.35c-1.53-.2-2.28-1.75-3.71-2.09-0.22,2.87,2.28,2.54,3.84,3.05,1.37,0.45,2.88,0,4.28-.42,3.49,24.31,10.67,48.62-.2,72.89-2.25-.17-1.49,2.06-2.37,3a2.4,2.4,0,0,0,2.37-1.17c2.31,8.78,4.56,16.71-.55,26.26-7.49,14-.69,36.65,11.71,47.52,1.05,0.92,2.47,2.41,2.37,3.51-2.56,28.75,18.63,12.7,29.63,15.78,4.73,7.59,2.85,15.49,1.07,23.38-6,1.72-6.47,6.22-6.44,11.52,0.15,32.58.53,65.17-.17,97.74-0.21,9.85,5.6,12.5,12.32,15.6,8.68-.87,4.21-7.34,4.35-11.23,1.42-37.85-1-75.75,1.4-113.6l1.46-2.94c3.53-3.37,9.24.55,12.48-3.75,2.82-3.48,2.69-7.7,3-11.85,0.25-46,0-91.92.11-137.85,0.06-24.46.1-24.46,24.79-24.79,2,0,3.95-.09,5.88-0.28,1.69,0.07,3.34-1.84,5.13-.19-1.54-2.33-3.13,0-4.68,0-10.52.22-21.06,1.76-31.5-.92l-1.61-1.74c29.07-1.77,58.12-4.31,87.21-4.71,6.66-.09,15.08.73,21.36,0.92,20.3,0.62,16.44,12.69,16.48,24.31a36.21,36.21,0,0,0,.94,5.79c2.84,5.44,11-1.19,13.15,5.76,1.59,27.4.07,54.83,0.77,82.08-0.18-24.1-.1-48,0-72,0-5.28-1-10.86,2.92-15.44,5.57,2,2.86,6.73,2.91,10.11,0.29,18.29,1.65,36.74-.26,54.83-2.34,22.2,9,42.61,6.22,64.56-0.41,3.27.9,5.52,4.81,5.88,6.32,0.58,8.31,4.42,6.91,10.34a409.6,409.6,0,0,0,0,74.17l0,3c-2.21,3.85-3.51,7.66.52,11.22,6.74,1.59,11.22,1.09,10.85-8-0.59-14.18.49-28.45-.37-42.6-0.64-10.49,1.65-15,13.39-14,13.36,1.08,26.9-.12,40.37-0.32a8.55,8.55,0,0,0,3.22-4.24c1.24-54.89.2-109.77,0.56-164.66,0-6.92-.28-13.85.35-20.76a9.52,9.52,0,0,1,2.48-4.89c30.52-.87,61-1.79,91.56-2.43,1.06,0,2.18,2.78,3.27,4.26-1.37,7-3.68,13.93.52,20.74,4.22,0.22,3-4.93,5.9-6,3.38-5.78-.47-12.56,2.55-18.39,0.43-1.92,2.77-5.38,2.78-4.1,0.26,29.15,20,53.18,21.19,81.92a39,39,0,0,0,.07,23.75c2.14,5.55-1.47,12.13,3.08,17.25,7.35,4.43,15.49,2.26,23,1.79,11-.7,14.34,2.63,14.18,14-0.66,47.51-.32,95-0.21,142.55,0,4.84-1.35,9.92,1.48,14.5-1.45,8.61.93,16,10,24.54V962.16c2.42,0.17,3.2,1.75,3.22,3.88,0.22,20,0,40,.17,60q0-29.68,0-59.36a9.68,9.68,0,0,0-3.38-7.78L1627,956c-1.5-2.73-2.25-5.39.63-7.76,9.18-.38,20.73,2.5,26.89-2,6.75-4.95,1.29-17.23,2.72-26.19,0.17-1.08,1.62-2,2.48-2.94a4.41,4.41,0,0,1,1.56,4c-0.48,5.64,1,11.42-.82,16.82,3.45-5.94-2.63-14.22,4.2-19.61,12.8-1.3,25.59-1.67,38.36,0,7.62,11.1,4.31,23.9,5.51,35.87a6.83,6.83,0,0,1,.15,1,2.35,2.35,0,0,0,1.08-.14c-1.88-7.05,3.88-14.4-1.34-21.11a17.87,17.87,0,0,1,.3-12.64c1.75-3,5.66-1.63,7.79-3.85,0.35-34.56,2.58-69.24.41-103.64-1.59-25.08,6.06-41.84,28.3-52.43,5.15-2.45,8.68-8.53,15.61-7,2.26,1.7,4,3.72,4.12,6.74,0.35,2.09-3.33,4.89-.07,6.05,5.34,1.91,7.31-3.12,9.94-6.4,12.79,2.63,16,8.24,9.75,17-2.84,3.95-.58,8.63-1.73,12.42,2.56-3.49-3.67-11.76,4.18-12.06,5.52-.21,6.58,7.13,6.53,11.69-0.11,10.76-3.05,21.39-2.13,32.26,0.3,3.47-3.59,9.93,5.54,7.44,1.14-.31,0,5.56,2.49,7.74,6.19,1.28,14.52-2.41,14.87,10,0.17,6.25,10.86-1.22,14.24,5-1.34,2.2.09,5.78-1.45,6.93-6.21,4.65,2.35,2.88,1.88,4.82q0,3-.07,6a56.48,56.48,0,0,0,0,26.65l0,8.94c-7.8-1.47-7.8-1.47-6.52-14-1.91,13.87-1.91,13.87,6.49,19.94l0.19,3c5.14,5.4,7.35,5.69,23.76,3.09,7.41,11.84,2.32,24.82,2.8,37.19,0.3,7.55,3,10.93,9.21,13.09-4,12.31.09,25.15-2,37.58,1.71-12.47-1.53-25.26,2-37.62,3.85,10.36.83,21.15,2,31.67,0.38,3.52-2.35,8.8,3,10,7.44,1.67,4.35-5.79,6.5-8.82,5.09-4.54,1.78-10.13,1.79-15.24q0.1-42.62,0-85.24c0-2.44-1-5.92.59-7.13,7-5.46-2-3.43-2.28-5.32,5.77-6.61,14.08-.51,20.46-4.08,6.7,1.07.08-4.86,3-5.76-1.54-4.53-5.57-9.24,1-13.16a2.81,2.81,0,0,1,3.93-1.19c13.18,0.53,26.36,1.21,39.52-.42,4.84-1.18,9.3-.94,12.66,3.39,6,18.65,2.33,37.82,2.35,56.69,0,11.87,2.33,17.34,15.08,15.38,6.25-1,12.6-.36,19-1.61,21.06-4.12,28.61,1.44,31.65,21.88,9.23,10.76,1.94,23.59,4.47,35.15,0.94,4.31-4.07,10.89,4.39,12.61,15.57-3.57,25.28,2.83,29.78,17.73,0.84,2.78,3,5.18,4.76,3.14,10.34-12.18,10.07-3.09,10,4.85-0.09,6.63,8.58,1.23,8.82,6.91-3.14,16.59-.92,33.32-1.31,50-0.79,33,1,66-.94,98.93-3.09,5.58-8.47,6.28-14,6.55-5.93.28-11.86,0.18-17.8,0.18q-331.52,0-663,0c-7.91,0-15.82.22-23.72-.38a28.47,28.47,0,0,1-5.77-1.07c-7.23-2.35-14.7-1.47-22.07-1.47q-246-.08-492.06-0.07c-8.38,0-16.81.67-25.12-1.09a20,20,0,0,1-5.34-2.31c-5.47-3.16-11.51-2.47-17.4-2.47q-382.92-.07-765.83,0c-4.45,0-8.91-.21-13.27.77a15.2,15.2,0,0,0-4.41,2.74,17,17,0,0,1-4.16,3.08,34.37,34.37,0,0,1-22.78.14,12.49,12.49,0,0,1-4.06-3.35c-2.46-3.43-2.28-7.41-2.28-11.32q-0.11-63.23.08-126.46c0-4.41.24-8.83,2.58-12.79,22.58-2.52,22.87-2.52,22.5-26.22C6.67,986.77,8.61,961,6,935.23c2.79-7.33,6.17-14.2,13.6-18,4-4.46,9.21-4.54,14.55-4.19,5.1,0.33,9.7-.19,11.37-6.19,0.49-32.27,0-64.51.27-96.76,0-4.79-1.27-9.79,1.38-14.35,23.75-1.42,47.5-2,71.24.27,3.21,13.61,1.2,27.41,1.36,41.11,0.36,31.06,0,62.13.25,93.2C120.09,934.78,117.37,940.14,122.5,943.83Z"/><path class="cls-1" d="M6,935.23c6.48,0.83,6.74,1,4.29,4.58-2.82,4.1-1.62,8.54-1.65,12.8-0.15,23.07-1,46.19.25,69.2,0.77,14.61-4.43,19.63-18.24,17.43a34.5,34.5,0,0,0-5.88,0c-2.79,28.89-1,57.85-1.45,86.78-0.24,17.19-.08,34.38,0,51.58,0,4.79-1.11,10.07,4.47,13h0a10.27,10.27,0,0,0,4.64,2.64c15.37,1.38,30.63-1.06,46-1q390.47,0.24,780.94.08c416.25-1.49,832.47,5.71,1188.44,2.72-174.1-.14-408.47.24-642.85-0.16q-3.53-.89-2.11-4.24,350.73,0,701.45,0c6.86,0,13.91,1,20.21-3,1-1.41,1.95-1.48,2.92,0q0,6,.09,12c-5.21,2.41-10.74,1.22-16.1,1.22q-1038.26.09-2076.53,0c-5.29,0-10.88,1.63-15.89-1.64,0-49.81.28-99.63-.36-149.44-0.14-10.86,2.25-15.85,13.61-13.62s13.81-3,13.59-13.73C5.22,993.42,5.87,964.32,6,935.23Z"/><path class="cls-1" d="M620.36,876c-3.07,4.37-8.29,1.86-13.69,4.12l7.67,2.52c-15.52,19.1-7.07,41.63-8.6,62.63-1.28,17.62-1.68,18.54-17.28,11.7-2.07-.91-4.79,1.75-6.72-0.95-3.17-11.67-1.22-23.56-1.32-35.33-0.31-36.62-.14-73.24-0.08-109.86,0-4.6-.68-9.36.33-12.73-2,1.94-.34,6-0.35,9.37-0.16,44.54-.07,89.08-0.15,133.61,0,4.89.95,9.91-1,14.68-4.34,10.64-8.13,3.15-12-.36,12.34,3.29,9.76-6.11,9.79-12.18,0.21-46.45.66-92.91-.23-139.34-0.25-12.86,3.87-16.66,15.6-14.79,9.4,1.5,19.38-3,28.37,2.75a11.41,11.41,0,0,1,2,7.43c-2.44,23-.41,46.16-1.17,69.24A37.81,37.81,0,0,1,620.36,876Z"/><path class="cls-1" d="M1030.33,555.1c3.68-5.7,5.32-11.6,2.65-18.33-7.89-19.89-1.45-41.88-8.93-61.86-1.36-1.74-1.25-3.68-.84-5.67,2.28-4.08,1.59-8.52,1.81-12.91,0.11-2.15.75-3.58-2.22-2.44l-2.29-5.6c-3-2.34-8.28-3-6.15-8.88,3-.86-0.6-6.15,4-5.88,10.69-2,19.11.11,21.86,12.28-2.7,5.58-1.68,11.48-1.44,17.31-3.44,9.67,5.17,18.83,1.2,28.61-0.7,1.71-.5-0.27.28,1.36,1,2.07,1.08-1.11,2-.84l9.27,27.2c1,3.94,2.49,7.85.77,12-4.33,5.08-8.86,9.81-9.93,17.08C1041.43,555.1,1037.82,559.25,1030.33,555.1Z"/><path class="cls-1" d="M1799.4,837.23l-4.33-6.12c-4.62,3.63,2.17,8.94-4,14.84-9-22.43.85-44.67-2.44-68.84-6,7.41-2.77,13.19-5.91,17.64-0.07-6.57-3.55-12.85,2-19.9,1.39-1.76-1.26-11.44-9.17-11.84-5.09,3.54-8.61.79-11.87-3-2.32-1.18-2.9-3.29-3-5.66l3.39-3.14c12.44-1.57,3.91-12.87,8.41-18.12,2.85-4.85,4.43-10.26,10.42-1.38,4.42,6.54,2.4,13.12,4.16,19.46-2.27,6-.4,10,5.8,11.87l0.64,20.26c2.37,12.38,1.57,24.69.42,37.21,3.07-11.93-1.45-24.48,2.36-36.21,6.85,11.74,1.38,24.47,2.88,36.66C1799.91,826.32,1799.39,831.81,1799.4,837.23Z"/><path class="cls-1" d="M706.54,1009.42l-0.95-.61-1,.41c-4.33-4.66-2.83-9.64-.8-14.65l-0.06-2.87a97.51,97.51,0,0,1,0-38.69l0-2.9c-3.4-21.41-.56-43-1.59-64.43-0.63-13.14,1.77-26.39-1.48-39.42H673.81c-4.1,10.57,1,22-2.89,32.55-4.42,4.69,7.76,22.84-12.14,15,2.32-1.46,3-3.71,3.26-6.27,0.14-1.17,0-4.82,2.59-1.29,0.8,1.09.76,2.8,3,4.26,0-13.36.37-26.74-.19-40.08-0.21-5,.23-7.34,5.75-7.35,8.88,0,17.76-.71,26.64-0.74s6.72,6.94,6.76,11.83c0.21,23.24,0,46.48.18,69.73,0,4.68-1.44,9.63,2.68,16.51V849.58h3c0,32.21,3.62,65-1.52,96.39-2.59,15.8-4,30.25-1.8,45.61,3.48,5.37,1.27,11.24,1.52,16.9Q709.06,1011.05,706.54,1009.42Z"/><path class="cls-1" d="M1250,724.4c-3.86,4.53-9.27,3.41-13.82,2.77-13.66-1.92-16.34,4.23-16.15,16.74,0.7,44.79.34,89.59,0.19,134.39,0,5.18,1.95,11-2.84,15.34-3.09-7.13-1.36-14.63-1.39-21.93-0.19-42-.12-84.06-0.06-126.09,0-4.61-.59-9.36.3-12.79-1.55,54.84,1,110.64-1.3,166.36-3.83,5.21-9.42,3-14.38,3.42,10-1.29,11.94-7,11.82-16.62-0.6-50.29-.36-100.6-0.13-150.9,0-4.55-2.51-9.77,1.9-13.83a9.5,9.5,0,0,1,1.57.88C1227,724.79,1238.72,720.67,1250,724.4Z"/><path class="cls-1" d="M1618.24,1012.46c-4.87-4.36-2.88-10.16-2.9-15.34-0.15-46.36-.43-92.72.16-139.07,0.15-11.52-2.93-16-14.89-15.21-6.81.44-14.84,3.54-20.86-3.2,39.19-2.16,39.28-2.16,39.17,35.74C1618.78,921.08,1618.47,966.77,1618.24,1012.46Z"/><path class="cls-1" d="M1448.82,722.63a1.74,1.74,0,0,0-.41,1.47c-2.31,40.86-.18,81.77-1.07,122.64-0.51,23.56,1.89,47.18-1.42,70.69l-3.71-.25c0-60.79-.17-121.58.2-182.36C1442.44,730.65,1437.13,721.5,1448.82,722.63Z"/><path class="cls-1" d="M1203.87,895.47v-169l2.45,0V896Z"/><path class="cls-1" d="M397.24,845.94c-2.8,1.06-5.81,3.4-8.36,3-15.79-2.66-18.74,4.76-18.29,19,1,30.86.28,61.77,0.24,92.67a1.41,1.41,0,0,1-.63,1.11,14,14,0,0,1-2.5-.15c-0.11-34.38.38-68.78-.65-103.14-0.35-11.76,3.64-14.59,14.06-13.17C386.42,845.93,391.86,845.73,397.24,845.94Z"/><path class="cls-1" d="M122.5,943.83c-6.3-2.7-4.12-8.38-4.13-12.91-0.1-45,0-90,.07-134.93,4.09,22.76.66,45.72,1.75,68.56C121.45,891,117.59,917.53,122.5,943.83Z"/><path class="cls-1" d="M653,884.75c-8.07-.42-16.28-0.92-24.2-0.8-8.94.14-5.49-4.73-5.94-8.53-4-27.57-4.32-55.12.51-82.64,4.6,6.85,1.87,14.5,2.09,21.74,0.48,15.82.86,31.7-.08,47.47-0.72,12.2,1.66,19,15.79,16.59,3.77-.63,8.92-2.48,12.15,2.33A2.82,2.82,0,0,1,653,884.75Z"/><path class="cls-1" d="M1876.45,887.71H1891c-7.47,2.62-12,5.3-11.7,14.82,0.84,25.63.24,51.3,0.34,77,0,3.38-.44,7.82,1.41,10,6.72,7.76-.39,8.69-4.74,11.19C1874.93,963,1874.57,925.35,1876.45,887.71Z"/><path class="cls-1" d="M1199,905.56c0.19,40.9.43,81.79,0.45,122.69,0,2.55,2.81,7.75-3.64,6.9-1-.14-1.72-3.1-2.57-4.76,5.51-9.38,2.66-19.79,3-29.6,0.81-27,.21-54.11.34-81.17C1196.61,914.86,1195.06,909.68,1199,905.56Z"/><path class="cls-1" d="M858.35,733.4l-0.06,2.94c3.09,18,2.73,36.09,2.58,54.2,0,4-.15,7.91-3.33,10.91l-1.35.19-1.29-.44c-5.19-2.38-7.83-3.94-6.68-12,1.72-12.16,3.84-25.44-1.85-37.67-2-4.36,2.33-4.44,5.48-8.89v50l3-.06c0-14.72-.2-29.44.11-44.15C855.07,743.32,852.65,737.36,858.35,733.4Z"/><path class="cls-1" d="M1030.33,555.1c7.13,0.6,9.48-3.24,8.75-9.65-1-9.13,3.52-13.31,12.1-14.11,4.26,3.1,8.65,6.09,9.83,11.77-0.6,5-3.45,8.68-7,11.93-7.39,7.63-15.94,4.84-24.42,2.73A2.51,2.51,0,0,1,1030.33,555.1Z"/><path class="cls-1" d="M47.2,795.72L47.15,911.6c-2.37,1.57-4.62,1.81-6.65-.56,6.53-3.31,4.17-9.44,4.2-14.47,0.21-29.09,0-58.18.25-87.27C45,804.81,42.32,799.52,47.2,795.72Z"/><path class="cls-1" d="M1356.88,748c0,28.59.08,57.18-.12,85.77,0,5.18,2,11-2.85,15.35-3.24-26.34-.48-52.79-1.52-79.16-0.25-6.27,1.6-12.74-1.45-18.8-3.51-1.52-9.12,3.34-10.87-3.57Z"/><path class="cls-1" d="M1627.59,948.25L1627,956c-0.88-1.7-2.53-3.4-2.54-5.11-0.15-34.82-.11-69.63,3.17-104.44V948.25Z"/><path class="cls-1" d="M1040.22,445.81c-6.18-6.07-12.74-11.45-21.86-12.28l5.36-3.36c7.39-5,1.18-16.11,9.41-20.7,7.34-.33,6.83.33,6.56,9.48-0.14,4.88-9.8,9.69-.6,14.73,2.85,3.27,7,5.86,5.88,11.21C1043.66,446.6,1042,446.41,1040.22,445.81Z"/><path class="cls-1" d="M1706.95,964.27c-6.12-14.28-.66-29.4-3.16-43.94-9.09-3.15-18.49-.56-27.68-1.53-4-.42-9.19,2.2-11.34-3.84,17.3-.72,34.71-3.61,51.69,2.48-0.26,4.26-3.93,2.1-5.9,3.14-4.33,7.51,0,15.15-.42,22.7C1709.71,950.34,1712.61,958,1706.95,964.27Z"/><path class="cls-1" d="M403.54,774.86c6,15.66,2.54,31.74,1.83,47.66,0,1-3,1.89-4.67,2.83l0-50.49Q402.13,772.72,403.54,774.86Z"/><path class="cls-1" d="M623.36,792.78q-0.25,41.32-.51,82.64a9.29,9.29,0,0,1-2.5.56l-3-3.12c3.5-18.39.48-37,1.57-55.41,0.37-6.27-1.45-12.7,1.35-18.79l0.32-6.84A6.41,6.41,0,0,1,623.36,792.78Z"/><path class="cls-1" d="M881.63,691.7c2.92-8.4,2-17.85,7-26,8.42,5.94,4.15,15.9,7.83,23.13,0,0.61-.07,1.22-0.11,1.84a8.16,8.16,0,0,1-2.42,4.84,7.55,7.55,0,0,1-5.21,1,11.52,11.52,0,0,1-4.65-2.36C883.28,693.3,882.46,692.5,881.63,691.7Z"/><path class="cls-1" d="M1628.24,958.88c4.32-1.84,4.89.48,4.88,4.09-0.07,23.16,0,46.32-1,69.49-4.41-23.28,1.24-47.09-3.91-70.3Q1628.23,960.52,1628.24,958.88Z"/><path class="cls-1" d="M1059.28,543.39c-1.71-4.68-8.44-6-8.1-12l0.38-11.9,8.49,8.17c0.19,4,5.17,3.09,6.33,6.11,8.18,3.61-.71,6.28-0.52,9.45,1.45,3.6-.56,5.42-3.49,6.75C1058.46,549.11,1058,546.64,1059.28,543.39Z"/><path class="cls-1" d="M709.53,1007.88q-0.21-8.15-.43-16.31c2.46-11.61-4-24.26,4-35.22a8.34,8.34,0,0,0,.06,2.69,5.56,5.56,0,0,1-.41,5.81l0.07,47.68c1.22,7.9,2.44,15.8-.76,23.56l-1.19.05-1.15-.3C704.08,1026.58,706.13,1017.24,709.53,1007.88Z"/><path class="cls-1" d="M1869.9,890.83v70.39l-1.24,0V890.85Z"/><path class="cls-1" d="M1377.5,967.88a202.05,202.05,0,0,1,0-74.17Q1377.49,930.79,1377.5,967.88Z"/><path class="cls-1" d="M403.54,774.86h-2.81c-0.66-4-1.46-8,.56-11.82h55.49q0,1.46,0,2.91c-14,0-27.9.14-41.85-.06C408.43,765.79,402.85,766.17,403.54,774.86Z"/><path class="cls-1" d="M887.69,694.71l5.79-.07c3.39,2.1,2.84,6,4.12,9,0.59,2.69.36,5.42,0.39,8.14a4.82,4.82,0,0,1-1.42,3.64c-6.1.13-11.51-1.31-15.23-6.63a1.47,1.47,0,0,1,.25-2.26,10.91,10.91,0,0,0,2.46-2.93C885.12,700.61,884.53,696.89,887.69,694.71Z"/><path class="cls-1" d="M1903.54,864.71l-1.31,0-1.31,0c18.88-4.91,37.72-8.48,56.12,1.79-3.88-2-7.83-3.52-12.29-2C1931,866.12,1917.28,865.72,1903.54,864.71Z"/><path class="cls-1" d="M1781.34,697.91c-0.55,8.19,1.79,16.53-1.51,26.63-7.47-11.25-3-22.17-3.93-32.33C1782,690,1778.82,696.69,1781.34,697.91Z"/><path class="cls-1" d="M1074.88,525.76c-0.11,3.91-2.23,5.62-6,5.51l-0.46-1.71c-0.52-6-14.23-7.8-7.72-13.44C1066.91,510.74,1070.84,521.06,1074.88,525.76Z"/><path class="cls-1" d="M1045.3,795.68c6,17.15,1.42,34.8,2.49,52.18C1043,830.65,1045.7,813.09,1045.3,795.68Z"/><path class="cls-1" d="M1664.76,915c9.48,2.65,19.17.19,28.7,1.22,3.71,0.4,9-2.39,10.32,4.15l-41,.07c-1,1.42-1.91,1.44-2.72-.18l-0.38-3.11Z"/><path class="cls-1" d="M1828.87,911.45c-8.61,2.45-11.07-1.66-10.1-9.46,0.7-5.64,1.35-11.28,2.13-17.81,6,6.72-3.54,17.86,8,21.35Z"/><path class="cls-1" d="M1042.29,492.25l-0.63,5.74c-0.5-11.67-8.41-22.73-2.88-34.88C1042.32,472.54,1044.11,482.18,1042.29,492.25Z"/><path class="cls-1" d="M896.56,715.47q0-1.5,0-3,1.17-2,2.3,0l3.6,3.68c1.68,1.4,1.46,3.22,1.11,5.06-1.17,4.08-1.88,8.15.18,12.19l2.54,2.51a3.77,3.77,0,0,1-.8,3.29c-5,1.34-9.77,1.79-9.87-5.29C895.5,727.79,896.2,721.63,896.56,715.47Z"/><path class="cls-1" d="M362.17,955.43l-6.13.15c0.38-11.6,5.29-22.68,3.47-34.59C365,932.27,358.93,944.14,362.17,955.43Z"/><path class="cls-1" d="M995.11,884.8c9.24,0.07,18.48.14,27.73,0.25a1.29,1.29,0,0,1,1,.65c0.33,2.14-1.51,1.67-2.63,2.08a33.79,33.79,0,0,1-20.65,0c-5.87,3.37-.25,11.57-6.26,14.87C993.21,896.64,992.59,890.65,995.11,884.8Z"/><path class="cls-1" d="M1796.38,784.31v37.82h-2.79v-38.8Z"/><path class="cls-1" d="M163.07,763.82c-3.85,8.75-3.8,21-18.15,20.38l-0.79,1-1.2-.36a3.67,3.67,0,0,1-.95-1.41C153.89,782.14,154.11,768.28,163.07,763.82Z"/><path class="cls-1" d="M923,736.83l-1.37-.43-1.37.41c-3.24,1.7-3.38-4.47-6.69-2.62a2.18,2.18,0,0,1-2.26-1.56c0.18-4.14-1.09-8.65,4.23-12.78C919.44,725,923,730,923,736.83Z"/><path class="cls-1" d="M1092.77,522.15l-6.08-2.56c5.79-6.86-2.79-14.74,1.49-23.06C1095,505,1092.07,513.91,1092.77,522.15Z"/><path class="cls-1" d="M1033.13,409.47c-4.84,6.12,4.41,18.66-9.41,20.7l1.19-2.94c-0.15-3.88.5-7.8-.4-11.66C1023.4,407.91,1030.76,412.21,1033.13,409.47Z"/><path class="cls-1" d="M774.16,833.93c-10.57,6.13-21.26,4.38-32,.49Z"/><path class="cls-1" d="M1022.79,453.89l2.91-5.93c-1.53,7,9.33,14.72-1.22,21-2.95-2.74-.88-6.88-2.77-9.92Z"/><path class="cls-1" d="M1899.93,877.87c0.85,1.73,2,3.38,2.48,5.21,0.8,3.22,6.23,7.84.44,9.5-6.51,1.86-4.93-5.18-5.94-8.95C1896.17,880.79,1896.53,878.53,1899.93,877.87Z"/><path class="cls-1" d="M296.7,879c9-5.79,19.19-1.24,28.66-3l0.61,5.8-5.64-2.82A44.23,44.23,0,0,1,296.7,879Z"/><path class="cls-1" d="M1793,763.05c-2.43,1-4,6.66-6.34,3.8-3.76-4.53-3.41-10.56.54-15.68Z"/><path class="cls-1" d="M40.49,911l6.65,0.56c-8.32,6.05-19.08.15-27.53,5.61C23,903.12,33.55,913.13,40.49,911Z"/><path class="cls-1" d="M350,917.41c-7.22,0-14.78,1.25-21.54-.53-4.61-1.21,1.11-1.81,1.68-3C336.92,914.44,344.79,908.47,350,917.41Z"/><path class="cls-1" d="M1852.81,917.54c-7.31,5.4-15.49,2.69-23.28,2.1-3.23-.25-2.49-3.2-0.48-5.18C1836.43,919.72,1845.12,914.74,1852.81,917.54Z"/><path class="cls-1" d="M911.34,732.63a3.51,3.51,0,0,0,2.59-.4c0.67,8.22-4,6-8.42,4.32l-3.12-.34c-2.12-4.76-1.86-9.54-.18-14.34l0.25-5.7c5.58,2.53,2,7.37,2.61,11.08C905.72,731.2,905.34,735.33,911.34,732.63Z"/><path class="cls-1" d="M1772.57,733.1c0,4.76.19,9.53,0.08,14.29-0.16,7-3.92,6.4-8.49,3.83C1773.61,748.27,1767.06,737.89,1772.57,733.1Z"/><path class="cls-1" d="M1781.34,697.91l-5.45-5.7c0-3.64-1.44-7.56,2.63-11.25C1783.85,686,1780.88,692.34,1781.34,697.91Z"/><path class="cls-1" d="M849,805v23.14h-2.86V805.36Z"/><path class="cls-1" d="M1143.56,714.39c-3.89,6.77-8.24.52-12.37,0.44a24.12,24.12,0,0,1,1.4-3.3c4.11-6.77,6.73,3,10.43,1l0.83,0.79Z"/><path class="cls-1" d="M1828.89,896.6a28.43,28.43,0,0,1,0-26.65Q1828.87,883.27,1828.89,896.6Z"/><path class="cls-1" d="M1828.93,864c-4.07-.58-8.43,1.3-14.18-2.46,7.09-1,12.2-3.11,13.75-9.3C1830.12,856.07,1829.76,860,1828.93,864Z"/><path class="cls-1" d="M1187.58,905.53c1-7.86,1-15.66-1.07-23.38C1193.45,889.65,1192.69,897.49,1187.58,905.53Z"/><path class="cls-1" d="M1107.69,534.53l-3.05-3.62q-1.32-.77-1-1.66a1.16,1.16,0,0,1,.78-0.92h16.29C1117.27,533.72,1112.41,534,1107.69,534.53Z"/><path class="cls-1" d="M1104.46,528.34a6.21,6.21,0,0,0,.17,2.58l-12.18-8.3c5.73,1.9,9-3.62,13.75-4.88C1108.86,522.05,1102.41,524.45,1104.46,528.34Z"/><path class="cls-1" d="M1378,982.11c-1.78,3.28-5.88.82-5.8,0.58,1.48-4-1.07-10,5.28-11.8Z"/><path class="cls-1" d="M1576.66,822.39c-4.63-7.9-4.55-15.82-.07-23.75Q1576.63,810.52,1576.66,822.39Z"/><path class="cls-1" d="M898.84,712.5l-2.3,0-0.69-9.73c-1.24-4.18-.82-8.39-0.31-12.61l1-1.31C900.93,696.35,897.78,704.64,898.84,712.5Z"/><path class="cls-1" d="M1544.16,745.21c-8.26-6.71-3.1-13.76-.52-20.74C1545.6,731.33,1544.42,738.28,1544.16,745.21Z"/><path class="cls-1" d="M1045,444.89c-3.29-3-7-5.83-5.88-11.21l3.11-1.53c5.32,0.38,4.24,4.92,5.26,8.09C1046.92,441.94,1048.07,444.56,1045,444.89Z"/><path class="cls-1" d="M1552.62,720.82c-0.42,6.19,2.68,12.87-2.55,18.39C1551.24,733.13,1547.9,726.42,1552.62,720.82Z"/><path class="cls-1" d="M1047.48,440.24c-4.34-1-2.67-5.94-5.26-8.09,3.59-3.5,6.89-.33,8.56,1.65C1053.3,436.81,1047.64,437.5,1047.48,440.24Z"/><path class="cls-1" d="M1024.51,415.57c3.85,3.76,3.67,7.65.4,11.66C1022.72,423.42,1021.26,419.58,1024.51,415.57Z"/><path class="cls-1" d="M1068.4,529.56a4.49,4.49,0,0,1,.46,1.71l-2.49,2.45c-2.74-1.38-8.48.34-6.33-6.11Z"/><path class="cls-1" d="M1143.36,789.09l-1.41,7.4c-2.75-3.49-2.05-6.71-1.1-9.93a1.82,1.82,0,0,1,1.35-.14,4.15,4.15,0,0,1,1.16.86A1.21,1.21,0,0,1,1143.36,789.09Z"/><path class="cls-1" d="M884.68,706.56h-3.1q0-7.44.06-14.87l3.16,0A18.11,18.11,0,0,1,884.68,706.56Z"/><path class="cls-1" d="M1021.71,459l2.77,9.92-0.44,6C1019.43,470.19,1021.2,464.52,1021.71,459Z"/><path class="cls-1" d="M1014.35,439.41c-1.91,5.7,4.16,5.88,6.15,8.88C1013.95,448.45,1009.74,447,1014.35,439.41Z"/><path class="cls-1" d="M653,884.75l0.33-3.83c6.58,2.58,3,7.8,3.11,12C649.94,892.46,654.26,887.43,653,884.75Z"/><path class="cls-1" d="M970.74,807.66q-0.11,105.79-.33,211.57c0,5.68,2.12,11.91-2.54,17-1.93-2.6-1.47-5.64-1.47-8.56q0-98.32,0-196.65c0-2.92-.44-6,1.39-8.59,1.11-8.65-2.1-12.82-11.39-12-6.74.58-13.58,0.11-20.43-2.78h34.69Z"/><path class="cls-1" d="M967.8,822.41q0,106.9.07,213.8c-4.19-3.33-3-8.06-3-12.34q-0.09-94.54,0-189.08C964.91,830.51,963.68,825.79,967.8,822.41Z"/><path class="cls-1" d="M1445.93,917.42q0-88.09.13-176.17c0-5.74-1.8-11.91,2.36-17.15q0.26,91.95.52,183.9C1448.94,911.45,1449.17,915,1445.93,917.42Z"/><path class="cls-1" d="M460,770c0,51,0,99.24,0,147.49,0,7.07-1.78,14.74,8.69,19.54-14.65,2.46-13.52-8.54-13.18-12.86,3.93-50.19,0-100.44,1.85-150.62C457.36,773.2,457.9,772.81,460,770Z"/><path class="cls-1" d="M1214.89,899.19V730.87h2.44q0,81.39,0,162.79C1217.9,896.1,1220.92,899.64,1214.89,899.19Z"/><path class="cls-1" d="M579.14,955.74V796.25h2.61q0,79.89,0,159.78A11.92,11.92,0,0,1,579.14,955.74Z"/><path class="cls-1" d="M1721.79,796.72V916.34h-1.32V796.11Z"/><path class="cls-1" d="M1205,918.46v113.8h-1.46V917.8Z"/><path class="cls-1" d="M730.28,941.15v14.24h-2.72q0-55.31,0-110.61a1.38,1.38,0,0,1,.6-1.1c2.24-.52,1.64,1.44,2.09,2.49A640.62,640.62,0,0,1,730.28,941.15Z"/><path class="cls-1" d="M1006.45,1015.42c-3.2-2.43-3-6-3-9.39,0-32.35,0-64.7,0-97.31,4.18,0.76,2.33,3.81,2.94,5.73A713.32,713.32,0,0,1,1006.45,1015.42Z"/><path class="cls-1" d="M1176.42,1008.81V908.67h1.42v100Z"/><path class="cls-1" d="M905.51,736.56c3.34-.41,7.35.49,8.42-4.32,0.58-2.08-.11-7.37,3.69-1.58,1.21,1.84,1.8,4.1,2.67,6.16l-0.57,3.49c-2.94,20.34,1.44,41-2.45,61.29-5.81-9.07-2.54-19.14-2.66-28.67-0.15-12.23.59-24.25-9.15-33.69Q905.47,737.89,905.51,736.56Z"/><path class="cls-1" d="M1351,751.14c4.83,4.36,2.82,10.14,2.86,15.31,0.2,27.55.1,55.1,0.1,82.65-2.14,2.33-4,3.19-4-1.18Q1350.4,799.53,1351,751.14Z"/><path class="cls-1" d="M700.56,846.26c4.49,0.28,3.74,3.78,3.73,6.49q-0.25,48.68-.66,97.37c-5-4.28-3-10.09-3-15.25C700.46,905.34,700.56,875.8,700.56,846.26Z"/><path class="cls-1" d="M1006.45,1015.42l0-101c4.12,3.34,2.91,8,2.93,12.29q0.13,38.19,0,76.38C1009.35,1007.38,1010.56,1012.07,1006.45,1015.42Z"/><path class="cls-1" d="M730.28,941.15q0-47.49,0-95c5.05,4.85,2.76,11.08,2.83,16.69,0.27,21.51.19,43,0,64.54C733.12,932.09,734.75,937.32,730.28,941.15Z"/><path class="cls-1" d="M474.84,844.21v77.48l-1.64,0V843.56Z"/><path class="cls-1" d="M552.05,878.81c6.53,0.7,6.11,5.22,5.43,9.88-3.17,17.38,1.43,35.13-2.52,52.46-6.07-11.05-2.44-23-2.6-34.45-0.13-9.28-6.42-18.6-.31-27.9h0Z"/><path class="cls-1" d="M917.28,801.59c1.64-20.4-3.07-41.06,2.45-61.3q0,30.47-.12,60.91a1.3,1.3,0,0,1-.95.77A3.83,3.83,0,0,1,917.28,801.59Z"/><path class="cls-1" d="M857.53,801.46c-0.38-21.71-1.89-43.44.76-65.12,4.43,4.29,1.93,9.82,2.64,14.77a182.48,182.48,0,0,1,0,50.5Z"/><path class="cls-1" d="M555,941.16c1.55-17.46-2.93-35.21,2.52-52.47q0.15,27,.28,54a1.32,1.32,0,0,1-.69,1C555,944.09,555.38,942.26,555,941.16Z"/><path class="cls-1" d="M1763.74,760l11.87,3c0.08,4.72-.51,8.77-6.75,8.89-4.06.08-9-.26-10.62-3.33C1756.28,764.78,1763.36,764,1763.74,760Z"/><path class="cls-1" d="M860.94,801.62q0-25.25,0-50.5c6.33,16.46,1.84,33.44,2.42,50.18a1.38,1.38,0,0,1-1,.71A4,4,0,0,1,860.94,801.62Z"/><path class="cls-1" d="M240.28,834.14c0.94,1.11,2.26,2.08,2.75,3.36,1.36,3.58-2,2.68-2.9,2.12-3.3-2-6.29-4.46-9.4-6.75,6.43-5-.79-14.13,5.42-19.78,3.29,7.11-2.29,15.31,4.26,21.13Z"/><path class="cls-1" d="M1864.79,967.78v40.78c-1.59-13.62-6.38-27.34,0-40.75Z"/><path class="cls-1" d="M1706.95,964.27c2.66-14.44-3.65-29.62,3.61-43.69q0.07,7.36.15,14.71c1,9.9,2.94,19.82-1.07,29.54A5.4,5.4,0,0,1,1706.95,964.27Z"/><path class="cls-1" d="M1250,724.4c-11.39-1.44-23.16,2.83-34.3-2.26h39.76C1254.9,725.73,1251.81,723.75,1250,724.4Z"/><path class="cls-1" d="M483.8,831.34l-8.3-.4c12.69-.78,25.48-5.57,38,0.37A63.86,63.86,0,0,1,483.8,831.34Z"/><path class="cls-1" d="M1903.54,864.71l41.2-.27C1931,868.64,1917.3,868,1903.54,864.71Z"/><path class="cls-1" d="M703.68,953V991.7A50.94,50.94,0,0,1,703.68,953Z"/><path class="cls-1" d="M1852.07,930.16v31.7h-1.47V930Z"/><path class="cls-1" d="M483.8,831.34l29.67,0c2.79,3.63-.56,4.93-2.52,4.14C502.15,831.89,492,837.9,483.8,831.34Z"/><path class="cls-1" d="M552.06,878.81c-7.87,0-15.75.15-23.61-.17-4.38-.18-6.93-2-2.63-6.21l-0.14-.1c7.21,8.62,18.91-1.05,26.38,6.48h0Z"/><path class="cls-1" d="M1709.64,964.84l1.07-29.54C1715.2,945.32,1715.32,955.18,1709.64,964.84Z"/><path class="cls-1" d="M670.92,878.8c0.72-10.87-4.38-22.26,2.89-32.55C672.28,857,677.11,868.41,670.92,878.8Z"/><path class="cls-1" d="M1051.62,836.38v-22.5h1.46v22.92Z"/><path class="cls-1" d="M712.12,1036.11l0.76-23.56C715,1020.47,720.09,1028.5,712.12,1036.11Z"/><path class="cls-1" d="M145.26,786.77l5.87,8.88h0c-1.67,3.81-.59,12-8.74,5.49C145.75,796.83,141.69,791,145.26,786.77Z"/><path class="cls-1" d="M709.53,1007.88l0.24,28-3.06.35c-3.07-7.68-1.64-15.55-1-23.38l0.79-3.41Z"/><path class="cls-1" d="M1059.28,543.39c1.37,1.93.38,5.16,3.39,6.2,2.72,2.77,2.51,5.61.18,8.49l-8.86-3A18.48,18.48,0,0,1,1059.28,543.39Z"/><path class="cls-1" d="M1062.85,558.08l-0.18-8.49,3.19-6.41,3,0c2.63,5.61,2.27,10.72-2.47,15.13Z"/><path class="cls-1" d="M1161.31,680.16c-11.35,2.14-6.16-5.39-7.69-12.27,5.78,4.59,7.37,8.25,7.58,12.69Z"/><path class="cls-1" d="M1660.06,920.23a25.48,25.48,0,0,0,2.72.18q0,10.15,0,20.3l-2.72,0V920.23Z"/><path class="cls-1" d="M296.7,879l23.63-.06C312.47,883.4,304.59,883.28,296.7,879Z"/><path class="cls-1" d="M705.75,1012.83q0.48,11.69,1,23.38C701.36,1028.62,702.57,1020.76,705.75,1012.83Z"/><path class="cls-1" d="M1650,952.46h-16.68V951.1h17.27Z"/><path class="cls-1" d="M151.14,795.66c3.42-6.31,7-6.83,12.44.56l-12.44-.56h0Z"/><path class="cls-1" d="M1000.57,887.79h20.65Q1010.89,894.63,1000.57,887.79Z"/><path class="cls-1" d="M1174.95,887.14h-16.14C1165.87,884.16,1170.65,884.76,1174.95,887.14Z"/><path class="cls-1" d="M1137.65,855.65l-3,3.13c-1.06-1.5-2.42-2.88-3-4.54-0.23-.64,1.26-1.91,2-2.89Z"/><path class="cls-1" d="M1066.35,558.35c0.9-5,3.77-9.74,2.47-15.13C1072.65,549,1074.65,554.52,1066.35,558.35Z"/><path class="cls-1" d="M145.26,786.77c-1,4.79,2.09,10.39-2.87,14.39q0.26-8.18.52-16.34a2.57,2.57,0,0,1,2-.61A14.53,14.53,0,0,1,145.26,786.77Z"/><path class="cls-1" d="M1113.22,603.38c-0.29-2.66-.77-3.88-0.45-4.81,0.56-1.6,1.28-3.76,3.74-2.38,0.65,0.36,1.39,1.9,1.14,2.27A44.6,44.6,0,0,1,1113.22,603.38Z"/><path class="cls-1" d="M703.74,994.58l0.8,14.65C698.38,1004.66,699.4,999.71,703.74,994.58Z"/><path class="cls-1" d="M712.8,964.86l0.41-5.81,10.85,0.52Z"/><path class="cls-1" d="M474.28,925.75V939.1C470.94,935.43,471.67,932.43,474.28,925.75Z"/><path class="cls-1" d="M620.32,798.67c0,20.14.13,40.27,0,60.41,0,4.7,1.68,10-2.9,13.78,0-20.13-.09-40.25.07-60.38C617.5,807.78,615.84,802.54,620.32,798.67Z"/><path class="cls-1" d="M1049.2,549.94c-1,1.14-2,3.16-3.45,3.59-1.77.53-1.81-1.38-1.26-2.65,0.71-1.66,1.16-3.81,3.62-3.6C1048.47,547.32,1048.71,548.7,1049.2,549.94Z"/><path class="cls-1" d="M884.68,706.56q0.06-7.42.11-14.84l2.9,3C887.21,698.8,889,703.46,884.68,706.56Z"/><path class="cls-1" d="M895.53,690.14q0.16,6.31.32,12.62c-3.16-2-1.92-5.31-2.37-8.11C893.73,692.94,893.12,690.85,895.53,690.14Z"/><path class="cls-1" d="M902.2,721.87q0.09,7.17.18,14.34C898.37,731.48,897.9,726.71,902.2,721.87Z"/></svg>