<?xml version="1.0" encoding="utf-8"?>
<!-- Generator: Adobe Illustrator 19.2.1, SVG Export Plug-In . SVG Version: 6.00 Build 0)  -->
<svg version="1.1" id="Layer_1" xmlns="http://www.w3.org/2000/svg" xmlns:xlink="http://www.w3.org/1999/xlink" x="0px" y="0px"
	 viewBox="0 0 300 300" style="enable-background:new 0 0 300 300;" xml:space="preserve">
<style type="text/css">
	.st0{fill:#0F9F84;}
	.st1{fill:#FDFDFD;}
	.st2{fill:#B5AFAC;}
</style>
<g>
	<path class="st0" d="M33,199c0-8.3,0-16.7,0-25c4.4-25.6,12.8-50.2,21.1-74.7c2.7-7.9,6.3-15.4,10.8-22.5
		c10-16,23.8-27.1,41.5-33.5c6.8-2.4,13.7-4.2,20.7-5.5c2.4-0.4,5.6,0.3,5.5-4c0-1.5,1.7-1.2,2.9-1c1.8,0.3,3.5,1,6.2,1.5
		c-3-4.7-2.5-9,0.1-13.1c1.3-2.1,3.1-3.8,5.7-3.2c2.2,0.5,1.8,2.9,2.1,4.6c0.2,1.3,0.5,2.6,1,3.8c1.1,2.4,2.4,3.7,4.7,1.1
		c0.7-0.8,1.5-1.3,2.4-1.8c1.3-0.7,2.7-1.6,4.2-0.6c1.3,0.8,1,2.3,0.9,3.7c-0.3,6.8,0.5,7.6,7.7,8.5c13.7,1.7,26.6,5.6,38.7,12.6
		c17.7,10.3,28.5,26.1,36.4,44.3c7.2,16.7,11.2,34.5,16.8,51.7c3.2,9.8,5.8,19.7,6.6,30c0,7.7,0,15.3,0,23
		c-5.4,40.2-31.7,62.5-66.4,77.6c-12.3,5.4-25.3,7.6-38.6,8.4c-9,0-18,0-27,0c-4.9-1.1-9.9-0.6-14.8-1.6c-32.2-7-59-22.2-77.5-50.4
		C37.9,222.7,34.3,211.3,33,199z"/>
	<path class="st1" d="M158.8,119.8c1.2-19.5,16.1-35.5,35.1-37.6c19.3-2.2,37.4,9.6,43.2,28.2c5.7,18.3-2.4,38.3-19.5,47.2
		c-3.7,1.9-3.8,2.9-1.3,6c25.5,32.8,15.5,78.6-21.7,100.4c-36.6,21.4-84.8,12.7-109.5-19.8C66.8,220,66.9,188,85.7,163.6
		c2.4-3.1,2.5-4.1-1.3-6c-17.1-8.8-25.3-29-19.5-47.2C70.7,91.8,88.8,80,108,82.2c19.1,2.2,34,18.1,35.1,37.6
		c0.3,2.1,0.3,4.3,2.1,5.8c-0.3,1.3-1.3,1.8-2.2,2.6c-6,4.9-7.2,8.8-5.1,16.2c2,6.9,6.8,12.1,11.2,17.5c1.2,1.5,2.5,1.3,3.8-0.1
		c5.3-5.7,9.4-12,11.5-19.5c1.6-5.5,0.4-10.2-4.5-13.6c-1.1-0.8-2.2-1.5-2.4-3C158.7,123.8,158.3,121.7,158.8,119.8z"/>
	<path class="st2" d="M144.9,125.8c-3.1-1.2-2.1-3.7-1.7-5.9c0.3,3.1,1.1,5.4,5.1,3.7c1.7-0.7,3.7-0.7,5.4-0.1
		c3.7,1.4,5-0.3,5.2-3.6c0.6,2.1,0.6,4.2-0.8,6.1C153.6,127.4,149.3,127.7,144.9,125.8z"/>
	<path class="st0" d="M144.9,125.8c4.4-0.9,8.8-1,13.1,0.2c7.7,3.9,10.1,8.7,8,17c-2.2,8.6-7.6,15.4-13.5,21.8c-1.2,1.3-2,1.3-3.1,0
		c-5-6-10.2-11.9-12.9-19.4C133.4,136.4,136.3,129.8,144.9,125.8z"/>
	<path class="st0" d="M189.1,143c-6.8,0.1-12.1-4.9-12.2-11.6c-0.1-6.7,5-12.2,11.6-12.4c6.5-0.2,12.2,5.2,12.4,11.7
		C201.1,137.2,195.6,142.9,189.1,143z"/>
	<path class="st0" d="M113.1,143c-6.6-0.1-12-5.6-11.9-12.2c0.1-6.5,5.7-12,12.3-11.9c6.6,0.1,11.9,5.5,11.8,12.2
		C125.1,138,119.9,143.1,113.1,143z"/>
</g>
</svg>
